font.ufo
<glyph name="quotesingle" format="1">
  <advance width="243"/>
  <unicode hex="0027"/>
  <outline>
    <contour>
      <point x="40" y="642" type="line"/>
      <point x="40" y="376" type="line"/>
      <point x="203" y="376" type="line"/>
      <point x="203" y="642" type="line"/>
    </contour>
  </outline>
</glyph>
<glyph name="parenright" format="1">
  <advance width="337"/>
  <unicode hex="0029"/>
  <outline>
    <contour>
      <point x="297" y="141" type="curve"/>
      <point x="297" y="497" type="line"/>
      <point x="297" y="698"/>
      <point x="194" y="804"/>
      <point x="19" y="804" type="curve" smooth="yes"/>
      <point x="10" y="804" type="line"/>
      <point x="10" y="659" type="line"/>
      <point x="19" y="659" type="line" smooth="yes"/>
      <point x="74" y="659"/>
      <point x="122" y="624"/>
      <point x="122" y="500" type="curve" smooth="yes"/>
      <point x="122" y="138" type="line" smooth="yes"/>
      <point x="122" y="14"/>
      <point x="74" y="-21"/>
      <point x="19" y="-21" type="curve" smooth="yes"/>
      <point x="10" y="-21" type="line"/>
      <point x="10" y="-166" type="line"/>
      <point x="19" y="-166" type="line" smooth="yes"/>
      <point x="194" y="-166"/>
      <point x="297" y="-60"/>
    </contour>
  </outline>
</glyph>
<glyph name="nine" format="1">
  <advance width="494"/>
  <unicode hex="0039"/>
  <outline>
    <contour>
      <point x="200" y="495" type="line"/>
      <point x="200" y="510"/>
      <point x="208" y="517"/>
      <point x="225" y="517" type="curve" smooth="yes"/>
      <point x="248" y="517" type="line"/>
      <point x="248" y="642" type="line"/>
      <point x="177" y="642" type="line" smooth="yes"/>
      <point x="70" y="642"/>
      <point x="30" y="593"/>
      <point x="30" y="518" type="curve" smooth="yes"/>
      <point x="30" y="371" type="line" smooth="yes"/>
      <point x="30" y="296"/>
      <point x="70" y="247"/>
      <point x="177" y="247" type="curve" smooth="yes"/>
      <point x="330" y="247" type="line"/>
      <point x="330" y="362" type="line"/>
      <point x="225" y="362" type="line" smooth="yes"/>
      <point x="208" y="362"/>
      <point x="200" y="369"/>
      <point x="200" y="384" type="curve" smooth="yes"/>
    </contour>
    <contour>
      <point x="287" y="147" type="line"/>
      <point x="287" y="132"/>
      <point x="279" y="125"/>
      <point x="262" y="125" type="curve" smooth="yes"/>
      <point x="239" y="125" type="line"/>
      <point x="239" y="0" type="line"/>
      <point x="310" y="0" type="line" smooth="yes"/>
      <point x="417" y="0"/>
      <point x="457" y="49"/>
      <point x="457" y="124" type="curve" smooth="yes"/>
      <point x="457" y="518" type="line" smooth="yes"/>
      <point x="457" y="593"/>
      <point x="417" y="642"/>
      <point x="310" y="642" type="curve" smooth="yes"/>
      <point x="239" y="642" type="line"/>
      <point x="239" y="517" type="line"/>
      <point x="262" y="517" type="line" smooth="yes"/>
      <point x="279" y="517"/>
      <point x="287" y="510"/>
      <point x="287" y="495" type="curve" smooth="yes"/>
    </contour>
    <contour>
      <point x="208" y="191" type="line"/>
      <point x="38" y="191" type="line"/>
      <point x="38" y="124" type="line" smooth="yes"/>
      <point x="38" y="49"/>
      <point x="78" y="0"/>
      <point x="185" y="0" type="curve" smooth="yes"/>
      <point x="254" y="0" type="line"/>
      <point x="254" y="125" type="line"/>
      <point x="233" y="125" type="line" smooth="yes"/>
      <point x="216" y="125"/>
      <point x="208" y="132"/>
      <point x="208" y="147" type="curve" smooth="yes"/>
    </contour>
  </outline>
</glyph>
<glyph name="B" format="1">
  <advance width="516"/>
  <unicode hex="0042"/>
  <outline>
    <contour>
      <point x="40" y="642" type="line"/>
      <point x="40" y="0" type="line"/>
      <point x="334" y="0" type="line" smooth="yes"/>
      <point x="441" y="0"/>
      <point x="481" y="49"/>
      <point x="481" y="124" type="curve"/>
      <point x="481" y="220" type="line" smooth="yes"/>
      <point x="481" y="271"/>
      <point x="472" y="306"/>
      <point x="433" y="323" type="curve"/>
      <point x="472" y="344"/>
      <point x="481" y="384"/>
      <point x="481" y="436" type="curve" smooth="yes"/>
      <point x="481" y="518" type="line" smooth="yes"/>
      <point x="481" y="593"/>
      <point x="441" y="642"/>
      <point x="334" y="642" type="curve" smooth="yes"/>
    </contour>
    <contour>
      <point x="309" y="137" type="line"/>
      <point x="309" y="122"/>
      <point x="301" y="115"/>
      <point x="284" y="115" type="curve" smooth="yes"/>
      <point x="212" y="115" type="line"/>
      <point x="212" y="264" type="line"/>
      <point x="284" y="264" type="line" smooth="yes"/>
      <point x="301" y="264"/>
      <point x="309" y="257"/>
      <point x="309" y="242" type="curve"/>
    </contour>
    <contour>
      <point x="309" y="401" type="line"/>
      <point x="309" y="386"/>
      <point x="301" y="379"/>
      <point x="284" y="379" type="curve" smooth="yes"/>
      <point x="212" y="379" type="line"/>
      <point x="212" y="527" type="line"/>
      <point x="284" y="527" type="line" smooth="yes"/>
      <point x="301" y="527"/>
      <point x="309" y="520"/>
      <point x="309" y="505" type="curve" smooth="yes"/>
    </contour>
  </outline>
</glyph>
<glyph name="C" format="1">
  <advance width="495"/>
  <unicode hex="0043"/>
  <outline>
    <contour>
      <point x="210" y="505" type="line"/>
      <point x="210" y="520"/>
      <point x="218" y="527"/>
      <point x="235" y="527" type="curve" smooth="yes"/>
      <point x="261" y="527" type="line"/>
      <point x="261" y="642" type="line"/>
      <point x="182" y="642" type="line" smooth="yes"/>
      <point x="75" y="642"/>
      <point x="35" y="593"/>
      <point x="35" y="518" type="curve" smooth="yes"/>
      <point x="35" y="124" type="line" smooth="yes"/>
      <point x="35" y="49"/>
      <point x="75" y="0"/>
      <point x="182" y="0" type="curve"/>
      <point x="261" y="0" type="line"/>
      <point x="261" y="115" type="line"/>
      <point x="235" y="115" type="line" smooth="yes"/>
      <point x="218" y="115"/>
      <point x="210" y="122"/>
      <point x="210" y="137" type="curve" smooth="yes"/>
    </contour>
    <contour>
      <point x="295" y="402" type="line"/>
      <point x="470" y="402" type="line"/>
      <point x="470" y="518" type="line" smooth="yes"/>
      <point x="470" y="593"/>
      <point x="430" y="642"/>
      <point x="323" y="642" type="curve" smooth="yes"/>
      <point x="244" y="642" type="line"/>
      <point x="244" y="527" type="line"/>
      <point x="270" y="527" type="line" smooth="yes"/>
      <point x="287" y="527"/>
      <point x="295" y="520"/>
      <point x="295" y="505" type="curve" smooth="yes"/>
    </contour>
    <contour>
      <point x="295" y="137" type="line"/>
      <point x="295" y="122"/>
      <point x="287" y="115"/>
      <point x="270" y="115" type="curve" smooth="yes"/>
      <point x="244" y="115" type="line"/>
      <point x="244" y="0" type="line"/>
      <point x="323" y="0" type="line" smooth="yes"/>
      <point x="430" y="0"/>
      <point x="470" y="49"/>
      <point x="470" y="124" type="curve" smooth="yes"/>
      <point x="470" y="236" type="line"/>
      <point x="295" y="236" type="line"/>
    </contour>
  </outline>
</glyph>
<glyph name="F" format="1">
  <advance width="440"/>
  <unicode hex="0046"/>
  <outline>
    <contour>
      <point x="40" y="642" type="line"/>
      <point x="40" y="0" type="line"/>
      <point x="215" y="0" type="line"/>
      <point x="215" y="642" type="line"/>
    </contour>
    <contour>
      <point x="397" y="361" type="line"/>
      <point x="116" y="361" type="line"/>
      <point x="116" y="246" type="line"/>
      <point x="397" y="246" type="line"/>
    </contour>
    <contour>
      <point x="425" y="642" type="line"/>
      <point x="102" y="642" type="line"/>
      <point x="102" y="517" type="line"/>
      <point x="425" y="517" type="line"/>
    </contour>
  </outline>
</glyph>
<glyph name="H" format="1">
  <advance width="550"/>
  <unicode hex="0048"/>
  <outline>
    <contour>
      <point x="360" y="379" type="line"/>
      <point x="180" y="379" type="line"/>
      <point x="180" y="254" type="line"/>
      <point x="360" y="254" type="line"/>
    </contour>
    <contour>
      <point x="40" y="642" type="line"/>
      <point x="40" y="0" type="line"/>
      <point x="212" y="0" type="line"/>
      <point x="212" y="642" type="line"/>
    </contour>
    <contour>
      <point x="338" y="642" type="line"/>
      <point x="338" y="0" type="line"/>
      <point x="510" y="0" type="line"/>
      <point x="510" y="642" type="line"/>
    </contour>
  </outline>
</glyph>
<glyph name="O" format="1">
  <advance width="516"/>
  <unicode hex="004F"/>
  <outline>
    <contour>
      <point x="304" y="374" type="line"/>
      <point x="479" y="374" type="line"/>
      <point x="479" y="518" type="line" smooth="yes"/>
      <point x="479" y="593"/>
      <point x="439" y="642"/>
      <point x="332" y="642" type="curve" smooth="yes"/>
      <point x="246" y="642" type="line"/>
      <point x="246" y="517" type="line"/>
      <point x="279" y="517" type="line" smooth="yes"/>
      <point x="296" y="517"/>
      <point x="304" y="510"/>
      <point x="304" y="495" type="curve" smooth="yes"/>
    </contour>
    <contour>
      <point x="304" y="147" type="line"/>
      <point x="304" y="132"/>
      <point x="296" y="125"/>
      <point x="279" y="125" type="curve" smooth="yes"/>
      <point x="246" y="125" type="line"/>
      <point x="246" y="0" type="line"/>
      <point x="332" y="0" type="line" smooth="yes"/>
      <point x="439" y="0"/>
      <point x="479" y="49"/>
      <point x="479" y="124" type="curve" smooth="yes"/>
      <point x="479" y="387" type="line"/>
      <point x="304" y="387" type="line"/>
    </contour>
    <contour>
      <point x="212" y="495" type="line"/>
      <point x="212" y="510"/>
      <point x="220" y="517"/>
      <point x="237" y="517" type="curve" smooth="yes"/>
      <point x="270" y="517" type="line"/>
      <point x="270" y="642" type="line"/>
      <point x="184" y="642" type="line" smooth="yes"/>
      <point x="77" y="642"/>
      <point x="37" y="593"/>
      <point x="37" y="518" type="curve" smooth="yes"/>
      <point x="37" y="374" type="line"/>
      <point x="212" y="374" type="line"/>
    </contour>
    <contour>
      <point x="212" y="387" type="line"/>
      <point x="37" y="387" type="line"/>
      <point x="37" y="124" type="line" smooth="yes"/>
      <point x="37" y="49"/>
      <point x="77" y="0"/>
      <point x="184" y="0" type="curve" smooth="yes"/>
      <point x="270" y="0" type="line"/>
      <point x="270" y="125" type="line"/>
      <point x="237" y="125" type="line" smooth="yes"/>
      <point x="220" y="125"/>
      <point x="212" y="132"/>
      <point x="212" y="147" type="curve" smooth="yes"/>
    </contour>
  </outline>
</glyph>
<glyph name="P" format="1">
  <advance width="504"/>
  <unicode hex="0050"/>
  <outline>
    <contour>
      <point x="309" y="357" type="line"/>
      <point x="309" y="342"/>
      <point x="301" y="335"/>
      <point x="284" y="335" type="curve" smooth="yes"/>
      <point x="98" y="335" type="line"/>
      <point x="98" y="210" type="line"/>
      <point x="337" y="210" type="line" smooth="yes"/>
      <point x="444" y="210"/>
      <point x="484" y="259"/>
      <point x="484" y="334" type="curve" smooth="yes"/>
      <point x="484" y="518" type="line" smooth="yes"/>
      <point x="484" y="593"/>
      <point x="444" y="642"/>
      <point x="337" y="642" type="curve" smooth="yes"/>
      <point x="98" y="642" type="line"/>
      <point x="98" y="517" type="line"/>
      <point x="284" y="517" type="line" smooth="yes"/>
      <point x="301" y="517"/>
      <point x="309" y="510"/>
      <point x="309" y="495" type="curve" smooth="yes"/>
    </contour>
    <contour>
      <point x="40" y="642" type="line"/>
      <point x="40" y="0" type="line"/>
      <point x="215" y="0" type="line"/>
      <point x="215" y="642" type="line"/>
    </contour>
  </outline>
</glyph>
<glyph name="W" format="1">
  <advance width="836"/>
  <unicode hex="0057"/>
  <outline>
    <contour>
      <point x="653" y="642" type="line"/>
      <point x="589" y="210" type="line"/>
      <point x="503" y="642" type="line"/>
      <point x="332" y="642" type="line"/>
      <point x="246" y="210" type="line"/>
      <point x="192" y="642" type="line"/>
      <point x="10" y="642" type="line"/>
      <point x="146" y="0" type="line"/>
      <point x="347" y="0" type="line"/>
      <point x="418" y="383" type="line"/>
      <point x="489" y="0" type="line"/>
      <point x="690" y="0" type="line"/>
      <point x="826" y="642" type="line"/>
    </contour>
  </outline>
</glyph>
<glyph name="Y" format="1">
  <advance width="519"/>
  <unicode hex="0059"/>
  <outline>
    <contour>
      <point x="340" y="179" type="line"/>
      <point x="519" y="642" type="line"/>
      <point x="341" y="642" type="line"/>
      <point x="263" y="371" type="line"/>
      <point x="179" y="642" type="line"/>
      <point x="0" y="642" type="line"/>
      <point x="189" y="179" type="line"/>
    </contour>
    <contour>
      <point x="177" y="272" type="line"/>
      <point x="177" y="0" type="line"/>
      <point x="352" y="0" type="line"/>
      <point x="352" y="272" type="line"/>
    </contour>
  </outline>
</glyph>
<glyph name="Z" format="1">
  <advance width="464"/>
  <unicode hex="005A"/>
  <outline>
    <contour>
      <point x="444" y="642" type="line"/>
      <point x="33" y="642" type="line"/>
      <point x="33" y="517" type="line"/>
      <point x="444" y="517" type="line"/>
    </contour>
    <contour>
      <point x="261" y="517" type="line"/>
      <point x="20" y="125" type="line"/>
      <point x="203" y="125" type="line"/>
      <point x="444" y="517" type="line"/>
    </contour>
    <contour>
      <point x="437" y="125" type="line"/>
      <point x="20" y="125" type="line"/>
      <point x="20" y="0" type="line"/>
      <point x="437" y="0" type="line"/>
    </contour>
  </outline>
</glyph>
<glyph name="bracketleft" format="1">
  <advance width="317"/>
  <unicode hex="005B"/>
  <outline>
    <contour>
      <point x="99" y="666" type="line"/>
      <point x="307" y="666" type="line"/>
      <point x="307" y="791" type="line"/>
      <point x="99" y="791" type="line"/>
    </contour>
    <contour>
      <point x="40" y="791" type="line"/>
      <point x="40" y="-157" type="line"/>
      <point x="215" y="-157" type="line"/>
      <point x="215" y="791" type="line"/>
    </contour>
    <contour>
      <point x="99" y="-157" type="line"/>
      <point x="307" y="-157" type="line"/>
      <point x="307" y="-32" type="line"/>
      <point x="99" y="-32" type="line"/>
    </contour>
  </outline>
</glyph>
<glyph name="backslash" format="1">
  <advance width="411"/>
  <unicode hex="005C"/>
  <outline>
    <contour>
      <point x="-20" y="702" type="line"/>
      <point x="287" y="-60" type="line"/>
      <point x="431" y="-60" type="line"/>
      <point x="124" y="702" type="line"/>
    </contour>
  </outline>
</glyph>
<glyph name="g" format="1">
  <advance width="479"/>
  <unicode hex="0067"/>
  <outline>
    <contour>
      <point x="30" y="259" type="line"/>
      <point x="30" y="154" type="line" smooth="yes"/>
      <point x="30" y="79"/>
      <point x="68" y="30"/>
      <point x="163" y="30" type="curve" smooth="yes"/>
      <point x="181" y="30" type="line" smooth="yes"/>
      <point x="244" y="30"/>
      <point x="275" y="66"/>
      <point x="275" y="122" type="curve" smooth="yes"/>
      <point x="275" y="212" type="line"/>
      <point x="269" y="212" type="line"/>
      <point x="269" y="185" type="line" smooth="yes"/>
      <point x="269" y="164"/>
      <point x="260" y="155"/>
      <point x="242" y="155" type="curve" smooth="yes"/>
      <point x="225" y="155" type="line" smooth="yes"/>
      <point x="208" y="155"/>
      <point x="200" y="162"/>
      <point x="200" y="177" type="curve" smooth="yes"/>
      <point x="200" y="259" type="line"/>
    </contour>
    <contour>
      <point x="200" y="240" type="line"/>
      <point x="200" y="352" type="line" smooth="yes"/>
      <point x="200" y="367"/>
      <point x="208" y="374"/>
      <point x="225" y="374" type="curve" smooth="yes"/>
      <point x="242" y="374" type="line" smooth="yes"/>
      <point x="260" y="374"/>
      <point x="269" y="365"/>
      <point x="269" y="344" type="curve" smooth="yes"/>
      <point x="269" y="317" type="line"/>
      <point x="275" y="317" type="line"/>
      <point x="275" y="407" type="line" smooth="yes"/>
      <point x="275" y="463"/>
      <point x="244" y="499"/>
      <point x="181" y="499" type="curve" smooth="yes"/>
      <point x="163" y="499" type="line" smooth="yes"/>
      <point x="68" y="499"/>
      <point x="30" y="450"/>
      <point x="30" y="375" type="curve" smooth="yes"/>
      <point x="30" y="240" type="line"/>
    </contour>
    <contour>
      <point x="269" y="13" type="line"/>
      <point x="269" y="-2"/>
      <point x="261" y="-9"/>
      <point x="244" y="-9" type="curve" smooth="yes"/>
      <point x="53" y="-9" type="line"/>
      <point x="53" y="-129" type="line"/>
      <point x="292" y="-129" type="line" smooth="yes"/>
      <point x="399" y="-129"/>
      <point x="439" y="-80"/>
      <point x="439" y="-5" type="curve" smooth="yes"/>
      <point x="439" y="41" type="line"/>
      <point x="269" y="41" type="line"/>
    </contour>
    <contour>
      <point x="439" y="30" type="line"/>
      <point x="439" y="499" type="line"/>
      <point x="272" y="499" type="line"/>
      <point x="272" y="404" type="line"/>
      <point x="269" y="404" type="line"/>
      <point x="269" y="30" type="line"/>
    </contour>
  </outline>
</glyph>
<glyph name="i" format="1">
  <advance width="250"/>
  <unicode hex="0069"/>
  <outline>
    <contour>
      <point x="210" y="0" type="line"/>
      <point x="210" y="499" type="line"/>
      <point x="40" y="499" type="line"/>
      <point x="40" y="0" type="line"/>
    </contour>
    <contour>
      <point x="37" y="549" type="line"/>
      <point x="213" y="549" type="line"/>
      <point x="213" y="669" type="line"/>
      <point x="37" y="669" type="line"/>
    </contour>
  </outline>
</glyph>
<glyph name="j" format="1">
  <advance width="250"/>
  <unicode hex="006A"/>
  <outline>
    <contour>
      <point x="40" y="13" type="line"/>
      <point x="40" y="-2"/>
      <point x="32" y="-9"/>
      <point x="15" y="-9" type="curve" smooth="yes"/>
      <point x="-18" y="-9" type="line"/>
      <point x="-18" y="-129" type="line"/>
      <point x="63" y="-129" type="line" smooth="yes"/>
      <point x="170" y="-129"/>
      <point x="210" y="-80"/>
      <point x="210" y="-5" type="curve" smooth="yes"/>
      <point x="210" y="499" type="line"/>
      <point x="40" y="499" type="line"/>
    </contour>
    <contour>
      <point x="37" y="549" type="line"/>
      <point x="213" y="549" type="line"/>
      <point x="213" y="669" type="line"/>
      <point x="37" y="669" type="line"/>
    </contour>
  </outline>
</glyph>
<glyph name="l" format="1">
  <advance width="250"/>
  <unicode hex="006C"/>
  <outline>
    <contour>
      <point x="210" y="0" type="line"/>
      <point x="210" y="669" type="line"/>
      <point x="40" y="669" type="line"/>
      <point x="40" y="0" type="line"/>
    </contour>
  </outline>
</glyph>
<glyph name="m" format="1">
  <advance width="723"/>
  <unicode hex="006D"/>
  <outline>
    <contour>
      <point x="449" y="0" type="line"/>
      <point x="449" y="375" type="line" smooth="yes"/>
      <point x="449" y="450"/>
      <point x="411" y="499"/>
      <point x="316" y="499" type="curve" smooth="yes"/>
      <point x="298" y="499" type="line" smooth="yes"/>
      <point x="235" y="499"/>
      <point x="204" y="463"/>
      <point x="204" y="407" type="curve" smooth="yes"/>
      <point x="204" y="317" type="line"/>
      <point x="210" y="317" type="line"/>
      <point x="210" y="344" type="line" smooth="yes"/>
      <point x="210" y="365"/>
      <point x="219" y="374"/>
      <point x="237" y="374" type="curve" smooth="yes"/>
      <point x="254" y="374" type="line" smooth="yes"/>
      <point x="271" y="374"/>
      <point x="279" y="367"/>
      <point x="279" y="352" type="curve" smooth="yes"/>
      <point x="279" y="0" type="line"/>
    </contour>
    <contour>
      <point x="210" y="0" type="line"/>
      <point x="210" y="404" type="line"/>
      <point x="207" y="404" type="line"/>
      <point x="207" y="499" type="line"/>
      <point x="40" y="499" type="line"/>
      <point x="40" y="0" type="line"/>
    </contour>
    <contour>
      <point x="688" y="0" type="line"/>
      <point x="688" y="375" type="line" smooth="yes"/>
      <point x="688" y="450"/>
      <point x="650" y="499"/>
      <point x="555" y="499" type="curve" smooth="yes"/>
      <point x="537" y="499" type="line" smooth="yes"/>
      <point x="474" y="499"/>
      <point x="430" y="460"/>
      <point x="435" y="404" type="curve" smooth="yes"/>
      <point x="443" y="317" type="line"/>
      <point x="449" y="317" type="line"/>
      <point x="449" y="344" type="line" smooth="yes"/>
      <point x="449" y="365"/>
      <point x="458" y="374"/>
      <point x="476" y="374" type="curve" smooth="yes"/>
      <point x="493" y="374" type="line" smooth="yes"/>
      <point x="510" y="374"/>
      <point x="518" y="367"/>
      <point x="518" y="352" type="curve" smooth="yes"/>
      <point x="518" y="0" type="line"/>
    </contour>
  </outline>
</glyph>
<glyph name="u" format="1">
  <advance width="484"/>
  <unicode hex="0075"/>
  <outline>
    <contour>
      <point x="35" y="499" type="line"/>
      <point x="35" y="124" type="line" smooth="yes"/>
      <point x="35" y="49"/>
      <point x="73" y="0"/>
      <point x="168" y="0" type="curve" smooth="yes"/>
      <point x="186" y="0" type="line" smooth="yes"/>
      <point x="249" y="0"/>
      <point x="280" y="36"/>
      <point x="280" y="92" type="curve" smooth="yes"/>
      <point x="280" y="182" type="line"/>
      <point x="274" y="182" type="line"/>
      <point x="274" y="155" type="line" smooth="yes"/>
      <point x="274" y="134"/>
      <point x="265" y="125"/>
      <point x="247" y="125" type="curve" smooth="yes"/>
      <point x="230" y="125" type="line" smooth="yes"/>
      <point x="213" y="125"/>
      <point x="205" y="132"/>
      <point x="205" y="147" type="curve" smooth="yes"/>
      <point x="205" y="499" type="line"/>
    </contour>
    <contour>
      <point x="274" y="499" type="line"/>
      <point x="274" y="95" type="line"/>
      <point x="277" y="95" type="line"/>
      <point x="277" y="0" type="line"/>
      <point x="444" y="0" type="line"/>
      <point x="444" y="499" type="line"/>
    </contour>
  </outline>
</glyph>
<glyph name="w" format="1">
  <advance width="679"/>
  <unicode hex="0077"/>
  <outline>
    <contour>
      <point x="518" y="499" type="line"/>
      <point x="472" y="186" type="line"/>
      <point x="414" y="499" type="line"/>
      <point x="265" y="499" type="line"/>
      <point x="200" y="184" type="line"/>
      <point x="163" y="499" type="line"/>
      <point x="5" y="499" type="line"/>
      <point x="106" y="0" type="line"/>
      <point x="275" y="0" type="line"/>
      <point x="337" y="294" type="line"/>
      <point x="398" y="0" type="line"/>
      <point x="567" y="0" type="line"/>
      <point x="674" y="499" type="line"/>
    </contour>
  </outline>
</glyph>
<glyph name="x" format="1">
  <advance width="447"/>
  <unicode hex="0078"/>
  <outline>
    <contour>
      <point x="323" y="258" type="line"/>
      <point x="433" y="499" type="line"/>
      <point x="264" y="499" type="line"/>
      <point x="221" y="360" type="line"/>
      <point x="178" y="499" type="line"/>
      <point x="0" y="499" type="line"/>
      <point x="120" y="255" type="line"/>
      <point x="6" y="0" type="line"/>
      <point x="172" y="0" type="line"/>
      <point x="221" y="148" type="line"/>
      <point x="275" y="0" type="line"/>
      <point x="447" y="0" type="line"/>
    </contour>
  </outline>
</glyph>
<glyph name="y" format="1">
  <advance width="464"/>
  <unicode hex="0079"/>
  <outline>
    <contour>
      <point x="0" y="499" type="line"/>
      <point x="137" y="40" type="line"/>
      <point x="202" y="40" type="line"/>
      <point x="200" y="34" type="line" smooth="yes"/>
      <point x="189" y="0"/>
      <point x="169" y="-6"/>
      <point x="140" y="-6" type="curve" smooth="yes"/>
      <point x="66" y="-6" type="line"/>
      <point x="66" y="-129" type="line"/>
      <point x="150" y="-129" type="line" smooth="yes"/>
      <point x="264" y="-129"/>
      <point x="313" y="-77"/>
      <point x="339" y="10" type="curve" smooth="yes"/>
      <point x="464" y="499" type="line"/>
      <point x="293" y="499" type="line"/>
      <point x="239" y="195" type="line"/>
      <point x="178" y="499" type="line"/>
    </contour>
  </outline>
</glyph>
<glyph name="z" format="1">
  <advance width="391"/>
  <unicode hex="007A"/>
  <outline>
    <contour>
      <point x="371" y="499" type="line"/>
      <point x="23" y="499" type="line"/>
      <point x="23" y="380" type="line"/>
      <point x="371" y="380" type="line"/>
    </contour>
    <contour>
      <point x="189" y="380" type="line"/>
      <point x="10" y="119" type="line"/>
      <point x="189" y="119" type="line"/>
      <point x="371" y="380" type="line"/>
    </contour>
    <contour>
      <point x="381" y="119" type="line"/>
      <point x="10" y="119" type="line"/>
      <point x="10" y="0" type="line"/>
      <point x="381" y="0" type="line"/>
    </contour>
  </outline>
</glyph>
<glyph name="bar" format="1">
  <advance width="266"/>
  <unicode hex="007C"/>
  <outline>
    <contour>
      <point x="50" y="833" type="line"/>
      <point x="50" y="-193" type="line"/>
      <point x="205" y="-193" type="line"/>
      <point x="205" y="833" type="line"/>
    </contour>
  </outline>
</glyph>
<glyph name="asciitilde" format="1">
  <advance width="719"/>
  <unicode hex="007E"/>
  <outline>
    <contour>
      <point x="441" y="204" type="curve" smooth="yes"/>
      <point x="508" y="204" type="line"/>
      <point x="588" y="204"/>
      <point x="619" y="235"/>
      <point x="619" y="304" type="curve" smooth="yes"/>
      <point x="619" y="389" type="line"/>
      <point x="464" y="389" type="line"/>
      <point x="464" y="344" type="line" smooth="yes"/>
      <point x="464" y="321"/>
      <point x="459" y="312"/>
      <point x="436" y="312" type="curve" smooth="yes"/>
      <point x="400" y="312"/>
      <point x="362" y="389"/>
      <point x="274" y="389" type="curve" smooth="yes"/>
      <point x="207" y="389" type="line" smooth="yes"/>
      <point x="127" y="389"/>
      <point x="96" y="358"/>
      <point x="96" y="289" type="curve" smooth="yes"/>
      <point x="96" y="204" type="line"/>
      <point x="251" y="204" type="line"/>
      <point x="251" y="249" type="line" smooth="yes"/>
      <point x="251" y="272"/>
      <point x="256" y="281"/>
      <point x="279" y="281" type="curve" smooth="yes"/>
      <point x="328" y="281"/>
      <point x="369" y="204"/>
    </contour>
  </outline>
</glyph>
<glyph name="brokenbar" format="1">
  <advance width="266"/>
  <unicode hex="00A6"/>
  <outline>
    <contour>
      <point x="40" y="262" type="line"/>
      <point x="40" y="-93" type="line"/>
      <point x="215" y="-93" type="line"/>
      <point x="215" y="262" type="line"/>
    </contour>
    <contour>
      <point x="215" y="378" type="line"/>
      <point x="215" y="733" type="line"/>
      <point x="40" y="733" type="line"/>
      <point x="40" y="378" type="line"/>
    </contour>
  </outline>
</glyph>
<glyph name="dieresis" format="1">
  <advance width="500"/>
  <unicode hex="00A8"/>
  <outline>
    <contour>
      <point x="54" y="542" type="line"/>
      <point x="206" y="542" type="line"/>
      <point x="206" y="672" type="line"/>
      <point x="54" y="672" type="line"/>
    </contour>
    <contour>
      <point x="294" y="542" type="line"/>
      <point x="446" y="542" type="line"/>
      <point x="446" y="672" type="line"/>
      <point x="294" y="672" type="line"/>
    </contour>
  </outline>
</glyph>
<glyph name="copyright" format="1">
  <advance width="772"/>
  <unicode hex="00A9"/>
  <outline>
    <contour>
      <point x="742" y="338" type="line"/>
      <point x="742" y="519"/>
      <point x="689" y="642"/>
      <point x="484" y="642" type="curve" smooth="yes"/>
      <point x="288" y="642" type="line" smooth="yes"/>
      <point x="83" y="642"/>
      <point x="30" y="519"/>
      <point x="30" y="338" type="curve" smooth="yes"/>
      <point x="30" y="304" type="line" smooth="yes"/>
      <point x="30" y="123"/>
      <point x="83" y="0"/>
      <point x="288" y="0" type="curve" smooth="yes"/>
      <point x="484" y="0" type="line" smooth="yes"/>
      <point x="689" y="0"/>
      <point x="742" y="123"/>
      <point x="742" y="304" type="curve" smooth="yes"/>
    </contour>
    <contour>
      <point x="321" y="99" type="line"/>
      <point x="212" y="99"/>
      <point x="160" y="127"/>
      <point x="160" y="286" type="curve" smooth="yes"/>
      <point x="160" y="356" type="line" smooth="yes"/>
      <point x="160" y="515"/>
      <point x="212" y="543"/>
      <point x="321" y="543" type="curve" smooth="yes"/>
      <point x="451" y="543" type="line" smooth="yes"/>
      <point x="560" y="543"/>
      <point x="612" y="515"/>
      <point x="612" y="356" type="curve" smooth="yes"/>
      <point x="612" y="286" type="line" smooth="yes"/>
      <point x="612" y="127"/>
      <point x="560" y="99"/>
      <point x="451" y="99" type="curve" smooth="yes"/>
    </contour>
    <contour>
      <point x="413" y="260" type="line"/>
      <point x="413" y="250"/>
      <point x="407" y="245"/>
      <point x="396" y="245" type="curve" smooth="yes"/>
      <point x="378" y="245" type="line" smooth="yes"/>
      <point x="366" y="245"/>
      <point x="361" y="250"/>
      <point x="361" y="260" type="curve" smooth="yes"/>
      <point x="361" y="383" type="line" smooth="yes"/>
      <point x="361" y="393"/>
      <point x="366" y="398"/>
      <point x="378" y="398" type="curve" smooth="yes"/>
      <point x="396" y="398" type="line" smooth="yes"/>
      <point x="407" y="398"/>
      <point x="413" y="393"/>
      <point x="413" y="383" type="curve" smooth="yes"/>
      <point x="413" y="350" type="line"/>
      <point x="530" y="350" type="line"/>
      <point x="530" y="403" type="line" smooth="yes"/>
      <point x="530" y="454"/>
      <point x="502" y="488"/>
      <point x="429" y="488" type="curve" smooth="yes"/>
      <point x="345" y="488" type="line" smooth="yes"/>
      <point x="271" y="488"/>
      <point x="244" y="454"/>
      <point x="244" y="403" type="curve" smooth="yes"/>
      <point x="244" y="240" type="line" smooth="yes"/>
      <point x="244" y="189"/>
      <point x="271" y="155"/>
      <point x="345" y="155" type="curve" smooth="yes"/>
      <point x="429" y="155" type="line" smooth="yes"/>
      <point x="502" y="155"/>
      <point x="530" y="189"/>
      <point x="530" y="240" type="curve" smooth="yes"/>
      <point x="530" y="294" type="line"/>
      <point x="413" y="294" type="line"/>
    </contour>
  </outline>
</glyph>
<glyph name="softhyphen" format="1">
  <advance width="343"/>
  <unicode hex="00AD"/>
  <outline>
    <contour>
      <point x="20" y="245" type="line"/>
      <point x="323" y="245" type="line"/>
      <point x="323" y="360" type="line"/>
      <point x="20" y="360" type="line"/>
    </contour>
  </outline>
</glyph>
<glyph name="registered" format="1">
  <advance width="478"/>
  <unicode hex="00AE"/>
  <outline>
    <contour>
      <point x="448" y="556" type="line"/>
      <point x="448" y="663"/>
      <point x="416" y="735"/>
      <point x="296" y="735" type="curve" smooth="yes"/>
      <point x="181" y="735" type="line" smooth="yes"/>
      <point x="61" y="735"/>
      <point x="30" y="663"/>
      <point x="30" y="556" type="curve" smooth="yes"/>
      <point x="30" y="537" type="line" smooth="yes"/>
      <point x="30" y="431"/>
      <point x="61" y="358"/>
      <point x="181" y="358" type="curve" smooth="yes"/>
      <point x="296" y="358" type="line" smooth="yes"/>
      <point x="416" y="358"/>
      <point x="448" y="431"/>
      <point x="448" y="537" type="curve" smooth="yes"/>
    </contour>
    <contour>
      <point x="201" y="420" type="line"/>
      <point x="137" y="420"/>
      <point x="106" y="433"/>
      <point x="106" y="526" type="curve" smooth="yes"/>
      <point x="106" y="568" type="line" smooth="yes"/>
      <point x="106" y="660"/>
      <point x="137" y="673"/>
      <point x="201" y="673" type="curve" smooth="yes"/>
      <point x="277" y="673" type="line" smooth="yes"/>
      <point x="341" y="673"/>
      <point x="371" y="660"/>
      <point x="371" y="568" type="curve" smooth="yes"/>
      <point x="371" y="526" type="line" smooth="yes"/>
      <point x="371" y="433"/>
      <point x="341" y="420"/>
      <point x="277" y="420" type="curve" smooth="yes"/>
    </contour>
    <contour>
      <point x="169" y="642" type="line"/>
      <point x="169" y="453" type="line"/>
      <point x="226" y="453" type="line"/>
      <point x="226" y="519" type="line"/>
      <point x="230" y="519" type="line"/>
      <point x="263" y="453" type="line"/>
      <point x="325" y="453" type="line"/>
      <point x="286" y="521" type="line"/>
      <point x="305" y="527"/>
      <point x="313" y="541"/>
      <point x="313" y="560" type="curve"/>
      <point x="313" y="602" type="line" smooth="yes"/>
      <point x="313" y="626"/>
      <point x="300" y="642"/>
      <point x="265" y="642" type="curve" smooth="yes"/>
    </contour>
    <contour>
      <point x="256" y="567" type="line"/>
      <point x="256" y="562"/>
      <point x="253" y="560"/>
      <point x="248" y="560" type="curve" smooth="yes"/>
      <point x="226" y="560" type="line"/>
      <point x="226" y="602" type="line"/>
      <point x="248" y="602" type="line" smooth="yes"/>
      <point x="253" y="602"/>
      <point x="256" y="600"/>
      <point x="256" y="595" type="curve" smooth="yes"/>
    </contour>
  </outline>
</glyph>
<glyph name="periodcentered" format="1">
  <advance width="272"/>
  <unicode hex="00B7"/>
  <outline>
    <contour>
      <point x="49" y="258" type="line"/>
      <point x="221" y="258" type="line"/>
      <point x="221" y="412" type="line"/>
      <point x="49" y="412" type="line"/>
    </contour>
  </outline>
</glyph>
<glyph name="cedilla" format="1">
  <advance width="500"/>
  <unicode hex="00B8"/>
  <outline>
    <contour>
      <point x="199" y="-123" type="line"/>
      <point x="199" y="-138"/>
      <point x="191" y="-145"/>
      <point x="174" y="-145" type="curve" smooth="yes"/>
      <point x="121" y="-145" type="line"/>
      <point x="121" y="-260" type="line"/>
      <point x="212" y="-260" type="line" smooth="yes"/>
      <point x="319" y="-260"/>
      <point x="359" y="-211"/>
      <point x="359" y="-136" type="curve" smooth="yes"/>
      <point x="359" y="-46" type="line"/>
      <point x="199" y="-46" type="line"/>
    </contour>
  </outline>
</glyph>
<glyph name="Eth" format="1">
  <advance width="527"/>
  <unicode hex="00D0"/>
  <outline>
    <contour>
      <point x="317" y="374" type="line"/>
      <point x="492" y="374" type="line"/>
      <point x="492" y="518" type="line" smooth="yes"/>
      <point x="492" y="593"/>
      <point x="452" y="642"/>
      <point x="345" y="642" type="curve" smooth="yes"/>
      <point x="108" y="642" type="line"/>
      <point x="108" y="527" type="line"/>
      <point x="292" y="527" type="line" smooth="yes"/>
      <point x="309" y="527"/>
      <point x="317" y="520"/>
      <point x="317" y="505" type="curve" smooth="yes"/>
    </contour>
    <contour>
      <point x="317" y="137" type="line"/>
      <point x="317" y="122"/>
      <point x="309" y="115"/>
      <point x="292" y="115" type="curve" smooth="yes"/>
      <point x="108" y="115" type="line"/>
      <point x="108" y="0" type="line"/>
      <point x="345" y="0" type="line" smooth="yes"/>
      <point x="452" y="0"/>
      <point x="492" y="49"/>
      <point x="492" y="124" type="curve" smooth="yes"/>
      <point x="492" y="387" type="line"/>
      <point x="317" y="387" type="line"/>
    </contour>
    <contour>
      <point x="50" y="642" type="line"/>
      <point x="50" y="0" type="line"/>
      <point x="225" y="0" type="line"/>
      <point x="225" y="642" type="line"/>
    </contour>
    <contour>
      <point x="280" y="384" type="line"/>
      <point x="-5" y="384" type="line"/>
      <point x="-5" y="269" type="line"/>
      <point x="280" y="269" type="line"/>
    </contour>
  </outline>
</glyph>
<glyph name="germandbls" format="1">
  <advance width="677"/>
  <unicode hex="00DF"/>
  <outline>
    <contour>
      <point x="262" y="163" type="line"/>
      <point x="262" y="124" type="line" smooth="yes"/>
      <point x="262" y="50"/>
      <point x="299" y="2"/>
      <point x="402" y="0" type="curve" smooth="yes"/>
      <point x="528" y="0" type="line" smooth="yes"/>
      <point x="635" y="0"/>
      <point x="665" y="49"/>
      <point x="665" y="124" type="curve" smooth="yes"/>
      <point x="665" y="184" type="line" smooth="yes"/>
      <point x="665" y="259"/>
      <point x="625" y="308"/>
      <point x="518" y="308" type="curve" smooth="yes"/>
      <point x="458" y="308" type="line" smooth="yes"/>
      <point x="441" y="308"/>
      <point x="433" y="315"/>
      <point x="433" y="330" type="curve" smooth="yes"/>
      <point x="433" y="337" type="line" smooth="yes"/>
      <point x="433" y="352"/>
      <point x="441" y="359"/>
      <point x="458" y="359" type="curve" smooth="yes"/>
      <point x="484" y="359" type="line"/>
      <point x="591" y="359"/>
      <point x="611" y="388"/>
      <point x="611" y="463" type="curve" smooth="yes"/>
      <point x="611" y="526" type="line" smooth="yes"/>
      <point x="611" y="595"/>
      <point x="571" y="642"/>
      <point x="473" y="642" type="curve" smooth="yes"/>
      <point x="182" y="642" type="line" smooth="yes"/>
      <point x="75" y="642"/>
      <point x="45" y="593"/>
      <point x="45" y="518" type="curve" smooth="yes"/>
      <point x="45" y="0" type="line"/>
      <point x="220" y="0" type="line"/>
      <point x="220" y="495" type="line" smooth="yes"/>
      <point x="220" y="510"/>
      <point x="228" y="517"/>
      <point x="245" y="517" type="curve" smooth="yes"/>
      <point x="404" y="517" type="line" smooth="yes"/>
      <point x="421" y="517"/>
      <point x="426" y="510"/>
      <point x="426" y="495" type="curve" smooth="yes"/>
      <point x="426" y="479" type="line" smooth="yes"/>
      <point x="426" y="464"/>
      <point x="421" y="457"/>
      <point x="404" y="457" type="curve" smooth="yes"/>
      <point x="305" y="457"/>
      <point x="267" y="420"/>
      <point x="267" y="345" type="curve"/>
      <point x="267" y="323" type="line" smooth="yes"/>
      <point x="267" y="248"/>
      <point x="297" y="199"/>
      <point x="404" y="199" type="curve" smooth="yes"/>
      <point x="470" y="199" type="line" smooth="yes"/>
      <point x="487" y="199"/>
      <point x="495" y="192"/>
      <point x="495" y="177" type="curve" smooth="yes"/>
      <point x="495" y="137" type="line" smooth="yes"/>
      <point x="495" y="122"/>
      <point x="487" y="115"/>
      <point x="470" y="115" type="curve" smooth="yes"/>
      <point x="452" y="115" type="line" smooth="yes"/>
      <point x="438" y="116"/>
      <point x="432" y="123"/>
      <point x="432" y="137" type="curve" smooth="yes"/>
      <point x="432" y="163" type="line"/>
    </contour>
  </outline>
</glyph>
<glyph name="iacute" format="1">
  <advance width="250"/>
  <unicode hex="00ED"/>
  <outline>
    <contour>
      <point x="210" y="0" type="line"/>
      <point x="210" y="499" type="line"/>
      <point x="40" y="499" type="line"/>
      <point x="40" y="0" type="line"/>
    </contour>
    <component base="acute" xOffset="-62"/>
  </outline>
</glyph>
<glyph name="divide" format="1">
  <advance width="533"/>
  <unicode hex="00F7"/>
  <outline>
    <contour>
      <point x="25" y="257" type="line"/>
      <point x="508" y="257" type="line"/>
      <point x="508" y="382" type="line"/>
      <point x="25" y="382" type="line"/>
    </contour>
    <contour>
      <point x="185" y="537" type="line"/>
      <point x="185" y="422" type="line"/>
      <point x="348" y="422" type="line"/>
      <point x="348" y="537" type="line"/>
    </contour>
    <contour>
      <point x="185" y="217" type="line"/>
      <point x="185" y="102" type="line"/>
      <point x="348" y="102" type="line"/>
      <point x="348" y="217" type="line"/>
    </contour>
  </outline>
</glyph>
<glyph name="Dcroat" format="1">
  <advance width="537"/>
  <unicode hex="0110"/>
  <outline>
    <contour>
      <point x="317" y="374" type="line"/>
      <point x="492" y="374" type="line"/>
      <point x="492" y="518" type="line" smooth="yes"/>
      <point x="492" y="593"/>
      <point x="452" y="642"/>
      <point x="345" y="642" type="curve" smooth="yes"/>
      <point x="108" y="642" type="line"/>
      <point x="108" y="517" type="line"/>
      <point x="292" y="517" type="line" smooth="yes"/>
      <point x="309" y="517"/>
      <point x="317" y="510"/>
      <point x="317" y="495" type="curve" smooth="yes"/>
    </contour>
    <contour>
      <point x="317" y="147" type="line"/>
      <point x="317" y="132"/>
      <point x="309" y="125"/>
      <point x="292" y="125" type="curve" smooth="yes"/>
      <point x="108" y="125" type="line"/>
      <point x="108" y="0" type="line"/>
      <point x="345" y="0" type="line" smooth="yes"/>
      <point x="452" y="0"/>
      <point x="492" y="49"/>
      <point x="492" y="124" type="curve" smooth="yes"/>
      <point x="492" y="387" type="line"/>
      <point x="317" y="387" type="line"/>
    </contour>
    <contour>
      <point x="50" y="642" type="line"/>
      <point x="50" y="0" type="line"/>
      <point x="225" y="0" type="line"/>
      <point x="225" y="642" type="line"/>
    </contour>
    <contour>
      <point x="280" y="384" type="line"/>
      <point x="-5" y="384" type="line"/>
      <point x="-5" y="269" type="line"/>
      <point x="280" y="269" type="line"/>
    </contour>
  </outline>
</glyph>
<glyph name="kcommaaccent" format="1">
  <advance width="475"/>
  <unicode hex="0137"/>
  <outline>
    <contour>
      <point x="210" y="0" type="line"/>
      <point x="210" y="669" type="line"/>
      <point x="40" y="669" type="line"/>
      <point x="40" y="0" type="line"/>
    </contour>
    <contour>
      <point x="202" y="253" type="line"/>
      <point x="303" y="0" type="line"/>
      <point x="480" y="0" type="line"/>
      <point x="373" y="253" type="line"/>
    </contour>
    <contour>
      <point x="373" y="253" type="line"/>
      <point x="480" y="499" type="line"/>
      <point x="304" y="499" type="line"/>
      <point x="202" y="253" type="line"/>
    </contour>
    <contour>
      <point x="164" y="-46" type="line"/>
      <point x="164" y="-299" type="line"/>
      <point x="216" y="-299" type="line"/>
      <point x="331" y="-133" type="line"/>
      <point x="331" y="-46" type="line"/>
    </contour>
  </outline>
</glyph>
<glyph name="lcommaaccent" format="1">
  <advance width="250"/>
  <unicode hex="013C"/>
  <outline>
    <contour>
      <point x="210" y="0" type="line"/>
      <point x="210" y="669" type="line"/>
      <point x="40" y="669" type="line"/>
      <point x="40" y="0" type="line"/>
    </contour>
    <contour>
      <point x="41" y="-46" type="line"/>
      <point x="41" y="-299" type="line"/>
      <point x="93" y="-299" type="line"/>
      <point x="208" y="-133" type="line"/>
      <point x="208" y="-46" type="line"/>
    </contour>
  </outline>
</glyph>
<glyph name="Ncommaaccent" format="1">
  <advance width="533"/>
  <unicode hex="0145"/>
  <outline>
    <contour>
      <point x="333" y="642" type="line"/>
      <point x="333" y="299" type="line"/>
      <point x="190" y="642" type="line"/>
      <point x="40" y="642" type="line"/>
      <point x="40" y="0" type="line"/>
      <point x="200" y="0" type="line"/>
      <point x="200" y="337" type="line"/>
      <point x="343" y="0" type="line"/>
      <point x="493" y="0" type="line"/>
      <point x="493" y="642" type="line"/>
    </contour>
    <contour>
      <point x="175" y="-46" type="line"/>
      <point x="175" y="-299" type="line"/>
      <point x="227" y="-299" type="line"/>
      <point x="342" y="-133" type="line"/>
      <point x="342" y="-46" type="line"/>
    </contour>
  </outline>
</glyph>
<glyph name="Scommaaccent" format="1">
  <advance width="491"/>
  <unicode hex="0218"/>
  <outline>
    <contour>
      <point x="286" y="147" type="line"/>
      <point x="286" y="132"/>
      <point x="278" y="125"/>
      <point x="261" y="125" type="curve"/>
      <point x="232" y="125" type="line" smooth="yes"/>
      <point x="215" y="125"/>
      <point x="207" y="132"/>
      <point x="207" y="147" type="curve" smooth="yes"/>
      <point x="207" y="201" type="line"/>
      <point x="32" y="201" type="line"/>
      <point x="32" y="124" type="line" smooth="yes"/>
      <point x="32" y="49"/>
      <point x="72" y="0"/>
      <point x="179" y="0" type="curve" smooth="yes"/>
      <point x="315" y="0" type="line" smooth="yes"/>
      <point x="422" y="0"/>
      <point x="461" y="49"/>
      <point x="461" y="124" type="curve" smooth="yes"/>
      <point x="461" y="256" type="line" smooth="yes"/>
      <point x="461" y="331"/>
      <point x="428" y="378"/>
      <point x="324" y="378" type="curve" smooth="yes"/>
      <point x="230" y="378" type="line" smooth="yes"/>
      <point x="213" y="378"/>
      <point x="205" y="385"/>
      <point x="205" y="400" type="curve" smooth="yes"/>
      <point x="205" y="495" type="line" smooth="yes"/>
      <point x="205" y="510"/>
      <point x="213" y="517"/>
      <point x="230" y="517" type="curve" smooth="yes"/>
      <point x="259" y="517" type="line" smooth="yes"/>
      <point x="276" y="517"/>
      <point x="284" y="510"/>
      <point x="284" y="495" type="curve" smooth="yes"/>
      <point x="284" y="441" type="line"/>
      <point x="459" y="441" type="line"/>
      <point x="459" y="518" type="line" smooth="yes"/>
      <point x="459" y="593"/>
      <point x="420" y="642"/>
      <point x="313" y="642" type="curve" smooth="yes"/>
      <point x="176" y="642" type="line" smooth="yes"/>
      <point x="69" y="642"/>
      <point x="30" y="593"/>
      <point x="30" y="518" type="curve" smooth="yes"/>
      <point x="30" y="386" type="line" smooth="yes"/>
      <point x="30" y="311"/>
      <point x="61" y="260"/>
      <point x="165" y="260" type="curve" smooth="yes"/>
      <point x="261" y="260" type="line" smooth="yes"/>
      <point x="278" y="260"/>
      <point x="286" y="253"/>
      <point x="286" y="238" type="curve" smooth="yes"/>
    </contour>
    <contour>
      <point x="158" y="-46" type="line"/>
      <point x="158" y="-299" type="line"/>
      <point x="210" y="-299" type="line"/>
      <point x="325" y="-133" type="line"/>
      <point x="325" y="-46" type="line"/>
    </contour>
  </outline>
</glyph>
<glyph name="Tcommaaccent" format="1">
  <advance width="432"/>
  <unicode hex="021A"/>
  <outline>
    <contour>
      <point x="128" y="582" type="line"/>
      <point x="128" y="0" type="line"/>
      <point x="303" y="0" type="line"/>
      <point x="303" y="582" type="line"/>
    </contour>
    <contour>
      <point x="427" y="642" type="line"/>
      <point x="5" y="642" type="line"/>
      <point x="5" y="517" type="line"/>
      <point x="427" y="517" type="line"/>
    </contour>
    <contour>
      <point x="131" y="-46" type="line"/>
      <point x="131" y="-299" type="line"/>
      <point x="183" y="-299" type="line"/>
      <point x="298" y="-133" type="line"/>
      <point x="298" y="-46" type="line"/>
    </contour>
  </outline>
</glyph>
<glyph name="dotaccent" format="1">
  <advance width="500"/>
  <unicode hex="02D9"/>
  <outline>
    <contour>
      <point x="169" y="542" type="line"/>
      <point x="331" y="542" type="line"/>
      <point x="331" y="672" type="line"/>
      <point x="169" y="672" type="line"/>
    </contour>
  </outline>
</glyph>
<glyph name="danda" format="1">
  <advance width="410"/>
  <unicode hex="0964"/>
  <outline>
    <contour>
      <point x="290" y="674" type="line"/>
      <point x="120" y="674" type="line"/>
      <point x="120" y="-32" type="line"/>
      <point x="290" y="-32" type="line"/>
    </contour>
  </outline>
</glyph>
<glyph name="quotedblright" format="1">
  <advance width="464"/>
  <unicode hex="201D"/>
  <outline>
    <contour>
      <point x="40" y="642" type="line"/>
      <point x="40" y="329" type="line"/>
      <point x="85" y="329" type="line"/>
      <point x="212" y="552" type="line"/>
      <point x="212" y="642" type="line"/>
    </contour>
    <contour>
      <point x="252" y="642" type="line"/>
      <point x="252" y="329" type="line"/>
      <point x="297" y="329" type="line"/>
      <point x="424" y="552" type="line"/>
      <point x="424" y="642" type="line"/>
    </contour>
  </outline>
</glyph>
<glyph name="daggerdbl" format="1">
  <advance width="484"/>
  <unicode hex="2021"/>
  <outline>
    <contour>
      <point x="154" y="642" type="line"/>
      <point x="154" y="-137" type="line"/>
      <point x="329" y="-137" type="line"/>
      <point x="329" y="642" type="line"/>
    </contour>
    <contour>
      <point x="459" y="490" type="line"/>
      <point x="25" y="490" type="line"/>
      <point x="25" y="375" type="line"/>
      <point x="459" y="375" type="line"/>
    </contour>
    <contour>
      <point x="459" y="130" type="line"/>
      <point x="25" y="130" type="line"/>
      <point x="25" y="15" type="line"/>
      <point x="459" y="15" type="line"/>
    </contour>
  </outline>
</glyph>
<glyph name="bullet" format="1">
  <advance width="396"/>
  <unicode hex="2022"/>
  <outline>
    <contour>
      <point x="50" y="321" type="curve" smooth="yes"/>
      <point x="50" y="240"/>
      <point x="117" y="173"/>
      <point x="198" y="173" type="curve" smooth="yes"/>
      <point x="279" y="173"/>
      <point x="346" y="240"/>
      <point x="346" y="321" type="curve" smooth="yes"/>
      <point x="346" y="402"/>
      <point x="279" y="469"/>
      <point x="198" y="469" type="curve" smooth="yes"/>
      <point x="117" y="469"/>
      <point x="50" y="402"/>
    </contour>
  </outline>
</glyph>
<glyph name="ellipsis" format="1">
  <advance width="752"/>
  <unicode hex="2026"/>
  <outline>
    <contour>
      <point x="40" y="0" type="line"/>
      <point x="212" y="0" type="line"/>
      <point x="212" y="164" type="line"/>
      <point x="40" y="164" type="line"/>
    </contour>
    <contour>
      <point x="290" y="0" type="line"/>
      <point x="462" y="0" type="line"/>
      <point x="462" y="164" type="line"/>
      <point x="290" y="164" type="line"/>
    </contour>
    <contour>
      <point x="540" y="0" type="line"/>
      <point x="712" y="0" type="line"/>
      <point x="712" y="164" type="line"/>
      <point x="540" y="164" type="line"/>
    </contour>
  </outline>
</glyph>
<glyph name="product" format="1">
  <advance width="539"/>
  <unicode hex="220F"/>
  <outline>
    <contour>
      <point x="58" y="147" type="line"/>
      <point x="58" y="132"/>
      <point x="50" y="125"/>
      <point x="33" y="125" type="curve" smooth="yes"/>
      <point x="0" y="125" type="line"/>
      <point x="0" y="0" type="line"/>
      <point x="81" y="0" type="line" smooth="yes"/>
      <point x="188" y="0"/>
      <point x="228" y="49"/>
      <point x="228" y="124" type="curve" smooth="yes"/>
      <point x="228" y="574" type="line"/>
      <point x="58" y="574" type="line"/>
    </contour>
    <contour>
      <point x="324" y="582" type="line"/>
      <point x="324" y="0" type="line"/>
      <point x="499" y="0" type="line"/>
      <point x="499" y="582" type="line"/>
    </contour>
    <contour>
      <point x="498" y="642" type="line"/>
      <point x="58" y="642" type="line"/>
      <point x="58" y="527" type="line"/>
      <point x="498" y="527" type="line"/>
    </contour>
  </outline>
</glyph>
<glyph name="radical" format="1">
  <advance width="833"/>
  <unicode hex="221A"/>
  <outline>
    <contour>
      <point x="127" y="293" type="line"/>
      <point x="270" y="-60" type="line"/>
      <point x="414" y="-60" type="line"/>
      <point x="721" y="702" type="line"/>
      <point x="577" y="702" type="line"/>
      <point x="342" y="88" type="line"/>
      <point x="271" y="293" type="line"/>
    </contour>
    <contour>
      <point x="248" y="293" type="line"/>
      <point x="83" y="293" type="line"/>
      <point x="83" y="178" type="line"/>
      <point x="248" y="178" type="line"/>
    </contour>
  </outline>
</glyph>
<glyph name="Delta.math" format="1">
  <advance width="669"/>
  <outline>
    <contour>
      <point x="52" y="120" type="line"/>
      <point x="264" y="642" type="line"/>
      <point x="415" y="642" type="line"/>
      <point x="618" y="123" type="line"/>
      <point x="618" y="0" type="line"/>
      <point x="52" y="0" type="line"/>
    </contour>
    <contour>
      <point x="334" y="457" type="line"/>
      <point x="321" y="390"/>
      <point x="303" y="331"/>
      <point x="276" y="254" type="curve" smooth="yes"/>
      <point x="227" y="115" type="line"/>
      <point x="442" y="115" type="line"/>
      <point x="395" y="252" type="line" smooth="yes"/>
      <point x="369" y="327"/>
      <point x="351" y="393"/>
      <point x="338" y="457" type="curve"/>
    </contour>
  </outline>
</glyph>
<glyph name="dvA" format="1">
  <advance width="730"/>
  <outline>
    <contour>
      <point x="605" y="642" type="move" name="topmiddle"/>
    </contour>
    <contour>
      <point x="520" y="642" type="line"/>
      <point x="520" y="0" type="line"/>
      <point x="690" y="0" type="line"/>
      <point x="690" y="642" type="line"/>
    </contour>
    <contour>
      <point x="320" y="368" type="line"/>
      <point x="361" y="255" type="line"/>
      <point x="567" y="255" type="line"/>
      <point x="567" y="368" type="line"/>
    </contour>
    <contour>
      <point x="659" y="642" type="line"/>
      <point x="659" y="529" type="line"/>
      <point x="750" y="529" type="line"/>
      <point x="750" y="642" type="line"/>
    </contour>
    <contour>
      <point x="313" y="647" type="curve"/>
      <point x="191" y="647" type="line" smooth="yes"/>
      <point x="82" y="647"/>
      <point x="51" y="603"/>
      <point x="51" y="530" type="curve" smooth="yes"/>
      <point x="51" y="458" type="line"/>
      <point x="221" y="458" type="line"/>
      <point x="221" y="514" type="line" smooth="yes"/>
      <point x="221" y="529"/>
      <point x="229" y="534"/>
      <point x="244" y="534" type="curve" smooth="yes"/>
      <point x="260" y="534" type="line" smooth="yes"/>
      <point x="275" y="534"/>
      <point x="283" y="529"/>
      <point x="283" y="514" type="curve" smooth="yes"/>
      <point x="283" y="443" type="line" smooth="yes"/>
      <point x="283" y="424"/>
      <point x="275" y="419"/>
      <point x="260" y="419" type="curve" smooth="yes"/>
      <point x="227" y="419" type="line"/>
      <point x="227" y="306" type="line"/>
      <point x="260" y="306" type="line" smooth="yes"/>
      <point x="275" y="306"/>
      <point x="283" y="301"/>
      <point x="283" y="282" type="curve" smooth="yes"/>
      <point x="283" y="211" type="line" smooth="yes"/>
      <point x="283" y="196"/>
      <point x="275" y="191"/>
      <point x="260" y="191" type="curve" smooth="yes"/>
      <point x="244" y="191" type="line" smooth="yes"/>
      <point x="229" y="191"/>
      <point x="221" y="196"/>
      <point x="221" y="211" type="curve" smooth="yes"/>
      <point x="221" y="277" type="line"/>
      <point x="51" y="277" type="line"/>
      <point x="51" y="195" type="line" smooth="yes"/>
      <point x="51" y="122"/>
      <point x="82" y="78"/>
      <point x="191" y="78" type="curve" smooth="yes"/>
      <point x="313" y="78" type="line" smooth="yes"/>
      <point x="422" y="78"/>
      <point x="453" y="122"/>
      <point x="453" y="195" type="curve" smooth="yes"/>
      <point x="453" y="304" type="line"/>
      <point x="453" y="341"/>
      <point x="436" y="356"/>
      <point x="406" y="360" type="curve"/>
      <point x="406" y="365" type="line"/>
      <point x="436" y="369"/>
      <point x="453" y="384"/>
      <point x="453" y="421" type="curve" smooth="yes"/>
      <point x="453" y="530" type="line" smooth="yes"/>
      <point x="453" y="603"/>
      <point x="422" y="647"/>
    </contour>
  </outline>
</glyph>
<glyph name="dvAbbreviationsign" format="1">
  <advance width="397"/>
  <outline>
    <contour>
      <point x="50" y="319" type="curve" smooth="yes"/>
      <point x="50" y="219"/>
      <point x="108" y="170"/>
      <point x="198" y="170" type="curve" smooth="yes"/>
      <point x="288" y="170"/>
      <point x="347" y="219"/>
      <point x="347" y="319" type="curve" smooth="yes"/>
      <point x="347" y="419"/>
      <point x="288" y="468"/>
      <point x="198" y="468" type="curve" smooth="yes"/>
      <point x="108" y="468"/>
      <point x="50" y="419"/>
    </contour>
    <contour>
      <point x="167" y="319" type="curve" smooth="yes"/>
      <point x="167" y="364"/>
      <point x="176" y="375"/>
      <point x="198" y="375" type="curve" smooth="yes"/>
      <point x="220" y="375"/>
      <point x="230" y="364"/>
      <point x="230" y="319" type="curve" smooth="yes"/>
      <point x="230" y="274"/>
      <point x="218" y="263"/>
      <point x="198" y="263" type="curve" smooth="yes"/>
      <point x="178" y="263"/>
      <point x="167" y="274"/>
    </contour>
  </outline>
</glyph>
<glyph name="dvAvagraha" format="1">
  <advance width="462"/>
  <outline>
    <contour>
      <point x="394" y="539" type="line"/>
      <point x="394" y="642" type="line"/>
      <point x="176" y="642" type="line" smooth="yes"/>
      <point x="67" y="642"/>
      <point x="36" y="608"/>
      <point x="36" y="535" type="curve" smooth="yes"/>
      <point x="36" y="403" type="line" smooth="yes"/>
      <point x="36" y="330"/>
      <point x="67" y="296"/>
      <point x="176" y="296" type="curve" smooth="yes"/>
      <point x="239" y="296" type="line" smooth="yes"/>
      <point x="254" y="296"/>
      <point x="262" y="291"/>
      <point x="262" y="276" type="curve" smooth="yes"/>
      <point x="262" y="123" type="line" smooth="yes"/>
      <point x="262" y="108"/>
      <point x="254" y="103"/>
      <point x="239" y="103" type="curve" smooth="yes"/>
      <point x="217" y="103" type="line" smooth="yes"/>
      <point x="208" y="103"/>
      <point x="200" y="108"/>
      <point x="200" y="123" type="curve" smooth="yes"/>
      <point x="200" y="159" type="line"/>
      <point x="30" y="159" type="line"/>
      <point x="30" y="107" type="line" smooth="yes"/>
      <point x="30" y="34"/>
      <point x="61" y="0"/>
      <point x="170" y="0" type="curve" smooth="yes"/>
      <point x="292" y="0" type="line" smooth="yes"/>
      <point x="401" y="0"/>
      <point x="432" y="34"/>
      <point x="432" y="107" type="curve" smooth="yes"/>
      <point x="432" y="292" type="line" smooth="yes"/>
      <point x="432" y="365"/>
      <point x="401" y="399"/>
      <point x="292" y="399" type="curve" smooth="yes"/>
      <point x="229" y="399" type="line" smooth="yes"/>
      <point x="214" y="399"/>
      <point x="206" y="404"/>
      <point x="206" y="419" type="curve" smooth="yes"/>
      <point x="206" y="519" type="line" smooth="yes"/>
      <point x="206" y="534"/>
      <point x="214" y="539"/>
      <point x="229" y="539" type="curve" smooth="yes"/>
    </contour>
  </outline>
</glyph>
<glyph name="dvBA" format="1">
  <advance width="577"/>
  <outline>
    <contour>
      <point x="-20" y="642" type="line"/>
      <point x="-20" y="529" type="line"/>
      <point x="597" y="529" type="line"/>
      <point x="597" y="642" type="line"/>
    </contour>
    <contour>
      <point x="325" y="472" type="line"/>
      <point x="170" y="472" type="line" smooth="yes"/>
      <point x="61" y="472"/>
      <point x="30" y="438"/>
      <point x="30" y="365" type="curve" smooth="yes"/>
      <point x="30" y="205" type="line" smooth="yes"/>
      <point x="30" y="112"/>
      <point x="75" y="78"/>
      <point x="161" y="78" type="curve" smooth="yes"/>
      <point x="331" y="78" type="line" smooth="yes"/>
      <point x="388" y="78"/>
      <point x="398" y="102"/>
      <point x="398" y="148" type="curve"/>
      <point x="384" y="215" type="line"/>
      <point x="384" y="196"/>
      <point x="376" y="191"/>
      <point x="361" y="191" type="curve" smooth="yes"/>
      <point x="223" y="191" type="line" smooth="yes"/>
      <point x="208" y="191"/>
      <point x="200" y="196"/>
      <point x="200" y="215" type="curve" smooth="yes"/>
      <point x="200" y="332" type="line"/>
      <point x="225" y="300"/>
      <point x="252" y="266"/>
      <point x="262" y="254" type="curve" smooth="yes"/>
      <point x="373" y="119" type="line"/>
      <point x="367" y="103" type="line"/>
      <point x="367" y="0" type="line"/>
      <point x="537" y="0" type="line"/>
      <point x="537" y="592" type="line"/>
      <point x="367" y="592" type="line"/>
      <point x="367" y="325" type="line" smooth="yes"/>
      <point x="367" y="236"/>
      <point x="373" y="222"/>
      <point x="373" y="222" type="curve"/>
      <point x="373" y="222"/>
      <point x="328" y="275"/>
      <point x="294" y="318" type="curve" smooth="yes"/>
      <point x="253" y="369" type="line"/>
      <point x="325" y="369" type="line"/>
    </contour>
  </outline>
</glyph>
<glyph name="dvBH_YA" format="1">
  <advance width="1104"/>
  <outline>
    <contour>
      <point x="308" y="647" type="curve"/>
      <point x="189" y="647" type="line" smooth="yes"/>
      <point x="80" y="647"/>
      <point x="49" y="603"/>
      <point x="49" y="530" type="curve" smooth="yes"/>
      <point x="49" y="488" type="line"/>
      <point x="219" y="488" type="line"/>
      <point x="219" y="514" type="line" smooth="yes"/>
      <point x="219" y="529"/>
      <point x="227" y="534"/>
      <point x="242" y="534" type="curve" smooth="yes"/>
      <point x="255" y="534" type="line" smooth="yes"/>
      <point x="270" y="534"/>
      <point x="278" y="529"/>
      <point x="278" y="514" type="curve" smooth="yes"/>
      <point x="278" y="215" type="line" smooth="yes"/>
      <point x="278" y="196"/>
      <point x="268" y="191"/>
      <point x="253" y="191" type="curve" smooth="yes"/>
      <point x="235" y="191" type="line" smooth="yes"/>
      <point x="220" y="191"/>
      <point x="210" y="196"/>
      <point x="210" y="215" type="curve" smooth="yes"/>
      <point x="210" y="295" type="line" smooth="yes"/>
      <point x="210" y="310"/>
      <point x="218" y="315"/>
      <point x="233" y="315" type="curve" smooth="yes"/>
      <point x="612" y="315" type="line"/>
      <point x="612" y="428" type="line"/>
      <point x="180" y="428" type="line" smooth="yes"/>
      <point x="71" y="428"/>
      <point x="40" y="394"/>
      <point x="40" y="321" type="curve" smooth="yes"/>
      <point x="40" y="205" type="line" smooth="yes"/>
      <point x="40" y="112"/>
      <point x="81" y="78"/>
      <point x="201" y="78" type="curve" smooth="yes"/>
      <point x="287" y="78" type="line" smooth="yes"/>
      <point x="407" y="78"/>
      <point x="448" y="112"/>
      <point x="448" y="205" type="curve" smooth="yes"/>
      <point x="448" y="530" type="line" smooth="yes"/>
      <point x="448" y="603"/>
      <point x="417" y="647"/>
    </contour>
    <contour>
      <point x="516" y="642" type="line"/>
      <point x="516" y="529" type="line"/>
      <point x="1124" y="529" type="line"/>
      <point x="1124" y="642" type="line"/>
    </contour>
    <contour>
      <point x="894" y="592" type="line"/>
      <point x="894" y="0" type="line"/>
      <point x="1064" y="0" type="line"/>
      <point x="1064" y="592" type="line"/>
    </contour>
    <contour>
      <point x="826" y="432" type="curve"/>
      <point x="826" y="485" type="line" smooth="yes"/>
      <point x="826" y="543"/>
      <point x="782" y="557"/>
      <point x="709" y="557" type="curve"/>
      <point x="630" y="529" type="line"/>
      <point x="656" y="529"/>
      <point x="664" y="521"/>
      <point x="664" y="495" type="curve" smooth="yes"/>
      <point x="664" y="448" type="line" smooth="yes"/>
      <point x="664" y="433"/>
      <point x="656" y="428"/>
      <point x="641" y="428" type="curve" smooth="yes"/>
      <point x="516" y="428" type="line"/>
      <point x="516" y="205" type="line" smooth="yes"/>
      <point x="516" y="112"/>
      <point x="567" y="78"/>
      <point x="677" y="78" type="curve" smooth="yes"/>
      <point x="845" y="78" type="line" smooth="yes"/>
      <point x="892" y="78"/>
      <point x="908" y="102"/>
      <point x="908" y="138" type="curve"/>
      <point x="894" y="225" type="line"/>
      <point x="894" y="199"/>
      <point x="886" y="191"/>
      <point x="860" y="191" type="curve" smooth="yes"/>
      <point x="709" y="191" type="line" smooth="yes"/>
      <point x="694" y="191"/>
      <point x="686" y="196"/>
      <point x="686" y="215" type="curve" smooth="yes"/>
      <point x="686" y="315" type="line"/>
      <point x="691" y="315" type="line" smooth="yes"/>
      <point x="800" y="315"/>
      <point x="826" y="359"/>
    </contour>
  </outline>
</glyph>
<glyph name="dvB_DA" format="1">
  <advance width="815"/>
  <outline>
    <contour>
      <point x="790" y="-10" type="move" name="blwm.uu"/>
    </contour>
    <contour>
      <point x="775" y="-30" type="move" name="blwm.vr"/>
    </contour>
    <contour>
      <point x="775" y="652" type="move" name="abvm.e"/>
    </contour>
    <contour>
      <point x="775" y="642" type="move" name="abvm.bindu"/>
    </contour>
    <contour>
      <point x="776" y="-20" type="move" name="blwm.virama"/>
    </contour>
    <contour>
      <point x="605" y="0" type="move" name="blwm.u"/>
    </contour>
    <contour>
      <point x="-20" y="642" type="line"/>
      <point x="-20" y="529" type="line"/>
      <point x="835" y="529" type="line"/>
      <point x="835" y="642" type="line"/>
    </contour>
    <contour>
      <point x="605" y="291" type="line"/>
      <point x="605" y="0" type="line"/>
      <point x="775" y="0" type="line"/>
      <point x="775" y="291" type="line"/>
    </contour>
    <contour>
      <point x="325" y="472" type="line"/>
      <point x="170" y="472" type="line" smooth="yes"/>
      <point x="61" y="472"/>
      <point x="30" y="438"/>
      <point x="30" y="365" type="curve" smooth="yes"/>
      <point x="30" y="205" type="line" smooth="yes"/>
      <point x="30" y="112"/>
      <point x="75" y="78"/>
      <point x="161" y="78" type="curve" smooth="yes"/>
      <point x="331" y="78" type="line" smooth="yes"/>
      <point x="389" y="78"/>
      <point x="413" y="104"/>
      <point x="418" y="148" type="curve"/>
      <point x="384" y="215" type="line"/>
      <point x="384" y="196"/>
      <point x="376" y="191"/>
      <point x="361" y="191" type="curve" smooth="yes"/>
      <point x="223" y="191" type="line" smooth="yes"/>
      <point x="208" y="191"/>
      <point x="200" y="196"/>
      <point x="200" y="215" type="curve" smooth="yes"/>
      <point x="200" y="332" type="line"/>
      <point x="225" y="300"/>
      <point x="252" y="266"/>
      <point x="262" y="254" type="curve" smooth="yes"/>
      <point x="365" y="129" type="line"/>
      <point x="380" y="134" type="line"/>
      <point x="400" y="94"/>
      <point x="446" y="78"/>
      <point x="528" y="78" type="curve" smooth="yes"/>
      <point x="552" y="78" type="line" smooth="yes"/>
      <point x="609" y="78"/>
      <point x="619" y="102"/>
      <point x="619" y="148" type="curve"/>
      <point x="605" y="215" type="line"/>
      <point x="605" y="196"/>
      <point x="597" y="191"/>
      <point x="582" y="191" type="curve" smooth="yes"/>
      <point x="560" y="191" type="line" smooth="yes"/>
      <point x="545" y="191"/>
      <point x="537" y="196"/>
      <point x="537" y="215" type="curve" smooth="yes"/>
      <point x="537" y="335" type="line" smooth="yes"/>
      <point x="537" y="354"/>
      <point x="547" y="359"/>
      <point x="562" y="359" type="curve" smooth="yes"/>
      <point x="775" y="359" type="line"/>
      <point x="775" y="593" type="line"/>
      <point x="605" y="593" type="line"/>
      <point x="605" y="472" type="line"/>
      <point x="507" y="472" type="line" smooth="yes"/>
      <point x="398" y="472"/>
      <point x="367" y="438"/>
      <point x="367" y="365" type="curve" smooth="yes"/>
      <point x="367" y="325" type="line" smooth="yes"/>
      <point x="367" y="236"/>
      <point x="373" y="222"/>
      <point x="373" y="222" type="curve"/>
      <point x="373" y="222"/>
      <point x="328" y="275"/>
      <point x="294" y="318" type="curve" smooth="yes"/>
      <point x="253" y="369" type="line"/>
      <point x="325" y="369" type="line"/>
    </contour>
  </outline>
</glyph>
<glyph name="dvB_J_YA" format="1">
  <advance width="1433"/>
  <outline>
    <contour>
      <point x="200" y="215" type="curve"/>
      <point x="200" y="332" type="line"/>
      <point x="225" y="300"/>
      <point x="252" y="266"/>
      <point x="262" y="254" type="curve" smooth="yes"/>
      <point x="310" y="195" type="line"/>
      <point x="310" y="192"/>
      <point x="309" y="191"/>
      <point x="303" y="191" type="curve" smooth="yes"/>
      <point x="223" y="191" type="line" smooth="yes"/>
      <point x="208" y="191"/>
      <point x="200" y="196"/>
    </contour>
    <contour>
      <point x="325" y="472" type="line"/>
      <point x="170" y="472" type="line" smooth="yes"/>
      <point x="61" y="472"/>
      <point x="30" y="438"/>
      <point x="30" y="365" type="curve" smooth="yes"/>
      <point x="30" y="205" type="line" smooth="yes"/>
      <point x="30" y="112"/>
      <point x="75" y="78"/>
      <point x="161" y="78" type="curve" smooth="yes"/>
      <point x="348" y="78" type="line" smooth="yes"/>
      <point x="395" y="78"/>
      <point x="411" y="102"/>
      <point x="411" y="138" type="curve"/>
      <point x="367" y="205" type="line"/>
      <point x="367" y="112"/>
      <point x="408" y="78"/>
      <point x="528" y="78" type="curve"/>
      <point x="614" y="78" type="line" smooth="yes"/>
      <point x="734" y="78"/>
      <point x="775" y="112"/>
      <point x="775" y="205" type="curve" smooth="yes"/>
      <point x="775" y="329" type="line"/>
      <point x="872" y="329" type="line"/>
      <point x="872" y="442" type="line"/>
      <point x="605" y="442" type="line"/>
      <point x="605" y="215" type="line" smooth="yes"/>
      <point x="605" y="196"/>
      <point x="595" y="191"/>
      <point x="580" y="191" type="curve" smooth="yes"/>
      <point x="562" y="191" type="line" smooth="yes"/>
      <point x="547" y="191"/>
      <point x="537" y="196"/>
      <point x="537" y="215" type="curve" smooth="yes"/>
      <point x="537" y="472" type="line"/>
      <point x="367" y="472" type="line"/>
      <point x="367" y="325" type="line" smooth="yes"/>
      <point x="367" y="236"/>
      <point x="373" y="222"/>
      <point x="373" y="222" type="curve" smooth="yes"/>
      <point x="373" y="222"/>
      <point x="328" y="275"/>
      <point x="294" y="318" type="curve" smooth="yes"/>
      <point x="253" y="369" type="line"/>
      <point x="325" y="369" type="line"/>
    </contour>
    <contour>
      <point x="-20" y="642" type="line"/>
      <point x="-20" y="529" type="line"/>
      <point x="1453" y="529" type="line"/>
      <point x="1453" y="642" type="line"/>
    </contour>
    <contour>
      <point x="1223" y="592" type="line"/>
      <point x="1223" y="0" type="line"/>
      <point x="1393" y="0" type="line"/>
      <point x="1393" y="592" type="line"/>
    </contour>
    <contour>
      <point x="1155" y="446" type="curve"/>
      <point x="1155" y="485" type="line" smooth="yes"/>
      <point x="1155" y="543"/>
      <point x="1111" y="557"/>
      <point x="1038" y="557" type="curve"/>
      <point x="959" y="529" type="line"/>
      <point x="985" y="529"/>
      <point x="993" y="521"/>
      <point x="993" y="495" type="curve" smooth="yes"/>
      <point x="993" y="462" type="line" smooth="yes"/>
      <point x="993" y="447"/>
      <point x="985" y="442"/>
      <point x="970" y="442" type="curve" smooth="yes"/>
      <point x="845" y="442" type="line"/>
      <point x="845" y="205" type="line" smooth="yes"/>
      <point x="845" y="112"/>
      <point x="896" y="78"/>
      <point x="1006" y="78" type="curve" smooth="yes"/>
      <point x="1174" y="78" type="line" smooth="yes"/>
      <point x="1221" y="78"/>
      <point x="1237" y="102"/>
      <point x="1237" y="138" type="curve"/>
      <point x="1223" y="225" type="line"/>
      <point x="1223" y="199"/>
      <point x="1215" y="191"/>
      <point x="1189" y="191" type="curve" smooth="yes"/>
      <point x="1038" y="191" type="line" smooth="yes"/>
      <point x="1023" y="191"/>
      <point x="1015" y="196"/>
      <point x="1015" y="215" type="curve" smooth="yes"/>
      <point x="1015" y="329" type="line"/>
      <point x="1020" y="329" type="line" smooth="yes"/>
      <point x="1129" y="329"/>
      <point x="1155" y="373"/>
    </contour>
  </outline>
</glyph>
<glyph name="dvB_JxA" format="1">
  <advance width="1058"/>
  <outline>
    <contour>
      <point x="325" y="472" type="line"/>
      <point x="170" y="472" type="line" smooth="yes"/>
      <point x="61" y="472"/>
      <point x="30" y="438"/>
      <point x="30" y="365" type="curve" smooth="yes"/>
      <point x="30" y="205" type="line" smooth="yes"/>
      <point x="30" y="112"/>
      <point x="75" y="78"/>
      <point x="161" y="78" type="curve" smooth="yes"/>
      <point x="338" y="78" type="line" smooth="yes"/>
      <point x="395" y="78"/>
      <point x="423" y="102"/>
      <point x="423" y="148" type="curve"/>
      <point x="384" y="215" type="line"/>
      <point x="384" y="196"/>
      <point x="376" y="191"/>
      <point x="361" y="191" type="curve" smooth="yes"/>
      <point x="223" y="191" type="line" smooth="yes"/>
      <point x="208" y="191"/>
      <point x="200" y="196"/>
      <point x="200" y="215" type="curve" smooth="yes"/>
      <point x="200" y="332" type="line"/>
      <point x="225" y="300"/>
      <point x="252" y="266"/>
      <point x="262" y="254" type="curve" smooth="yes"/>
      <point x="373" y="119" type="line"/>
      <point x="379" y="137" type="line"/>
      <point x="397" y="95"/>
      <point x="438" y="78"/>
      <point x="498" y="78" type="curve" smooth="yes"/>
      <point x="617" y="78" type="line" smooth="yes"/>
      <point x="737" y="78"/>
      <point x="778" y="112"/>
      <point x="778" y="205" type="curve" smooth="yes"/>
      <point x="778" y="359" type="line"/>
      <point x="875" y="359" type="line"/>
      <point x="875" y="472" type="line"/>
      <point x="608" y="472" type="line"/>
      <point x="608" y="215" type="line" smooth="yes"/>
      <point x="608" y="196"/>
      <point x="598" y="191"/>
      <point x="583" y="191" type="curve" smooth="yes"/>
      <point x="565" y="191" type="line" smooth="yes"/>
      <point x="550" y="191"/>
      <point x="540" y="196"/>
      <point x="540" y="215" type="curve" smooth="yes"/>
      <point x="540" y="472" type="line"/>
      <point x="367" y="472" type="line"/>
      <point x="367" y="325" type="line" smooth="yes"/>
      <point x="367" y="236"/>
      <point x="373" y="222"/>
      <point x="373" y="222" type="curve"/>
      <point x="373" y="222"/>
      <point x="328" y="275"/>
      <point x="294" y="318" type="curve" smooth="yes"/>
      <point x="253" y="369" type="line"/>
      <point x="325" y="369" type="line"/>
    </contour>
    <contour>
      <point x="848" y="572" type="line"/>
      <point x="848" y="0" type="line"/>
      <point x="1018" y="0" type="line"/>
      <point x="1018" y="572" type="line"/>
    </contour>
    <contour>
      <point x="-20" y="642" type="line"/>
      <point x="-20" y="529" type="line"/>
      <point x="1078" y="529" type="line"/>
      <point x="1078" y="642" type="line"/>
    </contour>
    <component base="dvNukta" xOffset="712" yOffset="27"/>
  </outline>
</glyph>
<glyph name="dvB_RA" format="1">
  <advance width="577"/>
  <outline>
    <contour>
      <point x="-20" y="642" type="line"/>
      <point x="-20" y="529" type="line"/>
      <point x="597" y="529" type="line"/>
      <point x="597" y="642" type="line"/>
    </contour>
    <contour>
      <point x="325" y="472" type="line"/>
      <point x="170" y="472" type="line" smooth="yes"/>
      <point x="61" y="472"/>
      <point x="30" y="438"/>
      <point x="30" y="365" type="curve" smooth="yes"/>
      <point x="30" y="205" type="line" smooth="yes"/>
      <point x="30" y="112"/>
      <point x="75" y="78"/>
      <point x="161" y="78" type="curve" smooth="yes"/>
      <point x="181" y="78" type="line"/>
      <point x="97" y="-60" type="line"/>
      <point x="276" y="-60" type="line"/>
      <point x="367" y="94" type="line"/>
      <point x="367" y="0" type="line"/>
      <point x="537" y="0" type="line"/>
      <point x="537" y="592" type="line"/>
      <point x="367" y="592" type="line"/>
      <point x="367" y="325" type="line" smooth="yes"/>
      <point x="367" y="236"/>
      <point x="373" y="222"/>
      <point x="373" y="222" type="curve" smooth="yes"/>
      <point x="373" y="222"/>
      <point x="328" y="275"/>
      <point x="294" y="318" type="curve" smooth="yes"/>
      <point x="253" y="369" type="line"/>
      <point x="325" y="369" type="line"/>
    </contour>
    <contour>
      <point x="200" y="215" type="curve"/>
      <point x="200" y="332" type="line"/>
      <point x="225" y="300"/>
      <point x="252" y="266"/>
      <point x="262" y="254" type="curve" smooth="yes"/>
      <point x="312" y="194" type="line"/>
      <point x="311" y="192"/>
      <point x="308" y="191"/>
      <point x="304" y="191" type="curve" smooth="yes"/>
      <point x="223" y="191" type="line" smooth="yes"/>
      <point x="208" y="191"/>
      <point x="200" y="196"/>
    </contour>
  </outline>
</glyph>
<glyph name="dvB_SA" format="1">
  <advance width="1034"/>
  <outline>
    <contour>
      <point x="-20" y="642" type="line"/>
      <point x="-20" y="529" type="line"/>
      <point x="556" y="529" type="line" smooth="yes"/>
      <point x="582" y="529"/>
      <point x="590" y="521"/>
      <point x="590" y="495" type="curve" smooth="yes"/>
      <point x="590" y="397" type="line" smooth="yes"/>
      <point x="590" y="371"/>
      <point x="581" y="363"/>
      <point x="556" y="363" type="curve" smooth="yes"/>
      <point x="524" y="363" type="line"/>
      <point x="524" y="250" type="line"/>
      <point x="901" y="250" type="line"/>
      <point x="901" y="363" type="line"/>
      <point x="650" y="363" type="line"/>
      <point x="650" y="335" type="line"/>
      <point x="716" y="335"/>
      <point x="760" y="342"/>
      <point x="760" y="388" type="curve" smooth="yes"/>
      <point x="760" y="504" type="line" smooth="yes"/>
      <point x="760" y="526"/>
      <point x="750" y="539"/>
      <point x="733" y="546" type="curve"/>
      <point x="709" y="529" type="line"/>
      <point x="1054" y="529" type="line"/>
      <point x="1054" y="642" type="line"/>
    </contour>
    <contour>
      <point x="824" y="552" type="line"/>
      <point x="824" y="0" type="line"/>
      <point x="994" y="0" type="line"/>
      <point x="994" y="552" type="line"/>
    </contour>
    <contour>
      <point x="367" y="472" type="line"/>
      <point x="367" y="325" type="line" smooth="yes"/>
      <point x="367" y="236"/>
      <point x="373" y="222"/>
      <point x="373" y="222" type="curve"/>
      <point x="373" y="222"/>
      <point x="328" y="275"/>
      <point x="294" y="318" type="curve" smooth="yes"/>
      <point x="253" y="369" type="line"/>
      <point x="325" y="369" type="line"/>
      <point x="325" y="472" type="line"/>
      <point x="170" y="472" type="line" smooth="yes"/>
      <point x="61" y="472"/>
      <point x="30" y="438"/>
      <point x="30" y="365" type="curve" smooth="yes"/>
      <point x="30" y="205" type="line" smooth="yes"/>
      <point x="30" y="112"/>
      <point x="75" y="78"/>
      <point x="161" y="78" type="curve" smooth="yes"/>
      <point x="331" y="78" type="line" smooth="yes"/>
      <point x="388" y="78"/>
      <point x="398" y="102"/>
      <point x="398" y="148" type="curve"/>
      <point x="384" y="215" type="line"/>
      <point x="384" y="196"/>
      <point x="376" y="191"/>
      <point x="361" y="191" type="curve" smooth="yes"/>
      <point x="223" y="191" type="line" smooth="yes"/>
      <point x="208" y="191"/>
      <point x="200" y="196"/>
      <point x="200" y="215" type="curve" smooth="yes"/>
      <point x="200" y="332" type="line"/>
      <point x="225" y="300"/>
      <point x="252" y="266"/>
      <point x="262" y="254" type="curve" smooth="yes"/>
      <point x="373" y="119" type="line"/>
      <point x="370" y="112" type="line"/>
      <point x="367" y="107" type="line" smooth="yes"/>
      <point x="367" y="34"/>
      <point x="398" y="0"/>
      <point x="507" y="0" type="curve" smooth="yes"/>
      <point x="620" y="0" type="line" smooth="yes"/>
      <point x="729" y="0"/>
      <point x="760" y="34"/>
      <point x="760" y="107" type="curve" smooth="yes"/>
      <point x="760" y="187" type="line"/>
      <point x="590" y="187" type="line"/>
      <point x="590" y="123" type="line" smooth="yes"/>
      <point x="590" y="108"/>
      <point x="582" y="103"/>
      <point x="573" y="103" type="curve" smooth="yes"/>
      <point x="560" y="103" type="line" smooth="yes"/>
      <point x="545" y="103"/>
      <point x="537" y="108"/>
      <point x="537" y="123" type="curve" smooth="yes"/>
      <point x="537" y="472" type="line"/>
    </contour>
  </outline>
</glyph>
<glyph name="dvB_VA" format="1">
  <advance width="822"/>
  <outline>
    <contour>
      <point x="373" y="119" type="line"/>
      <point x="379" y="137" type="line"/>
      <point x="397" y="95"/>
      <point x="438" y="78"/>
      <point x="498" y="78" type="curve" smooth="yes"/>
      <point x="559" y="78" type="line" smooth="yes"/>
      <point x="616" y="78"/>
      <point x="626" y="102"/>
      <point x="626" y="148" type="curve"/>
      <point x="612" y="215" type="line"/>
      <point x="612" y="196"/>
      <point x="604" y="191"/>
      <point x="589" y="191" type="curve" smooth="yes"/>
      <point x="560" y="191" type="line" smooth="yes"/>
      <point x="545" y="191"/>
      <point x="537" y="196"/>
      <point x="537" y="215" type="curve" smooth="yes"/>
      <point x="537" y="339" type="line" smooth="yes"/>
      <point x="537" y="354"/>
      <point x="545" y="359"/>
      <point x="560" y="359" type="curve" smooth="yes"/>
      <point x="571" y="359" type="line"/>
      <point x="571" y="472" type="line"/>
      <point x="507" y="472" type="line" smooth="yes"/>
      <point x="398" y="472"/>
      <point x="367" y="438"/>
      <point x="367" y="365" type="curve" smooth="yes"/>
      <point x="367" y="325" type="line" smooth="yes"/>
      <point x="367" y="236"/>
      <point x="373" y="222"/>
      <point x="373" y="222" type="curve"/>
      <point x="373" y="222"/>
      <point x="328" y="275"/>
      <point x="294" y="318" type="curve" smooth="yes"/>
      <point x="253" y="369" type="line"/>
      <point x="325" y="369" type="line"/>
      <point x="325" y="472" type="line"/>
      <point x="170" y="472" type="line" smooth="yes"/>
      <point x="61" y="472"/>
      <point x="30" y="438"/>
      <point x="30" y="365" type="curve" smooth="yes"/>
      <point x="30" y="205" type="line" smooth="yes"/>
      <point x="30" y="112"/>
      <point x="75" y="78"/>
      <point x="161" y="78" type="curve" smooth="yes"/>
      <point x="338" y="78" type="line" smooth="yes"/>
      <point x="395" y="78"/>
      <point x="423" y="102"/>
      <point x="423" y="148" type="curve"/>
      <point x="384" y="215" type="line"/>
      <point x="384" y="196"/>
      <point x="376" y="191"/>
      <point x="361" y="191" type="curve" smooth="yes"/>
      <point x="223" y="191" type="line" smooth="yes"/>
      <point x="208" y="191"/>
      <point x="200" y="196"/>
      <point x="200" y="215" type="curve" smooth="yes"/>
      <point x="200" y="332" type="line"/>
      <point x="225" y="300"/>
      <point x="252" y="266"/>
      <point x="262" y="254" type="curve" smooth="yes"/>
    </contour>
    <contour>
      <point x="-20" y="642" type="line"/>
      <point x="-20" y="529" type="line"/>
      <point x="842" y="529" type="line"/>
      <point x="842" y="642" type="line"/>
    </contour>
    <contour>
      <point x="612" y="591" type="line"/>
      <point x="612" y="0" type="line"/>
      <point x="782" y="0" type="line"/>
      <point x="782" y="591" type="line"/>
    </contour>
  </outline>
</glyph>
<glyph name="dvB_YA" format="1">
  <advance width="955"/>
  <outline>
    <contour>
      <point x="-20" y="642" type="line"/>
      <point x="-20" y="529" type="line"/>
      <point x="975" y="529" type="line"/>
      <point x="975" y="642" type="line"/>
    </contour>
    <contour>
      <point x="745" y="592" type="line"/>
      <point x="745" y="0" type="line"/>
      <point x="915" y="0" type="line"/>
      <point x="915" y="592" type="line"/>
    </contour>
    <contour>
      <point x="325" y="472" type="line"/>
      <point x="170" y="472" type="line" smooth="yes"/>
      <point x="61" y="472"/>
      <point x="30" y="438"/>
      <point x="30" y="365" type="curve" smooth="yes"/>
      <point x="30" y="205" type="line" smooth="yes"/>
      <point x="30" y="112"/>
      <point x="75" y="78"/>
      <point x="161" y="78" type="curve" smooth="yes"/>
      <point x="331" y="78" type="line" smooth="yes"/>
      <point x="389" y="78"/>
      <point x="413" y="104"/>
      <point x="418" y="148" type="curve"/>
      <point x="384" y="215" type="line"/>
      <point x="384" y="196"/>
      <point x="376" y="191"/>
      <point x="361" y="191" type="curve" smooth="yes"/>
      <point x="223" y="191" type="line" smooth="yes"/>
      <point x="208" y="191"/>
      <point x="200" y="196"/>
      <point x="200" y="215" type="curve" smooth="yes"/>
      <point x="200" y="332" type="line"/>
      <point x="225" y="300"/>
      <point x="252" y="266"/>
      <point x="262" y="254" type="curve" smooth="yes"/>
      <point x="365" y="129" type="line"/>
      <point x="376" y="143" type="line"/>
      <point x="395" y="96"/>
      <point x="440" y="78"/>
      <point x="528" y="78" type="curve" smooth="yes"/>
      <point x="696" y="78" type="line" smooth="yes"/>
      <point x="743" y="78"/>
      <point x="759" y="102"/>
      <point x="759" y="138" type="curve"/>
      <point x="745" y="225" type="line"/>
      <point x="745" y="199"/>
      <point x="737" y="191"/>
      <point x="711" y="191" type="curve" smooth="yes"/>
      <point x="562" y="191" type="line" smooth="yes"/>
      <point x="547" y="191"/>
      <point x="537" y="196"/>
      <point x="537" y="215" type="curve"/>
      <point x="537" y="279" type="line"/>
      <point x="542" y="279" type="line" smooth="yes"/>
      <point x="651" y="279"/>
      <point x="677" y="323"/>
      <point x="677" y="396" type="curve" smooth="yes"/>
      <point x="677" y="485" type="line" smooth="yes"/>
      <point x="677" y="543"/>
      <point x="633" y="557"/>
      <point x="560" y="557" type="curve"/>
      <point x="481" y="529" type="line"/>
      <point x="507" y="529"/>
      <point x="515" y="521"/>
      <point x="515" y="495" type="curve" smooth="yes"/>
      <point x="515" y="412" type="line" smooth="yes"/>
      <point x="515" y="397"/>
      <point x="507" y="392"/>
      <point x="492" y="392" type="curve" smooth="yes"/>
      <point x="367" y="392" type="line"/>
      <point x="367" y="274" type="line" smooth="yes"/>
      <point x="367" y="255"/>
      <point x="373" y="222"/>
      <point x="373" y="222" type="curve"/>
      <point x="373" y="222"/>
      <point x="328" y="275"/>
      <point x="294" y="318" type="curve" smooth="yes"/>
      <point x="253" y="369" type="line"/>
      <point x="325" y="369" type="line"/>
    </contour>
  </outline>
</glyph>
<glyph name="dvCA" format="1">
  <advance width="499"/>
  <outline>
    <contour>
      <point x="-22" y="642" type="line"/>
      <point x="-22" y="529" type="line"/>
      <point x="519" y="529" type="line"/>
      <point x="519" y="642" type="line"/>
    </contour>
    <contour>
      <point x="289" y="592" type="line"/>
      <point x="289" y="0" type="line"/>
      <point x="459" y="0" type="line"/>
      <point x="459" y="592" type="line"/>
    </contour>
    <contour>
      <point x="-12" y="472" type="line"/>
      <point x="-12" y="359" type="line"/>
      <point x="260" y="359" type="line"/>
      <point x="260" y="472" type="line"/>
    </contour>
    <contour>
      <point x="44" y="305" type="curve"/>
      <point x="44" y="205" type="line" smooth="yes"/>
      <point x="44" y="112"/>
      <point x="89" y="78"/>
      <point x="175" y="78" type="curve" smooth="yes"/>
      <point x="236" y="78" type="line" smooth="yes"/>
      <point x="293" y="78"/>
      <point x="303" y="102"/>
      <point x="303" y="148" type="curve"/>
      <point x="289" y="215" type="line"/>
      <point x="289" y="196"/>
      <point x="281" y="191"/>
      <point x="266" y="191" type="curve" smooth="yes"/>
      <point x="237" y="191" type="line" smooth="yes"/>
      <point x="222" y="191"/>
      <point x="214" y="196"/>
      <point x="214" y="215" type="curve" smooth="yes"/>
      <point x="214" y="335" type="line" smooth="yes"/>
      <point x="214" y="354"/>
      <point x="222" y="359"/>
      <point x="237" y="359" type="curve"/>
      <point x="155" y="387" type="line"/>
      <point x="89" y="387"/>
      <point x="44" y="371"/>
    </contour>
  </outline>
</glyph>
<glyph name="dvCH_YA" format="1">
  <advance width="1317"/>
  <outline>
    <contour>
      <point x="34" y="504" type="curve"/>
      <point x="34" y="375" type="line" smooth="yes"/>
      <point x="34" y="338"/>
      <point x="51" y="323"/>
      <point x="81" y="319" type="curve"/>
      <point x="81" y="314" type="line"/>
      <point x="51" y="310"/>
      <point x="34" y="295"/>
      <point x="34" y="258" type="curve" smooth="yes"/>
      <point x="34" y="127" type="line" smooth="yes"/>
      <point x="34" y="34"/>
      <point x="85" y="0"/>
      <point x="195" y="0" type="curve" smooth="yes"/>
      <point x="500" y="0" type="line" smooth="yes"/>
      <point x="610" y="0"/>
      <point x="661" y="34"/>
      <point x="661" y="127" type="curve" smooth="yes"/>
      <point x="661" y="378" type="line" smooth="yes"/>
      <point x="661" y="462"/>
      <point x="611" y="485"/>
      <point x="518" y="485" type="curve" smooth="yes"/>
      <point x="442" y="485" type="line" smooth="yes"/>
      <point x="349" y="485"/>
      <point x="299" y="462"/>
      <point x="299" y="378" type="curve" smooth="yes"/>
      <point x="299" y="313" type="line" smooth="yes"/>
      <point x="299" y="229"/>
      <point x="349" y="206"/>
      <point x="422" y="206" type="curve" smooth="yes"/>
      <point x="463" y="206" type="line"/>
      <point x="463" y="299" type="line"/>
      <point x="452" y="299" type="line" smooth="yes"/>
      <point x="437" y="299"/>
      <point x="429" y="304"/>
      <point x="429" y="319" type="curve" smooth="yes"/>
      <point x="429" y="359" type="line" smooth="yes"/>
      <point x="429" y="374"/>
      <point x="437" y="379"/>
      <point x="452" y="379" type="curve" smooth="yes"/>
      <point x="468" y="379" type="line" smooth="yes"/>
      <point x="483" y="379"/>
      <point x="491" y="374"/>
      <point x="491" y="359" type="curve" smooth="yes"/>
      <point x="491" y="139" type="line" smooth="yes"/>
      <point x="491" y="120"/>
      <point x="483" y="115"/>
      <point x="468" y="115" type="curve" smooth="yes"/>
      <point x="227" y="115" type="line" smooth="yes"/>
      <point x="212" y="115"/>
      <point x="204" y="120"/>
      <point x="204" y="139" type="curve" smooth="yes"/>
      <point x="204" y="236" type="line" smooth="yes"/>
      <point x="204" y="255"/>
      <point x="212" y="260"/>
      <point x="227" y="260" type="curve" smooth="yes"/>
      <point x="260" y="260" type="line"/>
      <point x="260" y="373" type="line"/>
      <point x="227" y="373" type="line" smooth="yes"/>
      <point x="212" y="373"/>
      <point x="204" y="378"/>
      <point x="204" y="397" type="curve" smooth="yes"/>
      <point x="204" y="495" type="line" smooth="yes"/>
      <point x="204" y="521"/>
      <point x="212" y="529"/>
      <point x="238" y="529" type="curve"/>
      <point x="144" y="557" type="line"/>
      <point x="78" y="557"/>
      <point x="34" y="550"/>
    </contour>
    <contour>
      <point x="1107" y="592" type="line"/>
      <point x="1107" y="0" type="line"/>
      <point x="1277" y="0" type="line"/>
      <point x="1277" y="592" type="line"/>
    </contour>
    <contour>
      <point x="1337" y="642" type="line"/>
      <point x="-20" y="642" type="line"/>
      <point x="-20" y="529" type="line"/>
      <point x="1337" y="529" type="line"/>
    </contour>
    <contour>
      <point x="1121" y="138" type="curve"/>
      <point x="1107" y="225" type="line"/>
      <point x="1107" y="199"/>
      <point x="1099" y="191"/>
      <point x="1073" y="191" type="curve" smooth="yes"/>
      <point x="922" y="191" type="line" smooth="yes"/>
      <point x="907" y="191"/>
      <point x="899" y="196"/>
      <point x="899" y="215" type="curve" smooth="yes"/>
      <point x="899" y="231" type="line"/>
      <point x="904" y="231" type="line" smooth="yes"/>
      <point x="1013" y="231"/>
      <point x="1039" y="275"/>
      <point x="1039" y="348" type="curve" smooth="yes"/>
      <point x="1039" y="368" type="line" smooth="yes"/>
      <point x="1039" y="441"/>
      <point x="1013" y="485"/>
      <point x="904" y="485" type="curve" smooth="yes"/>
      <point x="488" y="485" type="line"/>
      <point x="604" y="379" type="line"/>
      <point x="854" y="379" type="line" smooth="yes"/>
      <point x="869" y="379"/>
      <point x="877" y="374"/>
      <point x="877" y="359" type="curve" smooth="yes"/>
      <point x="877" y="345" type="line" smooth="yes"/>
      <point x="877" y="330"/>
      <point x="869" y="325"/>
      <point x="854" y="325" type="curve" smooth="yes"/>
      <point x="729" y="325" type="line"/>
      <point x="729" y="205" type="line" smooth="yes"/>
      <point x="729" y="112"/>
      <point x="780" y="78"/>
      <point x="890" y="78" type="curve" smooth="yes"/>
      <point x="1058" y="78" type="line" smooth="yes"/>
      <point x="1105" y="78"/>
      <point x="1121" y="102"/>
    </contour>
  </outline>
</glyph>
<glyph name="dvC" format="1">
  <advance width="249"/>
  <outline>
    <contour>
      <point x="369" y="642" type="line"/>
      <point x="-22" y="642" type="line"/>
      <point x="-22" y="529" type="line"/>
      <point x="369" y="529" type="line"/>
    </contour>
    <contour>
      <point x="260" y="472" type="line"/>
      <point x="-12" y="472" type="line"/>
      <point x="-12" y="359" type="line"/>
      <point x="83" y="359" type="line"/>
      <point x="83" y="375" type="line"/>
      <point x="58" y="363"/>
      <point x="44" y="342"/>
      <point x="44" y="305" type="curve"/>
      <point x="44" y="205" type="line" smooth="yes"/>
      <point x="44" y="112"/>
      <point x="89" y="78"/>
      <point x="175" y="78" type="curve" smooth="yes"/>
      <point x="369" y="78" type="line"/>
      <point x="369" y="191" type="line"/>
      <point x="237" y="191" type="line" smooth="yes"/>
      <point x="222" y="191"/>
      <point x="214" y="196"/>
      <point x="214" y="215" type="curve" smooth="yes"/>
      <point x="214" y="335" type="line" smooth="yes"/>
      <point x="214" y="354"/>
      <point x="222" y="359"/>
      <point x="237" y="359" type="curve" smooth="yes"/>
      <point x="260" y="359" type="line"/>
    </contour>
  </outline>
</glyph>
<glyph name="dvC_CA" format="1">
  <advance width="749"/>
  <outline>
    <contour>
      <point x="-12" y="472" type="line"/>
      <point x="-12" y="359" type="line"/>
      <point x="243" y="359" type="line"/>
      <point x="243" y="472" type="line"/>
    </contour>
    <contour>
      <point x="44" y="305" type="curve"/>
      <point x="44" y="205" type="line" smooth="yes"/>
      <point x="44" y="112"/>
      <point x="89" y="78"/>
      <point x="175" y="78" type="curve" smooth="yes"/>
      <point x="256" y="78" type="line" smooth="yes"/>
      <point x="303" y="78"/>
      <point x="332" y="102"/>
      <point x="332" y="138" type="curve" smooth="yes"/>
      <point x="294" y="225" type="line"/>
      <point x="294" y="199"/>
      <point x="286" y="191"/>
      <point x="260" y="191" type="curve" smooth="yes"/>
      <point x="237" y="191" type="line" smooth="yes"/>
      <point x="222" y="191"/>
      <point x="214" y="196"/>
      <point x="214" y="215" type="curve" smooth="yes"/>
      <point x="214" y="335" type="line" smooth="yes"/>
      <point x="214" y="354"/>
      <point x="222" y="359"/>
      <point x="237" y="359" type="curve"/>
      <point x="155" y="387" type="line"/>
      <point x="89" y="387"/>
      <point x="44" y="371"/>
    </contour>
    <contour>
      <point x="-22" y="642" type="line"/>
      <point x="-22" y="529" type="line"/>
      <point x="769" y="529" type="line"/>
      <point x="769" y="642" type="line"/>
    </contour>
    <contour>
      <point x="539" y="592" type="line"/>
      <point x="539" y="0" type="line"/>
      <point x="709" y="0" type="line"/>
      <point x="709" y="592" type="line"/>
    </contour>
    <contour>
      <point x="280" y="472" type="line"/>
      <point x="280" y="359" type="line"/>
      <point x="510" y="359" type="line"/>
      <point x="510" y="472" type="line"/>
    </contour>
    <contour>
      <point x="294" y="305" type="curve"/>
      <point x="294" y="205" type="line" smooth="yes"/>
      <point x="294" y="112"/>
      <point x="339" y="78"/>
      <point x="425" y="78" type="curve" smooth="yes"/>
      <point x="486" y="78" type="line" smooth="yes"/>
      <point x="543" y="78"/>
      <point x="553" y="102"/>
      <point x="553" y="148" type="curve"/>
      <point x="539" y="215" type="line"/>
      <point x="539" y="196"/>
      <point x="531" y="191"/>
      <point x="516" y="191" type="curve" smooth="yes"/>
      <point x="487" y="191" type="line" smooth="yes"/>
      <point x="472" y="191"/>
      <point x="464" y="196"/>
      <point x="464" y="215" type="curve" smooth="yes"/>
      <point x="464" y="335" type="line" smooth="yes"/>
      <point x="464" y="354"/>
      <point x="472" y="359"/>
      <point x="487" y="359" type="curve"/>
      <point x="405" y="387" type="line"/>
      <point x="339" y="387"/>
      <point x="294" y="371"/>
    </contour>
  </outline>
</glyph>
<glyph name="dvC_CHA" format="1">
  <advance width="961"/>
  <outline>
    <contour>
      <point x="722" y="-50" type="move" name="blwm.uu"/>
    </contour>
    <contour>
      <point x="754" y="-70" type="move" name="blwm.vr"/>
    </contour>
    <contour>
      <point x="819" y="652" type="move" name="abvm.e"/>
    </contour>
    <contour>
      <point x="819" y="642" type="move" name="abvm.bindu"/>
    </contour>
    <contour>
      <point x="739" y="-20" type="move" name="blwm.virama"/>
    </contour>
    <contour>
      <point x="591" y="-40" type="move" name="blwm.u"/>
    </contour>
    <contour>
      <point x="-20" y="642" type="line"/>
      <point x="-20" y="529" type="line"/>
      <point x="981" y="529" type="line"/>
      <point x="981" y="642" type="line"/>
    </contour>
    <contour>
      <point x="659" y="552" type="line"/>
      <point x="659" y="443" type="line"/>
      <point x="819" y="443" type="line"/>
      <point x="819" y="552" type="line"/>
    </contour>
    <contour>
      <point x="294" y="504" type="curve"/>
      <point x="294" y="375" type="line" smooth="yes"/>
      <point x="294" y="338"/>
      <point x="311" y="323"/>
      <point x="341" y="319" type="curve"/>
      <point x="341" y="314" type="line"/>
      <point x="311" y="310"/>
      <point x="294" y="295"/>
      <point x="294" y="258" type="curve" smooth="yes"/>
      <point x="294" y="127" type="line" smooth="yes"/>
      <point x="294" y="34"/>
      <point x="345" y="0"/>
      <point x="455" y="0" type="curve" smooth="yes"/>
      <point x="760" y="0" type="line" smooth="yes"/>
      <point x="870" y="0"/>
      <point x="921" y="34"/>
      <point x="921" y="127" type="curve" smooth="yes"/>
      <point x="921" y="365" type="line" smooth="yes"/>
      <point x="921" y="449"/>
      <point x="871" y="472"/>
      <point x="778" y="472" type="curve" smooth="yes"/>
      <point x="702" y="472" type="line" smooth="yes"/>
      <point x="609" y="472"/>
      <point x="559" y="449"/>
      <point x="559" y="365" type="curve" smooth="yes"/>
      <point x="559" y="312" type="line" smooth="yes"/>
      <point x="559" y="228"/>
      <point x="609" y="205"/>
      <point x="682" y="205" type="curve" smooth="yes"/>
      <point x="723" y="205" type="line"/>
      <point x="723" y="298" type="line"/>
      <point x="712" y="298" type="line" smooth="yes"/>
      <point x="697" y="298"/>
      <point x="689" y="303"/>
      <point x="689" y="318" type="curve" smooth="yes"/>
      <point x="689" y="358" type="line" smooth="yes"/>
      <point x="689" y="373"/>
      <point x="697" y="378"/>
      <point x="712" y="378" type="curve" smooth="yes"/>
      <point x="728" y="378" type="line" smooth="yes"/>
      <point x="743" y="378"/>
      <point x="751" y="373"/>
      <point x="751" y="358" type="curve" smooth="yes"/>
      <point x="751" y="139" type="line" smooth="yes"/>
      <point x="751" y="120"/>
      <point x="743" y="115"/>
      <point x="728" y="115" type="curve" smooth="yes"/>
      <point x="487" y="115" type="line" smooth="yes"/>
      <point x="472" y="115"/>
      <point x="464" y="120"/>
      <point x="464" y="139" type="curve" smooth="yes"/>
      <point x="464" y="236" type="line" smooth="yes"/>
      <point x="464" y="255"/>
      <point x="472" y="260"/>
      <point x="487" y="260" type="curve" smooth="yes"/>
      <point x="520" y="260" type="line"/>
      <point x="520" y="373" type="line"/>
      <point x="487" y="373" type="line" smooth="yes"/>
      <point x="472" y="373"/>
      <point x="464" y="378"/>
      <point x="464" y="397" type="curve" smooth="yes"/>
      <point x="464" y="495" type="line" smooth="yes"/>
      <point x="464" y="521"/>
      <point x="472" y="529"/>
      <point x="498" y="529" type="curve"/>
      <point x="404" y="557" type="line"/>
      <point x="338" y="557"/>
      <point x="294" y="550"/>
    </contour>
    <contour>
      <point x="-12" y="472" type="line"/>
      <point x="-12" y="359" type="line"/>
      <point x="106" y="359" type="line"/>
      <point x="82" y="373" type="line"/>
      <point x="58" y="364"/>
      <point x="44" y="341"/>
      <point x="44" y="305" type="curve" smooth="yes"/>
      <point x="44" y="205" type="line" smooth="yes"/>
      <point x="44" y="112"/>
      <point x="89" y="78"/>
      <point x="175" y="78" type="curve" smooth="yes"/>
      <point x="251" y="78" type="line" smooth="yes"/>
      <point x="298" y="78"/>
      <point x="327" y="102"/>
      <point x="327" y="138" type="curve"/>
      <point x="294" y="225" type="line"/>
      <point x="294" y="199"/>
      <point x="286" y="191"/>
      <point x="260" y="191" type="curve" smooth="yes"/>
      <point x="237" y="191" type="line" smooth="yes"/>
      <point x="222" y="191"/>
      <point x="214" y="196"/>
      <point x="214" y="215" type="curve" smooth="yes"/>
      <point x="214" y="335" type="line" smooth="yes"/>
      <point x="214" y="354"/>
      <point x="222" y="359"/>
      <point x="237" y="359" type="curve" smooth="yes"/>
      <point x="243" y="359" type="line"/>
      <point x="243" y="472" type="line"/>
    </contour>
  </outline>
</glyph>
<glyph name="dvC_CH_VA" format="1">
  <advance width="951"/>
  <outline>
    <contour>
      <point x="712" y="-50" type="move" name="blwm.uu"/>
    </contour>
    <contour>
      <point x="744" y="-70" type="move" name="blwm.vr"/>
    </contour>
    <contour>
      <point x="809" y="652" type="move" name="abvm.e"/>
    </contour>
    <contour>
      <point x="809" y="642" type="move" name="abvm.bindu"/>
    </contour>
    <contour>
      <point x="729" y="-20" type="move" name="blwm.virama"/>
    </contour>
    <contour>
      <point x="581" y="-40" type="move" name="blwm.u"/>
    </contour>
    <contour>
      <point x="-17" y="472" type="line"/>
      <point x="-17" y="359" type="line"/>
      <point x="96" y="359" type="line"/>
      <point x="72" y="373" type="line"/>
      <point x="48" y="364"/>
      <point x="34" y="341"/>
      <point x="34" y="305" type="curve" smooth="yes"/>
      <point x="34" y="205" type="line" smooth="yes"/>
      <point x="34" y="112"/>
      <point x="79" y="78"/>
      <point x="165" y="78" type="curve" smooth="yes"/>
      <point x="241" y="78" type="line" smooth="yes"/>
      <point x="288" y="78"/>
      <point x="317" y="102"/>
      <point x="317" y="138" type="curve"/>
      <point x="284" y="225" type="line"/>
      <point x="284" y="199"/>
      <point x="276" y="191"/>
      <point x="250" y="191" type="curve" smooth="yes"/>
      <point x="227" y="191" type="line" smooth="yes"/>
      <point x="212" y="191"/>
      <point x="204" y="196"/>
      <point x="204" y="215" type="curve" smooth="yes"/>
      <point x="204" y="335" type="line" smooth="yes"/>
      <point x="204" y="354"/>
      <point x="212" y="359"/>
      <point x="227" y="359" type="curve" smooth="yes"/>
      <point x="233" y="359" type="line"/>
      <point x="233" y="472" type="line"/>
    </contour>
    <contour>
      <point x="-20" y="642" type="line"/>
      <point x="-20" y="529" type="line"/>
      <point x="971" y="529" type="line"/>
      <point x="971" y="642" type="line"/>
    </contour>
    <contour>
      <point x="649" y="552" type="line"/>
      <point x="649" y="443" type="line"/>
      <point x="809" y="443" type="line"/>
      <point x="809" y="552" type="line"/>
    </contour>
    <contour>
      <point x="284" y="504" type="curve"/>
      <point x="284" y="375" type="line" smooth="yes"/>
      <point x="284" y="338"/>
      <point x="301" y="323"/>
      <point x="331" y="319" type="curve"/>
      <point x="331" y="314" type="line"/>
      <point x="301" y="310"/>
      <point x="284" y="295"/>
      <point x="284" y="258" type="curve" smooth="yes"/>
      <point x="284" y="127" type="line" smooth="yes"/>
      <point x="284" y="34"/>
      <point x="335" y="0"/>
      <point x="445" y="0" type="curve" smooth="yes"/>
      <point x="750" y="0" type="line" smooth="yes"/>
      <point x="860" y="0"/>
      <point x="911" y="34"/>
      <point x="911" y="127" type="curve" smooth="yes"/>
      <point x="911" y="365" type="line" smooth="yes"/>
      <point x="911" y="449"/>
      <point x="861" y="472"/>
      <point x="768" y="472" type="curve" smooth="yes"/>
      <point x="692" y="472" type="line" smooth="yes"/>
      <point x="599" y="472"/>
      <point x="549" y="449"/>
      <point x="549" y="365" type="curve" smooth="yes"/>
      <point x="549" y="312" type="line" smooth="yes"/>
      <point x="549" y="228"/>
      <point x="599" y="205"/>
      <point x="672" y="205" type="curve" smooth="yes"/>
      <point x="713" y="205" type="line"/>
      <point x="713" y="298" type="line"/>
      <point x="702" y="298" type="line" smooth="yes"/>
      <point x="687" y="298"/>
      <point x="679" y="303"/>
      <point x="679" y="318" type="curve" smooth="yes"/>
      <point x="679" y="358" type="line" smooth="yes"/>
      <point x="679" y="373"/>
      <point x="687" y="378"/>
      <point x="702" y="378" type="curve" smooth="yes"/>
      <point x="718" y="378" type="line" smooth="yes"/>
      <point x="733" y="378"/>
      <point x="741" y="373"/>
      <point x="741" y="358" type="curve" smooth="yes"/>
      <point x="741" y="139" type="line" smooth="yes"/>
      <point x="741" y="120"/>
      <point x="733" y="115"/>
      <point x="718" y="115" type="curve" smooth="yes"/>
      <point x="477" y="115" type="line" smooth="yes"/>
      <point x="462" y="115"/>
      <point x="454" y="120"/>
      <point x="454" y="139" type="curve" smooth="yes"/>
      <point x="454" y="236" type="line" smooth="yes"/>
      <point x="454" y="255"/>
      <point x="462" y="260"/>
      <point x="477" y="260" type="curve" smooth="yes"/>
      <point x="510" y="260" type="line"/>
      <point x="510" y="373" type="line"/>
      <point x="477" y="373" type="line" smooth="yes"/>
      <point x="462" y="373"/>
      <point x="454" y="378"/>
      <point x="454" y="397" type="curve" smooth="yes"/>
      <point x="454" y="495" type="line" smooth="yes"/>
      <point x="454" y="521"/>
      <point x="462" y="529"/>
      <point x="488" y="529" type="curve"/>
      <point x="394" y="557" type="line"/>
      <point x="328" y="557"/>
      <point x="284" y="550"/>
    </contour>
    <contour>
      <point x="535" y="-75" type="curve"/>
      <point x="535" y="-34" type="line" smooth="yes"/>
      <point x="535" y="-8"/>
      <point x="543" y="0"/>
      <point x="569" y="0" type="curve"/>
      <point x="485" y="28" type="line"/>
      <point x="449" y="28"/>
      <point x="415" y="11"/>
      <point x="415" y="-35" type="curve" smooth="yes"/>
      <point x="415" y="-92" type="line" smooth="yes"/>
      <point x="415" y="-173"/>
      <point x="456" y="-199"/>
      <point x="530" y="-199" type="curve" smooth="yes"/>
      <point x="607" y="-199" type="line" smooth="yes"/>
      <point x="664" y="-199"/>
      <point x="674" y="-175"/>
      <point x="674" y="-129" type="curve"/>
      <point x="660" y="-75" type="line"/>
      <point x="660" y="-94"/>
      <point x="652" y="-99"/>
      <point x="637" y="-99" type="curve" smooth="yes"/>
      <point x="558" y="-99" type="line" smooth="yes"/>
      <point x="543" y="-99"/>
      <point x="535" y="-94"/>
    </contour>
    <contour>
      <point x="660" y="32" type="line"/>
      <point x="660" y="-290" type="line"/>
      <point x="780" y="-290" type="line"/>
      <point x="780" y="32" type="line"/>
    </contour>
  </outline>
</glyph>
<glyph name="dvDA" format="1">
  <advance width="474"/>
  <outline>
    <contour>
      <point x="449" y="-10" type="move" name="blwm.uu"/>
    </contour>
    <contour>
      <point x="434" y="-30" type="move" name="blwm.vr"/>
    </contour>
    <contour>
      <point x="434" y="652" type="move" name="abvm.e"/>
    </contour>
    <contour>
      <point x="434" y="642" type="move" name="abvm.bindu"/>
    </contour>
    <contour>
      <point x="435" y="-20" type="move" name="blwm.virama"/>
    </contour>
    <contour>
      <point x="264" y="0" type="move" name="blwm.u"/>
    </contour>
    <contour>
      <point x="-34" y="642" type="line"/>
      <point x="-34" y="529" type="line"/>
      <point x="494" y="529" type="line"/>
      <point x="494" y="642" type="line"/>
    </contour>
    <contour>
      <point x="264" y="593" type="line"/>
      <point x="264" y="472" type="line"/>
      <point x="166" y="472" type="line" smooth="yes"/>
      <point x="57" y="472"/>
      <point x="26" y="438"/>
      <point x="26" y="365" type="curve" smooth="yes"/>
      <point x="26" y="205" type="line" smooth="yes"/>
      <point x="26" y="112"/>
      <point x="67" y="78"/>
      <point x="187" y="78" type="curve" smooth="yes"/>
      <point x="211" y="78" type="line" smooth="yes"/>
      <point x="268" y="78"/>
      <point x="278" y="102"/>
      <point x="278" y="148" type="curve"/>
      <point x="264" y="215" type="line"/>
      <point x="264" y="196"/>
      <point x="256" y="191"/>
      <point x="241" y="191" type="curve" smooth="yes"/>
      <point x="219" y="191" type="line" smooth="yes"/>
      <point x="204" y="191"/>
      <point x="196" y="196"/>
      <point x="196" y="215" type="curve" smooth="yes"/>
      <point x="196" y="335" type="line" smooth="yes"/>
      <point x="196" y="354"/>
      <point x="206" y="359"/>
      <point x="221" y="359" type="curve" smooth="yes"/>
      <point x="434" y="359" type="line"/>
      <point x="434" y="593" type="line"/>
    </contour>
    <contour>
      <point x="264" y="291" type="line"/>
      <point x="264" y="0" type="line"/>
      <point x="434" y="0" type="line"/>
      <point x="434" y="291" type="line"/>
    </contour>
  </outline>
</glyph>
<glyph name="dvDDHA" format="1">
  <advance width="517"/>
  <outline>
    <contour>
      <point x="350" y="-50" type="move" name="blwm.uu"/>
    </contour>
    <contour>
      <point x="382" y="-70" type="move" name="blwm.vr"/>
    </contour>
    <contour>
      <point x="447" y="652" type="move" name="abvm.e"/>
    </contour>
    <contour>
      <point x="447" y="642" type="move" name="abvm.bindu"/>
    </contour>
    <contour>
      <point x="367" y="-20" type="move" name="blwm.virama"/>
    </contour>
    <contour>
      <point x="219" y="-40" type="move" name="blwm.u"/>
    </contour>
    <contour>
      <point x="-20" y="642" type="line"/>
      <point x="-20" y="529" type="line"/>
      <point x="537" y="529" type="line"/>
      <point x="537" y="642" type="line"/>
    </contour>
    <contour>
      <point x="278" y="593" type="line"/>
      <point x="278" y="472" type="line"/>
      <point x="180" y="472" type="line" smooth="yes"/>
      <point x="71" y="472"/>
      <point x="40" y="438"/>
      <point x="40" y="365" type="curve" smooth="yes"/>
      <point x="40" y="127" type="line" smooth="yes"/>
      <point x="40" y="34"/>
      <point x="81" y="0"/>
      <point x="201" y="0" type="curve" smooth="yes"/>
      <point x="326" y="0" type="line" smooth="yes"/>
      <point x="446" y="0"/>
      <point x="487" y="34"/>
      <point x="487" y="127" type="curve" smooth="yes"/>
      <point x="487" y="177" type="line" smooth="yes"/>
      <point x="487" y="270"/>
      <point x="446" y="304"/>
      <point x="326" y="304" type="curve" smooth="yes"/>
      <point x="248" y="304" type="line"/>
      <point x="248" y="191" type="line"/>
      <point x="292" y="191" type="line" smooth="yes"/>
      <point x="307" y="191"/>
      <point x="317" y="186"/>
      <point x="317" y="167" type="curve" smooth="yes"/>
      <point x="317" y="137" type="line" smooth="yes"/>
      <point x="317" y="118"/>
      <point x="307" y="113"/>
      <point x="292" y="113" type="curve" smooth="yes"/>
      <point x="235" y="113" type="line" smooth="yes"/>
      <point x="220" y="113"/>
      <point x="210" y="118"/>
      <point x="210" y="137" type="curve" smooth="yes"/>
      <point x="210" y="335" type="line" smooth="yes"/>
      <point x="210" y="354"/>
      <point x="220" y="359"/>
      <point x="235" y="359" type="curve" smooth="yes"/>
      <point x="448" y="359" type="line"/>
      <point x="448" y="593" type="line"/>
    </contour>
  </outline>
</glyph>
<glyph name="dvDDH_VA" format="1">
  <advance width="518"/>
  <outline>
    <contour>
      <point x="-20" y="642" type="line"/>
      <point x="-20" y="529" type="line"/>
      <point x="538" y="529" type="line"/>
      <point x="538" y="642" type="line"/>
    </contour>
    <contour>
      <point x="40" y="149" type="line"/>
      <point x="40" y="76"/>
      <point x="71" y="42"/>
      <point x="180" y="42" type="curve"/>
      <point x="317" y="42" type="line" smooth="yes"/>
      <point x="437" y="42"/>
      <point x="478" y="76"/>
      <point x="478" y="169" type="curve" smooth="yes"/>
      <point x="478" y="201" type="line" smooth="yes"/>
      <point x="478" y="294"/>
      <point x="437" y="328"/>
      <point x="317" y="328" type="curve" smooth="yes"/>
      <point x="245" y="328" type="line"/>
      <point x="245" y="215" type="line"/>
      <point x="283" y="215" type="line" smooth="yes"/>
      <point x="298" y="215"/>
      <point x="308" y="210"/>
      <point x="308" y="191" type="curve" smooth="yes"/>
      <point x="308" y="179" type="line" smooth="yes"/>
      <point x="308" y="160"/>
      <point x="298" y="155"/>
      <point x="283" y="155" type="curve" smooth="yes"/>
      <point x="235" y="155" type="line" smooth="yes"/>
      <point x="220" y="155"/>
      <point x="210" y="160"/>
      <point x="210" y="179" type="curve" smooth="yes"/>
      <point x="210" y="335" type="line" smooth="yes"/>
      <point x="210" y="354"/>
      <point x="220" y="359"/>
      <point x="235" y="359" type="curve" smooth="yes"/>
      <point x="448" y="359" type="line"/>
      <point x="448" y="593" type="line"/>
      <point x="278" y="593" type="line"/>
      <point x="278" y="472" type="line"/>
      <point x="180" y="472" type="line" smooth="yes"/>
      <point x="71" y="472"/>
      <point x="40" y="438"/>
      <point x="40" y="365" type="curve" smooth="yes"/>
    </contour>
    <contour>
      <point x="62" y="128" type="line"/>
      <point x="62" y="-72" type="line" smooth="yes"/>
      <point x="62" y="-145"/>
      <point x="93" y="-179"/>
      <point x="202" y="-179" type="curve" smooth="yes"/>
      <point x="231" y="-179" type="line" smooth="yes"/>
      <point x="258" y="-179"/>
      <point x="274" y="-174"/>
      <point x="284" y="-163" type="curve"/>
      <point x="284" y="-269" type="line"/>
      <point x="454" y="-269" type="line"/>
      <point x="454" y="128" type="line"/>
      <point x="294" y="129" type="line"/>
      <point x="294" y="-47" type="line" smooth="yes"/>
      <point x="294" y="-70"/>
      <point x="284" y="-76"/>
      <point x="266" y="-76" type="curve" smooth="yes"/>
      <point x="250" y="-76" type="line" smooth="yes"/>
      <point x="232" y="-76"/>
      <point x="222" y="-70"/>
      <point x="222" y="-47" type="curve" smooth="yes"/>
      <point x="222" y="129" type="line"/>
    </contour>
  </outline>
</glyph>
<glyph name="dvDH" format="1">
  <advance width="419"/>
  <outline>
    <contour>
      <point x="220" y="427" type="curve" smooth="yes"/>
      <point x="220" y="514" type="line" smooth="yes"/>
      <point x="220" y="529"/>
      <point x="228" y="534"/>
      <point x="243" y="534" type="curve" smooth="yes"/>
      <point x="250" y="534" type="line" smooth="yes"/>
      <point x="265" y="534"/>
      <point x="273" y="529"/>
      <point x="273" y="514" type="curve" smooth="yes"/>
      <point x="273" y="478" type="line"/>
      <point x="363" y="478" type="line"/>
      <point x="363" y="541" type="line" smooth="yes"/>
      <point x="363" y="615"/>
      <point x="322" y="647"/>
      <point x="233" y="647" type="curve" smooth="yes"/>
      <point x="180" y="647" type="line" smooth="yes"/>
      <point x="91" y="647"/>
      <point x="50" y="615"/>
      <point x="50" y="541" type="curve" smooth="yes"/>
      <point x="50" y="405" type="line" smooth="yes"/>
      <point x="50" y="368"/>
      <point x="67" y="353"/>
      <point x="97" y="349" type="curve"/>
      <point x="97" y="344" type="line"/>
      <point x="67" y="340"/>
      <point x="50" y="325"/>
      <point x="50" y="288" type="curve" smooth="yes"/>
      <point x="50" y="184" type="line" smooth="yes"/>
      <point x="50" y="110"/>
      <point x="91" y="78"/>
      <point x="180" y="78" type="curve" smooth="yes"/>
      <point x="553" y="78" type="line"/>
      <point x="553" y="191" type="line"/>
      <point x="243" y="191" type="line" smooth="yes"/>
      <point x="228" y="191"/>
      <point x="220" y="196"/>
      <point x="220" y="215" type="curve" smooth="yes"/>
      <point x="220" y="266" type="line" smooth="yes"/>
      <point x="220" y="285"/>
      <point x="228" y="290"/>
      <point x="243" y="290" type="curve" smooth="yes"/>
      <point x="312" y="290" type="line"/>
      <point x="312" y="403" type="line"/>
      <point x="243" y="403" type="line" smooth="yes"/>
      <point x="228" y="403"/>
      <point x="220" y="408"/>
    </contour>
  </outline>
</glyph>
<glyph name="dvDH_RA" format="1">
  <advance width="606"/>
  <outline>
    <contour>
      <point x="402" y="642" type="line"/>
      <point x="403" y="529" type="line"/>
      <point x="633" y="529" type="line"/>
      <point x="633" y="642" type="line"/>
    </contour>
    <contour>
      <point x="403" y="592" type="line"/>
      <point x="403" y="0" type="line"/>
      <point x="573" y="0" type="line"/>
      <point x="573" y="592" type="line"/>
    </contour>
    <contour>
      <point x="50" y="294" type="curve"/>
      <point x="50" y="205" type="line" smooth="yes"/>
      <point x="50" y="132"/>
      <point x="85" y="98"/>
      <point x="161" y="98" type="curve" smooth="yes"/>
      <point x="322" y="98" type="line"/>
      <point x="259" y="150" type="line"/>
      <point x="131" y="-60" type="line"/>
      <point x="310" y="-60" type="line"/>
      <point x="432" y="146" type="line"/>
      <point x="403" y="235" type="line"/>
      <point x="403" y="216"/>
      <point x="395" y="211"/>
      <point x="380" y="211" type="curve" smooth="yes"/>
      <point x="243" y="211" type="line" smooth="yes"/>
      <point x="228" y="211"/>
      <point x="220" y="216"/>
      <point x="220" y="235" type="curve" smooth="yes"/>
      <point x="220" y="272" type="line" smooth="yes"/>
      <point x="220" y="291"/>
      <point x="228" y="296"/>
      <point x="243" y="296" type="curve" smooth="yes"/>
      <point x="312" y="296" type="line"/>
      <point x="312" y="409" type="line"/>
      <point x="243" y="409" type="line" smooth="yes"/>
      <point x="228" y="409"/>
      <point x="220" y="414"/>
      <point x="220" y="433" type="curve" smooth="yes"/>
      <point x="220" y="514" type="line" smooth="yes"/>
      <point x="220" y="529"/>
      <point x="228" y="534"/>
      <point x="243" y="534" type="curve" smooth="yes"/>
      <point x="250" y="534" type="line" smooth="yes"/>
      <point x="265" y="534"/>
      <point x="273" y="529"/>
      <point x="273" y="514" type="curve" smooth="yes"/>
      <point x="273" y="478" type="line"/>
      <point x="363" y="478" type="line"/>
      <point x="363" y="541" type="line" smooth="yes"/>
      <point x="363" y="615"/>
      <point x="322" y="647"/>
      <point x="233" y="647" type="curve" smooth="yes"/>
      <point x="180" y="647" type="line" smooth="yes"/>
      <point x="91" y="647"/>
      <point x="50" y="615"/>
      <point x="50" y="541" type="curve" smooth="yes"/>
      <point x="50" y="411" type="line" smooth="yes"/>
      <point x="50" y="374"/>
      <point x="67" y="359"/>
      <point x="97" y="355" type="curve"/>
      <point x="97" y="350" type="line"/>
      <point x="67" y="346"/>
      <point x="50" y="331"/>
    </contour>
  </outline>
</glyph>
<glyph name="dvD_B_RA" format="1">
  <advance width="600"/>
  <outline>
    <contour>
      <point x="575" y="-10" type="move" name="blwm.uu"/>
    </contour>
    <contour>
      <point x="560" y="-30" type="move" name="blwm.vr"/>
    </contour>
    <contour>
      <point x="560" y="652" type="move" name="abvm.e"/>
    </contour>
    <contour>
      <point x="560" y="642" type="move" name="abvm.bindu"/>
    </contour>
    <contour>
      <point x="561" y="-20" type="move" name="blwm.virama"/>
    </contour>
    <contour>
      <point x="390" y="0" type="move" name="blwm.u"/>
    </contour>
    <contour>
      <point x="338" y="593" type="line"/>
      <point x="338" y="472" type="line"/>
      <point x="166" y="472" type="line" smooth="yes"/>
      <point x="57" y="472"/>
      <point x="26" y="438"/>
      <point x="26" y="365" type="curve" smooth="yes"/>
      <point x="26" y="179" type="line" smooth="yes"/>
      <point x="26" y="142"/>
      <point x="43" y="127"/>
      <point x="73" y="123" type="curve"/>
      <point x="73" y="118" type="line"/>
      <point x="43" y="114"/>
      <point x="26" y="99"/>
      <point x="26" y="62" type="curve" smooth="yes"/>
      <point x="26" y="-25" type="line" smooth="yes"/>
      <point x="26" y="-98"/>
      <point x="57" y="-132"/>
      <point x="166" y="-132" type="curve" smooth="yes"/>
      <point x="177" y="-132" type="line"/>
      <point x="51" y="-267" type="line"/>
      <point x="199" y="-267" type="line"/>
      <point x="338" y="-116" type="line"/>
      <point x="338" y="-222" type="line"/>
      <point x="508" y="-222" type="line"/>
      <point x="508" y="301" type="line"/>
      <point x="338" y="301" type="line"/>
      <point x="338" y="242" type="line" smooth="yes"/>
      <point x="338" y="223"/>
      <point x="330" y="218"/>
      <point x="315" y="218" type="curve" smooth="yes"/>
      <point x="219" y="218" type="line" smooth="yes"/>
      <point x="204" y="218"/>
      <point x="196" y="223"/>
      <point x="196" y="242" type="curve" smooth="yes"/>
      <point x="196" y="335" type="line" smooth="yes"/>
      <point x="196" y="354"/>
      <point x="206" y="359"/>
      <point x="221" y="359" type="curve" smooth="yes"/>
      <point x="508" y="359" type="line"/>
      <point x="508" y="593" type="line"/>
    </contour>
    <contour>
      <point x="209" y="109" type="curve"/>
      <point x="314" y="109" type="line" smooth="yes"/>
      <point x="331" y="109"/>
      <point x="342" y="110"/>
      <point x="353" y="113" type="curve"/>
      <point x="353" y="-8" type="line" smooth="yes"/>
      <point x="353" y="-28"/>
      <point x="343" y="-33"/>
      <point x="325" y="-33" type="curve" smooth="yes"/>
      <point x="209" y="-33" type="line" smooth="yes"/>
      <point x="191" y="-33"/>
      <point x="181" y="-28"/>
      <point x="181" y="-8" type="curve" smooth="yes"/>
      <point x="181" y="83" type="line" smooth="yes"/>
      <point x="181" y="104"/>
      <point x="191" y="109"/>
    </contour>
    <contour>
      <point x="-34" y="642" type="line"/>
      <point x="-34" y="529" type="line"/>
      <point x="568" y="529" type="line"/>
      <point x="568" y="642" type="line"/>
    </contour>
    <contour>
      <point x="139" y="130" type="line"/>
      <point x="300" y="-39" type="line"/>
      <point x="388" y="-39" type="line"/>
      <point x="227" y="130" type="line"/>
    </contour>
  </outline>
</glyph>
<glyph name="dvD_DA" format="1">
  <advance width="474"/>
  <outline>
    <contour>
      <point x="449" y="-10" type="move" name="blwm.uu"/>
    </contour>
    <contour>
      <point x="434" y="-30" type="move" name="blwm.vr"/>
    </contour>
    <contour>
      <point x="434" y="652" type="move" name="abvm.e"/>
    </contour>
    <contour>
      <point x="434" y="642" type="move" name="abvm.bindu"/>
    </contour>
    <contour>
      <point x="435" y="-20" type="move" name="blwm.virama"/>
    </contour>
    <contour>
      <point x="264" y="0" type="move" name="blwm.u"/>
    </contour>
    <contour>
      <point x="-34" y="642" type="line"/>
      <point x="-34" y="529" type="line"/>
      <point x="494" y="529" type="line"/>
      <point x="494" y="642" type="line"/>
    </contour>
    <contour>
      <point x="264" y="236" type="line"/>
      <point x="264" y="-55" type="line"/>
      <point x="434" y="-55" type="line"/>
      <point x="434" y="236" type="line"/>
    </contour>
    <contour>
      <point x="244" y="593" type="line"/>
      <point x="244" y="472" type="line"/>
      <point x="132" y="472" type="line" smooth="yes"/>
      <point x="43" y="472"/>
      <point x="2" y="440"/>
      <point x="2" y="366" type="curve" smooth="yes"/>
      <point x="2" y="306" type="line" smooth="yes"/>
      <point x="2" y="269"/>
      <point x="19" y="254"/>
      <point x="49" y="250" type="curve"/>
      <point x="49" y="245" type="line"/>
      <point x="19" y="241"/>
      <point x="2" y="226"/>
      <point x="2" y="189" type="curve" smooth="yes"/>
      <point x="2" y="129" type="line" smooth="yes"/>
      <point x="2" y="55"/>
      <point x="43" y="23"/>
      <point x="132" y="23" type="curve" smooth="yes"/>
      <point x="211" y="23" type="line" smooth="yes"/>
      <point x="268" y="23"/>
      <point x="278" y="47"/>
      <point x="278" y="93" type="curve"/>
      <point x="264" y="160" type="line"/>
      <point x="264" y="141"/>
      <point x="256" y="136"/>
      <point x="241" y="136" type="curve" smooth="yes"/>
      <point x="165" y="136" type="line" smooth="yes"/>
      <point x="150" y="136"/>
      <point x="142" y="141"/>
      <point x="142" y="160" type="curve" smooth="yes"/>
      <point x="142" y="167" type="line" smooth="yes"/>
      <point x="142" y="186"/>
      <point x="150" y="191"/>
      <point x="165" y="191" type="curve" smooth="yes"/>
      <point x="224" y="191" type="line"/>
      <point x="224" y="304" type="line"/>
      <point x="165" y="304" type="line" smooth="yes"/>
      <point x="150" y="304"/>
      <point x="142" y="309"/>
      <point x="142" y="328" type="curve" smooth="yes"/>
      <point x="142" y="339" type="line" smooth="yes"/>
      <point x="142" y="354"/>
      <point x="150" y="359"/>
      <point x="165" y="359" type="curve" smooth="yes"/>
      <point x="414" y="359" type="line"/>
      <point x="414" y="593" type="line"/>
    </contour>
  </outline>
</glyph>
<glyph name="dvD_VA" format="1">
  <advance width="498"/>
  <outline>
    <contour>
      <point x="473" y="-10" type="move" name="blwm.uu"/>
    </contour>
    <contour>
      <point x="458" y="-30" type="move" name="blwm.vr"/>
    </contour>
    <contour>
      <point x="458" y="652" type="move" name="abvm.e"/>
    </contour>
    <contour>
      <point x="458" y="642" type="move" name="abvm.bindu"/>
    </contour>
    <contour>
      <point x="459" y="-20" type="move" name="blwm.virama"/>
    </contour>
    <contour>
      <point x="288" y="0" type="move" name="blwm.u"/>
    </contour>
    <contour>
      <point x="26" y="365" type="curve"/>
      <point x="26" y="142" type="line" smooth="yes"/>
      <point x="26" y="105"/>
      <point x="43" y="90"/>
      <point x="73" y="86" type="curve"/>
      <point x="73" y="81" type="line"/>
      <point x="43" y="77"/>
      <point x="26" y="62"/>
      <point x="26" y="25" type="curve" smooth="yes"/>
      <point x="26" y="-25" type="line" smooth="yes"/>
      <point x="26" y="-98"/>
      <point x="57" y="-132"/>
      <point x="166" y="-132" type="curve" smooth="yes"/>
      <point x="235" y="-132" type="line" smooth="yes"/>
      <point x="262" y="-132"/>
      <point x="278" y="-127"/>
      <point x="288" y="-116" type="curve"/>
      <point x="288" y="-222" type="line"/>
      <point x="458" y="-222" type="line"/>
      <point x="458" y="291" type="line"/>
      <point x="288" y="291" type="line"/>
      <point x="288" y="205" type="line" smooth="yes"/>
      <point x="288" y="186"/>
      <point x="280" y="181"/>
      <point x="265" y="181" type="curve" smooth="yes"/>
      <point x="219" y="181" type="line" smooth="yes"/>
      <point x="204" y="181"/>
      <point x="196" y="186"/>
      <point x="196" y="205" type="curve" smooth="yes"/>
      <point x="196" y="335" type="line" smooth="yes"/>
      <point x="196" y="354"/>
      <point x="206" y="359"/>
      <point x="221" y="359" type="curve" smooth="yes"/>
      <point x="458" y="359" type="line"/>
      <point x="458" y="593" type="line"/>
      <point x="288" y="593" type="line"/>
      <point x="288" y="472" type="line"/>
      <point x="166" y="472" type="line" smooth="yes"/>
      <point x="57" y="472"/>
      <point x="26" y="438"/>
    </contour>
    <contour>
      <point x="219" y="68" type="curve"/>
      <point x="256" y="68" type="line" smooth="yes"/>
      <point x="270" y="68"/>
      <point x="279" y="69"/>
      <point x="288" y="72" type="curve"/>
      <point x="288" y="-5" type="line" smooth="yes"/>
      <point x="288" y="-24"/>
      <point x="280" y="-29"/>
      <point x="265" y="-29" type="curve" smooth="yes"/>
      <point x="219" y="-29" type="line" smooth="yes"/>
      <point x="204" y="-29"/>
      <point x="196" y="-24"/>
      <point x="196" y="-5" type="curve" smooth="yes"/>
      <point x="196" y="44" type="line" smooth="yes"/>
      <point x="196" y="63"/>
      <point x="204" y="68"/>
    </contour>
    <contour>
      <point x="-34" y="642" type="line"/>
      <point x="-34" y="529" type="line"/>
      <point x="518" y="529" type="line"/>
      <point x="518" y="642" type="line"/>
    </contour>
  </outline>
</glyph>
<glyph name="dvEyelash_HA" format="1">
  <advance width="703"/>
  <outline>
    <contour>
      <point x="533" y="-50" type="move" name="blwm.uu"/>
    </contour>
    <contour>
      <point x="575" y="-70" type="move" name="blwm.vr"/>
    </contour>
    <contour>
      <point x="664" y="652" type="move" name="abvm.e"/>
    </contour>
    <contour>
      <point x="664" y="642" type="move" name="abvm.bindu"/>
    </contour>
    <contour>
      <point x="570" y="-20" type="move" name="blwm.virama"/>
    </contour>
    <contour>
      <point x="432" y="-40" type="move" name="blwm.u"/>
    </contour>
    <contour>
      <point x="-20" y="642" type="line"/>
      <point x="-20" y="529" type="line"/>
      <point x="723" y="529" type="line"/>
      <point x="723" y="642" type="line"/>
    </contour>
    <contour>
      <point x="25" y="452" type="line"/>
      <point x="25" y="379" type="line" smooth="yes"/>
      <point x="25" y="306"/>
      <point x="51" y="262"/>
      <point x="160" y="262" type="curve" smooth="yes"/>
      <point x="302" y="262" type="line"/>
      <point x="302" y="257" type="line"/>
      <point x="272" y="253"/>
      <point x="255" y="238"/>
      <point x="255" y="201" type="curve" smooth="yes"/>
      <point x="255" y="127" type="line" smooth="yes"/>
      <point x="255" y="34"/>
      <point x="306" y="0"/>
      <point x="416" y="0" type="curve" smooth="yes"/>
      <point x="663" y="0" type="line"/>
      <point x="663" y="113" type="line"/>
      <point x="448" y="113" type="line" smooth="yes"/>
      <point x="433" y="113"/>
      <point x="425" y="118"/>
      <point x="425" y="137" type="curve" smooth="yes"/>
      <point x="425" y="179" type="line" smooth="yes"/>
      <point x="425" y="198"/>
      <point x="433" y="203"/>
      <point x="448" y="203" type="curve" smooth="yes"/>
      <point x="468" y="203" type="line" smooth="yes"/>
      <point x="483" y="203"/>
      <point x="493" y="198"/>
      <point x="493" y="179" type="curve" smooth="yes"/>
      <point x="493" y="160" type="line"/>
      <point x="663" y="160" type="line"/>
      <point x="663" y="189" type="line" smooth="yes"/>
      <point x="663" y="282"/>
      <point x="622" y="316"/>
      <point x="502" y="316" type="curve" smooth="yes"/>
      <point x="448" y="316" type="line" smooth="yes"/>
      <point x="433" y="316"/>
      <point x="425" y="322"/>
      <point x="425" y="334" type="curve" smooth="yes"/>
      <point x="425" y="341" type="line" smooth="yes"/>
      <point x="425" y="353"/>
      <point x="433" y="359"/>
      <point x="448" y="359" type="curve" smooth="yes"/>
      <point x="663" y="359" type="line"/>
      <point x="663" y="593" type="line"/>
      <point x="493" y="593" type="line"/>
      <point x="493" y="472" type="line"/>
      <point x="395" y="472" type="line" smooth="yes"/>
      <point x="275" y="472"/>
      <point x="255" y="432"/>
      <point x="256" y="342" type="curve" smooth="yes"/>
      <point x="256" y="316" type="line"/>
      <point x="300" y="375" type="line"/>
      <point x="210" y="375" type="line" smooth="yes"/>
      <point x="195" y="375"/>
      <point x="187" y="380"/>
      <point x="187" y="395" type="curve" smooth="yes"/>
      <point x="187" y="452" type="line"/>
    </contour>
  </outline>
</glyph>
<glyph name="dvGHA" format="1">
  <advance width="532"/>
  <outline>
    <contour>
      <point x="40" y="504" type="curve"/>
      <point x="40" y="418" type="line" smooth="yes"/>
      <point x="40" y="381"/>
      <point x="57" y="366"/>
      <point x="87" y="362" type="curve"/>
      <point x="87" y="357" type="line"/>
      <point x="57" y="353"/>
      <point x="40" y="338"/>
      <point x="40" y="301" type="curve" smooth="yes"/>
      <point x="40" y="205" type="line" smooth="yes"/>
      <point x="40" y="112"/>
      <point x="91" y="78"/>
      <point x="201" y="78" type="curve" smooth="yes"/>
      <point x="273" y="78" type="line" smooth="yes"/>
      <point x="320" y="78"/>
      <point x="336" y="102"/>
      <point x="336" y="138" type="curve"/>
      <point x="322" y="225" type="line"/>
      <point x="322" y="199"/>
      <point x="314" y="191"/>
      <point x="288" y="191" type="curve" smooth="yes"/>
      <point x="233" y="191" type="line" smooth="yes"/>
      <point x="218" y="191"/>
      <point x="210" y="196"/>
      <point x="210" y="215" type="curve" smooth="yes"/>
      <point x="210" y="279" type="line" smooth="yes"/>
      <point x="210" y="298"/>
      <point x="218" y="303"/>
      <point x="233" y="303" type="curve" smooth="yes"/>
      <point x="266" y="303" type="line"/>
      <point x="266" y="416" type="line"/>
      <point x="233" y="416" type="line" smooth="yes"/>
      <point x="218" y="416"/>
      <point x="210" y="421"/>
      <point x="210" y="440" type="curve" smooth="yes"/>
      <point x="210" y="495" type="line" smooth="yes"/>
      <point x="210" y="521"/>
      <point x="218" y="529"/>
      <point x="244" y="529" type="curve"/>
      <point x="150" y="557" type="line"/>
      <point x="84" y="557"/>
      <point x="40" y="550"/>
    </contour>
    <contour>
      <point x="-20" y="642" type="line"/>
      <point x="-20" y="529" type="line"/>
      <point x="552" y="529" type="line"/>
      <point x="552" y="642" type="line"/>
    </contour>
    <contour>
      <point x="322" y="592" type="line"/>
      <point x="322" y="0" type="line"/>
      <point x="492" y="0" type="line"/>
      <point x="492" y="592" type="line"/>
    </contour>
  </outline>
</glyph>
<glyph name="dvGH_NA" format="1">
  <advance width="990"/>
  <outline>
    <contour>
      <point x="790" y="552" type="line"/>
      <point x="790" y="0" type="line"/>
      <point x="960" y="0" type="line"/>
      <point x="960" y="552" type="line"/>
    </contour>
    <contour>
      <point x="730" y="205" type="curve"/>
      <point x="730" y="386" type="line"/>
      <point x="560" y="386" type="line"/>
      <point x="560" y="215" type="line" smooth="yes"/>
      <point x="560" y="196"/>
      <point x="550" y="191"/>
      <point x="535" y="191" type="curve" smooth="yes"/>
      <point x="517" y="191" type="line" smooth="yes"/>
      <point x="502" y="191"/>
      <point x="492" y="196"/>
      <point x="492" y="215" type="curve" smooth="yes"/>
      <point x="492" y="339" type="line" smooth="yes"/>
      <point x="492" y="354"/>
      <point x="500" y="359"/>
      <point x="515" y="359" type="curve" smooth="yes"/>
      <point x="886" y="359" type="line"/>
      <point x="886" y="472" type="line"/>
      <point x="462" y="472" type="line" smooth="yes"/>
      <point x="353" y="472"/>
      <point x="322" y="438"/>
      <point x="322" y="365" type="curve" smooth="yes"/>
      <point x="322" y="205" type="line" smooth="yes"/>
      <point x="322" y="112"/>
      <point x="363" y="78"/>
      <point x="483" y="78" type="curve" smooth="yes"/>
      <point x="569" y="78" type="line" smooth="yes"/>
      <point x="689" y="78"/>
      <point x="730" y="112"/>
    </contour>
    <contour>
      <point x="40" y="504" type="curve"/>
      <point x="40" y="418" type="line"/>
      <point x="40" y="381"/>
      <point x="57" y="366"/>
      <point x="87" y="362" type="curve"/>
      <point x="87" y="357" type="line"/>
      <point x="57" y="353"/>
      <point x="40" y="338"/>
      <point x="40" y="301" type="curve" smooth="yes"/>
      <point x="40" y="205" type="line" smooth="yes"/>
      <point x="40" y="112"/>
      <point x="91" y="78"/>
      <point x="201" y="78" type="curve" smooth="yes"/>
      <point x="284" y="78" type="line" smooth="yes"/>
      <point x="331" y="78"/>
      <point x="360" y="102"/>
      <point x="360" y="138" type="curve" smooth="yes"/>
      <point x="322" y="225" type="line"/>
      <point x="322" y="199"/>
      <point x="314" y="191"/>
      <point x="288" y="191" type="curve" smooth="yes"/>
      <point x="233" y="191" type="line" smooth="yes"/>
      <point x="218" y="191"/>
      <point x="210" y="196"/>
      <point x="210" y="215" type="curve" smooth="yes"/>
      <point x="210" y="279" type="line" smooth="yes"/>
      <point x="210" y="298"/>
      <point x="218" y="303"/>
      <point x="233" y="303" type="curve" smooth="yes"/>
      <point x="266" y="303" type="line"/>
      <point x="266" y="416" type="line"/>
      <point x="233" y="416" type="line" smooth="yes"/>
      <point x="218" y="416"/>
      <point x="210" y="421"/>
      <point x="210" y="440" type="curve" smooth="yes"/>
      <point x="210" y="495" type="line" smooth="yes"/>
      <point x="210" y="521"/>
      <point x="218" y="529"/>
      <point x="244" y="529" type="curve" smooth="yes"/>
      <point x="1020" y="529" type="line"/>
      <point x="1020" y="642" type="line"/>
      <point x="-20" y="642" type="line"/>
      <point x="-20" y="529" type="line"/>
      <point x="67" y="529" type="line"/>
      <point x="67" y="546" type="line"/>
      <point x="50" y="539"/>
      <point x="40" y="526"/>
    </contour>
  </outline>
</glyph>
<glyph name="dvG_DH_VA" format="1">
  <advance width="1324"/>
  <outline>
    <contour>
      <point x="-20" y="642" type="line"/>
      <point x="-20" y="529" type="line"/>
      <point x="490" y="529" type="line"/>
      <point x="490" y="642" type="line"/>
    </contour>
    <contour>
      <point x="266" y="554" type="line"/>
      <point x="266" y="215" type="line" smooth="yes"/>
      <point x="266" y="196"/>
      <point x="256" y="191"/>
      <point x="241" y="191" type="curve" smooth="yes"/>
      <point x="223" y="191" type="line" smooth="yes"/>
      <point x="208" y="191"/>
      <point x="198" y="196"/>
      <point x="198" y="215" type="curve" smooth="yes"/>
      <point x="198" y="328" type="line" smooth="yes"/>
      <point x="198" y="354"/>
      <point x="203" y="359"/>
      <point x="229" y="359" type="curve" smooth="yes"/>
      <point x="327" y="359" type="line"/>
      <point x="327" y="472" type="line"/>
      <point x="208" y="472" type="line" smooth="yes"/>
      <point x="82" y="472"/>
      <point x="28" y="440"/>
      <point x="28" y="357" type="curve" smooth="yes"/>
      <point x="28" y="205" type="line" smooth="yes"/>
      <point x="28" y="112"/>
      <point x="69" y="78"/>
      <point x="189" y="78" type="curve" smooth="yes"/>
      <point x="275" y="78" type="line" smooth="yes"/>
      <point x="395" y="78"/>
      <point x="436" y="112"/>
      <point x="436" y="205" type="curve" smooth="yes"/>
      <point x="436" y="554" type="line"/>
    </contour>
    <contour>
      <point x="686" y="427" type="curve"/>
      <point x="686" y="514" type="line" smooth="yes"/>
      <point x="686" y="529"/>
      <point x="694" y="534"/>
      <point x="709" y="534" type="curve" smooth="yes"/>
      <point x="716" y="534" type="line" smooth="yes"/>
      <point x="731" y="534"/>
      <point x="739" y="529"/>
      <point x="739" y="514" type="curve" smooth="yes"/>
      <point x="739" y="478" type="line"/>
      <point x="829" y="478" type="line"/>
      <point x="829" y="541" type="line" smooth="yes"/>
      <point x="829" y="615"/>
      <point x="788" y="647"/>
      <point x="699" y="647" type="curve" smooth="yes"/>
      <point x="646" y="647" type="line" smooth="yes"/>
      <point x="557" y="647"/>
      <point x="516" y="615"/>
      <point x="516" y="541" type="curve" smooth="yes"/>
      <point x="516" y="405" type="line" smooth="yes"/>
      <point x="516" y="368"/>
      <point x="533" y="353"/>
      <point x="563" y="349" type="curve"/>
      <point x="563" y="344" type="line"/>
      <point x="533" y="340"/>
      <point x="516" y="325"/>
      <point x="516" y="288" type="curve" smooth="yes"/>
      <point x="516" y="184" type="line" smooth="yes"/>
      <point x="516" y="110"/>
      <point x="557" y="78"/>
      <point x="646" y="78" type="curve" smooth="yes"/>
      <point x="844" y="78" type="line" smooth="yes"/>
      <point x="897" y="78"/>
      <point x="924" y="102"/>
      <point x="924" y="138" type="curve"/>
      <point x="869" y="225" type="line"/>
      <point x="869" y="199"/>
      <point x="861" y="191"/>
      <point x="835" y="191" type="curve" smooth="yes"/>
      <point x="709" y="191" type="line" smooth="yes"/>
      <point x="694" y="191"/>
      <point x="686" y="196"/>
      <point x="686" y="215" type="curve" smooth="yes"/>
      <point x="686" y="266" type="line" smooth="yes"/>
      <point x="686" y="285"/>
      <point x="694" y="290"/>
      <point x="709" y="290" type="curve" smooth="yes"/>
      <point x="778" y="290" type="line"/>
      <point x="778" y="403" type="line"/>
      <point x="709" y="403" type="line" smooth="yes"/>
      <point x="694" y="403"/>
      <point x="686" y="408"/>
    </contour>
    <contour>
      <point x="869" y="642" type="line"/>
      <point x="869" y="529" type="line"/>
      <point x="1344" y="529" type="line"/>
      <point x="1344" y="642" type="line"/>
    </contour>
    <contour>
      <point x="1114" y="591" type="line"/>
      <point x="1114" y="0" type="line"/>
      <point x="1284" y="0" type="line"/>
      <point x="1284" y="591" type="line"/>
    </contour>
    <contour>
      <point x="1073" y="472" type="line"/>
      <point x="1009" y="472" type="line" smooth="yes"/>
      <point x="900" y="472"/>
      <point x="869" y="438"/>
      <point x="869" y="365" type="curve" smooth="yes"/>
      <point x="869" y="205" type="line" smooth="yes"/>
      <point x="869" y="112"/>
      <point x="914" y="78"/>
      <point x="1000" y="78" type="curve" smooth="yes"/>
      <point x="1061" y="78" type="line" smooth="yes"/>
      <point x="1118" y="78"/>
      <point x="1128" y="102"/>
      <point x="1128" y="148" type="curve"/>
      <point x="1114" y="215" type="line"/>
      <point x="1114" y="196"/>
      <point x="1106" y="191"/>
      <point x="1091" y="191" type="curve" smooth="yes"/>
      <point x="1062" y="191" type="line" smooth="yes"/>
      <point x="1047" y="191"/>
      <point x="1039" y="196"/>
      <point x="1039" y="215" type="curve" smooth="yes"/>
      <point x="1039" y="349" type="line" smooth="yes"/>
      <point x="1039" y="364"/>
      <point x="1047" y="369"/>
      <point x="1062" y="369" type="curve" smooth="yes"/>
      <point x="1073" y="369" type="line"/>
    </contour>
  </outline>
</glyph>
<glyph name="dvHA" format="1">
  <advance width="488"/>
  <outline>
    <contour>
      <point x="318" y="-50" type="move" name="blwm.uu"/>
    </contour>
    <contour>
      <point x="360" y="-70" type="move" name="blwm.vr"/>
    </contour>
    <contour>
      <point x="449" y="652" type="move" name="abvm.e"/>
    </contour>
    <contour>
      <point x="449" y="642" type="move" name="abvm.bindu"/>
    </contour>
    <contour>
      <point x="355" y="-20" type="move" name="blwm.virama"/>
    </contour>
    <contour>
      <point x="217" y="-40" type="move" name="blwm.u"/>
    </contour>
    <contour>
      <point x="-20" y="642" type="line"/>
      <point x="-20" y="529" type="line"/>
      <point x="508" y="529" type="line"/>
      <point x="508" y="642" type="line"/>
    </contour>
    <contour>
      <point x="278" y="472" type="line"/>
      <point x="180" y="472" type="line" smooth="yes"/>
      <point x="71" y="472"/>
      <point x="40" y="438"/>
      <point x="40" y="365" type="curve" smooth="yes"/>
      <point x="40" y="318" type="line" smooth="yes"/>
      <point x="40" y="281"/>
      <point x="57" y="266"/>
      <point x="87" y="262" type="curve"/>
      <point x="87" y="257" type="line"/>
      <point x="57" y="253"/>
      <point x="40" y="238"/>
      <point x="40" y="201" type="curve" smooth="yes"/>
      <point x="40" y="127" type="line" smooth="yes"/>
      <point x="40" y="34"/>
      <point x="91" y="0"/>
      <point x="201" y="0" type="curve" smooth="yes"/>
      <point x="448" y="0" type="line"/>
      <point x="448" y="113" type="line"/>
      <point x="233" y="113" type="line" smooth="yes"/>
      <point x="218" y="113"/>
      <point x="210" y="118"/>
      <point x="210" y="137" type="curve" smooth="yes"/>
      <point x="210" y="179" type="line" smooth="yes"/>
      <point x="210" y="198"/>
      <point x="218" y="203"/>
      <point x="233" y="203" type="curve" smooth="yes"/>
      <point x="253" y="203" type="line" smooth="yes"/>
      <point x="268" y="203"/>
      <point x="278" y="198"/>
      <point x="278" y="179" type="curve" smooth="yes"/>
      <point x="278" y="160" type="line"/>
      <point x="448" y="160" type="line"/>
      <point x="448" y="189" type="line" smooth="yes"/>
      <point x="448" y="282"/>
      <point x="407" y="316"/>
      <point x="287" y="316" type="curve" smooth="yes"/>
      <point x="233" y="316" type="line" smooth="yes"/>
      <point x="218" y="316"/>
      <point x="210" y="322"/>
      <point x="210" y="334" type="curve" smooth="yes"/>
      <point x="210" y="341" type="line" smooth="yes"/>
      <point x="210" y="353"/>
      <point x="218" y="359"/>
      <point x="233" y="359" type="curve" smooth="yes"/>
      <point x="448" y="359" type="line"/>
      <point x="448" y="593" type="line"/>
      <point x="278" y="593" type="line"/>
    </contour>
  </outline>
</glyph>
<glyph name="dvHA_mU" format="1">
  <advance width="488"/>
  <outline>
    <contour>
      <point x="-20" y="642" type="line"/>
      <point x="-20" y="529" type="line"/>
      <point x="508" y="529" type="line"/>
      <point x="508" y="642" type="line"/>
    </contour>
    <contour>
      <point x="278" y="593" type="line"/>
      <point x="278" y="472" type="line"/>
      <point x="180" y="472" type="line" smooth="yes"/>
      <point x="71" y="472"/>
      <point x="40" y="438"/>
      <point x="40" y="365" type="curve" smooth="yes"/>
      <point x="40" y="318" type="line" smooth="yes"/>
      <point x="40" y="281"/>
      <point x="57" y="266"/>
      <point x="87" y="262" type="curve"/>
      <point x="87" y="257" type="line"/>
      <point x="57" y="253"/>
      <point x="40" y="238"/>
      <point x="40" y="201" type="curve" smooth="yes"/>
      <point x="40" y="127" type="line" smooth="yes"/>
      <point x="40" y="34"/>
      <point x="70" y="0"/>
      <point x="201" y="0" type="curve" smooth="yes"/>
      <point x="251" y="0" type="line" smooth="yes"/>
      <point x="277" y="0"/>
      <point x="282" y="-5"/>
      <point x="282" y="-31" type="curve" smooth="yes"/>
      <point x="282" y="-40" type="line" smooth="yes"/>
      <point x="282" y="-66"/>
      <point x="277" y="-71"/>
      <point x="251" y="-71" type="curve" smooth="yes"/>
      <point x="212" y="-71" type="line" smooth="yes"/>
      <point x="191" y="-71"/>
      <point x="179" y="-66"/>
      <point x="168" y="-49" type="curve" smooth="yes"/>
      <point x="148" y="-18" type="line"/>
      <point x="-51" y="-18" type="line"/>
      <point x="-21" y="-69" type="line" smooth="yes"/>
      <point x="25" y="-147"/>
      <point x="72" y="-184"/>
      <point x="182" y="-184" type="curve" smooth="yes"/>
      <point x="321" y="-184" type="line" smooth="yes"/>
      <point x="407" y="-184"/>
      <point x="452" y="-150"/>
      <point x="452" y="-57" type="curve" smooth="yes"/>
      <point x="452" y="-13" type="line" smooth="yes"/>
      <point x="452" y="80"/>
      <point x="407" y="113"/>
      <point x="321" y="113" type="curve" smooth="yes"/>
      <point x="233" y="113" type="line" smooth="yes"/>
      <point x="218" y="113"/>
      <point x="210" y="118"/>
      <point x="210" y="137" type="curve" smooth="yes"/>
      <point x="210" y="179" type="line" smooth="yes"/>
      <point x="210" y="198"/>
      <point x="218" y="203"/>
      <point x="233" y="203" type="curve" smooth="yes"/>
      <point x="253" y="203" type="line" smooth="yes"/>
      <point x="268" y="203"/>
      <point x="278" y="198"/>
      <point x="278" y="179" type="curve" smooth="yes"/>
      <point x="278" y="160" type="line"/>
      <point x="448" y="160" type="line"/>
      <point x="448" y="189" type="line" smooth="yes"/>
      <point x="448" y="282"/>
      <point x="407" y="316"/>
      <point x="287" y="316" type="curve" smooth="yes"/>
      <point x="233" y="316" type="line" smooth="yes"/>
      <point x="218" y="316"/>
      <point x="210" y="322"/>
      <point x="210" y="334" type="curve" smooth="yes"/>
      <point x="210" y="341" type="line" smooth="yes"/>
      <point x="210" y="353"/>
      <point x="218" y="359"/>
      <point x="233" y="359" type="curve" smooth="yes"/>
      <point x="448" y="359" type="line"/>
      <point x="448" y="593" type="line"/>
    </contour>
  </outline>
</glyph>
<glyph name="dvHA_mvR" format="1">
  <advance width="471"/>
  <outline>
    <contour>
      <point x="-20" y="642" type="line"/>
      <point x="-20" y="529" type="line"/>
      <point x="491" y="529" type="line"/>
      <point x="491" y="642" type="line"/>
    </contour>
    <contour>
      <point x="261" y="593" type="line"/>
      <point x="261" y="472" type="line"/>
      <point x="180" y="472" type="line" smooth="yes"/>
      <point x="71" y="472"/>
      <point x="40" y="438"/>
      <point x="40" y="365" type="curve" smooth="yes"/>
      <point x="40" y="318" type="line" smooth="yes"/>
      <point x="40" y="281"/>
      <point x="57" y="266"/>
      <point x="87" y="262" type="curve"/>
      <point x="87" y="257" type="line"/>
      <point x="57" y="253"/>
      <point x="40" y="238"/>
      <point x="40" y="201" type="curve" smooth="yes"/>
      <point x="40" y="127" type="line" smooth="yes"/>
      <point x="40" y="34"/>
      <point x="91" y="0"/>
      <point x="201" y="0" type="curve" smooth="yes"/>
      <point x="448" y="0" type="line"/>
      <point x="448" y="93" type="line"/>
      <point x="233" y="93" type="line" smooth="yes"/>
      <point x="218" y="93"/>
      <point x="210" y="98"/>
      <point x="210" y="117" type="curve" smooth="yes"/>
      <point x="210" y="219" type="line" smooth="yes"/>
      <point x="210" y="238"/>
      <point x="218" y="243"/>
      <point x="233" y="243" type="curve" smooth="yes"/>
      <point x="267" y="243" type="line" smooth="yes"/>
      <point x="278" y="243"/>
      <point x="282" y="239"/>
      <point x="282" y="231" type="curve" smooth="yes"/>
      <point x="282" y="212"/>
      <point x="254" y="199"/>
      <point x="254" y="172" type="curve" smooth="yes"/>
      <point x="254" y="145"/>
      <point x="273" y="130"/>
      <point x="313" y="130" type="curve" smooth="yes"/>
      <point x="426" y="130" type="line"/>
      <point x="426" y="196" type="line"/>
      <point x="380" y="196" type="line" smooth="yes"/>
      <point x="369" y="196"/>
      <point x="365" y="200"/>
      <point x="365" y="208" type="curve" smooth="yes"/>
      <point x="365" y="229"/>
      <point x="397" y="244"/>
      <point x="397" y="279" type="curve" smooth="yes"/>
      <point x="397" y="312"/>
      <point x="375" y="326"/>
      <point x="331" y="326" type="curve" smooth="yes"/>
      <point x="233" y="326" type="line" smooth="yes"/>
      <point x="218" y="326"/>
      <point x="210" y="332"/>
      <point x="210" y="344" type="curve" smooth="yes"/>
      <point x="210" y="351" type="line" smooth="yes"/>
      <point x="210" y="363"/>
      <point x="218" y="369"/>
      <point x="233" y="369" type="curve" smooth="yes"/>
      <point x="431" y="369" type="line"/>
      <point x="431" y="593" type="line"/>
    </contour>
  </outline>
</glyph>
<glyph name="dvH_NA" format="1">
  <advance width="516"/>
  <outline>
    <contour>
      <point x="-20" y="642" type="line"/>
      <point x="-20" y="529" type="line"/>
      <point x="536" y="529" type="line"/>
      <point x="536" y="642" type="line"/>
    </contour>
    <contour>
      <point x="261" y="593" type="line"/>
      <point x="261" y="472" type="line"/>
      <point x="180" y="472" type="line" smooth="yes"/>
      <point x="71" y="472"/>
      <point x="40" y="438"/>
      <point x="40" y="365" type="curve" smooth="yes"/>
      <point x="40" y="318" type="line" smooth="yes"/>
      <point x="40" y="281"/>
      <point x="57" y="266"/>
      <point x="87" y="262" type="curve"/>
      <point x="87" y="257" type="line"/>
      <point x="57" y="253"/>
      <point x="40" y="238"/>
      <point x="40" y="201" type="curve" smooth="yes"/>
      <point x="40" y="127" type="line" smooth="yes"/>
      <point x="40" y="34"/>
      <point x="91" y="0"/>
      <point x="201" y="0" type="curve" smooth="yes"/>
      <point x="421" y="0" type="line"/>
      <point x="421" y="93" type="line"/>
      <point x="233" y="93" type="line" smooth="yes"/>
      <point x="218" y="93"/>
      <point x="210" y="98"/>
      <point x="210" y="117" type="curve" smooth="yes"/>
      <point x="210" y="232" type="line" smooth="yes"/>
      <point x="210" y="251"/>
      <point x="218" y="256"/>
      <point x="233" y="256" type="curve" smooth="yes"/>
      <point x="378" y="256" type="line" smooth="yes"/>
      <point x="393" y="256"/>
      <point x="403" y="251"/>
      <point x="403" y="232" type="curve" smooth="yes"/>
      <point x="403" y="120" type="line"/>
      <point x="488" y="120" type="line"/>
      <point x="488" y="241" type="line" smooth="yes"/>
      <point x="488" y="297"/>
      <point x="460" y="326"/>
      <point x="388" y="326" type="curve" smooth="yes"/>
      <point x="233" y="326" type="line" smooth="yes"/>
      <point x="218" y="326"/>
      <point x="210" y="332"/>
      <point x="210" y="344" type="curve" smooth="yes"/>
      <point x="210" y="351" type="line" smooth="yes"/>
      <point x="210" y="363"/>
      <point x="218" y="369"/>
      <point x="233" y="369" type="curve" smooth="yes"/>
      <point x="431" y="369" type="line"/>
      <point x="431" y="593" type="line"/>
    </contour>
    <contour>
      <point x="362" y="172" type="curve"/>
      <point x="424" y="172" type="line"/>
      <point x="424" y="228" type="line"/>
      <point x="342" y="228" type="line" smooth="yes"/>
      <point x="281" y="228"/>
      <point x="245" y="208"/>
      <point x="245" y="153" type="curve" smooth="yes"/>
      <point x="245" y="129" type="line"/>
      <point x="339" y="129" type="line"/>
      <point x="339" y="149" type="line" smooth="yes"/>
      <point x="339" y="165"/>
      <point x="344" y="172"/>
    </contour>
  </outline>
</glyph>
<glyph name="dvII" format="1">
  <advance width="462"/>
  <outline>
    <contour>
      <point x="-20" y="642" type="line"/>
      <point x="-20" y="529" type="line"/>
      <point x="482" y="529" type="line"/>
      <point x="482" y="642" type="line"/>
    </contour>
    <contour>
      <point x="30" y="165" type="line"/>
      <point x="30" y="-62" type="line"/>
      <point x="200" y="-62" type="line"/>
      <point x="200" y="165" type="line"/>
    </contour>
    <contour>
      <point x="244" y="593" type="line"/>
      <point x="244" y="472" type="line"/>
      <point x="170" y="472" type="line" smooth="yes"/>
      <point x="61" y="472"/>
      <point x="30" y="438"/>
      <point x="30" y="365" type="curve" smooth="yes"/>
      <point x="30" y="309" type="line" smooth="yes"/>
      <point x="30" y="236"/>
      <point x="61" y="202"/>
      <point x="170" y="202" type="curve" smooth="yes"/>
      <point x="239" y="202" type="line" smooth="yes"/>
      <point x="254" y="202"/>
      <point x="262" y="197"/>
      <point x="262" y="182" type="curve" smooth="yes"/>
      <point x="262" y="123" type="line" smooth="yes"/>
      <point x="262" y="108"/>
      <point x="254" y="103"/>
      <point x="239" y="103" type="curve" smooth="yes"/>
      <point x="172" y="103" type="line"/>
      <point x="172" y="0" type="line"/>
      <point x="292" y="0" type="line" smooth="yes"/>
      <point x="401" y="0"/>
      <point x="432" y="34"/>
      <point x="432" y="107" type="curve" smooth="yes"/>
      <point x="432" y="198" type="line" smooth="yes"/>
      <point x="432" y="271"/>
      <point x="401" y="305"/>
      <point x="292" y="305" type="curve" smooth="yes"/>
      <point x="223" y="305" type="line" smooth="yes"/>
      <point x="208" y="305"/>
      <point x="200" y="310"/>
      <point x="200" y="325" type="curve" smooth="yes"/>
      <point x="200" y="349" type="line" smooth="yes"/>
      <point x="200" y="364"/>
      <point x="208" y="369"/>
      <point x="223" y="369" type="curve" smooth="yes"/>
      <point x="414" y="369" type="line"/>
      <point x="414" y="593" type="line"/>
    </contour>
    <contour>
      <point x="490" y="709" type="line"/>
      <point x="490" y="812" type="line"/>
      <point x="384" y="812" type="line" smooth="yes"/>
      <point x="275" y="812"/>
      <point x="244" y="778"/>
      <point x="244" y="705" type="curve" smooth="yes"/>
      <point x="244" y="632" type="line"/>
      <point x="414" y="632" type="line"/>
      <point x="414" y="689" type="line" smooth="yes"/>
      <point x="414" y="704"/>
      <point x="422" y="709"/>
      <point x="437" y="709" type="curve" smooth="yes"/>
    </contour>
  </outline>
</glyph>
<glyph name="dvJA" format="1">
  <advance width="728"/>
  <outline>
    <contour>
      <point x="518" y="572" type="line"/>
      <point x="518" y="0" type="line"/>
      <point x="688" y="0" type="line"/>
      <point x="688" y="572" type="line"/>
    </contour>
    <contour>
      <point x="-20" y="642" type="line"/>
      <point x="-20" y="529" type="line"/>
      <point x="748" y="529" type="line"/>
      <point x="748" y="642" type="line"/>
    </contour>
    <contour>
      <point x="40" y="472" type="line"/>
      <point x="40" y="205" type="line" smooth="yes"/>
      <point x="40" y="112"/>
      <point x="81" y="78"/>
      <point x="201" y="78" type="curve" smooth="yes"/>
      <point x="287" y="78" type="line" smooth="yes"/>
      <point x="407" y="78"/>
      <point x="448" y="112"/>
      <point x="448" y="205" type="curve" smooth="yes"/>
      <point x="448" y="359" type="line"/>
      <point x="545" y="359" type="line"/>
      <point x="545" y="472" type="line"/>
      <point x="278" y="472" type="line"/>
      <point x="278" y="215" type="line" smooth="yes"/>
      <point x="278" y="196"/>
      <point x="268" y="191"/>
      <point x="253" y="191" type="curve" smooth="yes"/>
      <point x="235" y="191" type="line" smooth="yes"/>
      <point x="220" y="191"/>
      <point x="210" y="196"/>
      <point x="210" y="215" type="curve" smooth="yes"/>
      <point x="210" y="472" type="line"/>
    </contour>
  </outline>
</glyph>
<glyph name="dvJH_RA" format="1">
  <advance width="712"/>
  <outline>
    <contour>
      <point x="30" y="232" type="line"/>
      <point x="30" y="0" type="line"/>
      <point x="200" y="0" type="line"/>
      <point x="200" y="232" type="line"/>
    </contour>
    <contour>
      <point x="-40" y="642" type="line"/>
      <point x="-40" y="529" type="line"/>
      <point x="732" y="529" type="line"/>
      <point x="732" y="642" type="line"/>
    </contour>
    <contour>
      <point x="503" y="578" type="line"/>
      <point x="502" y="0" type="line"/>
      <point x="672" y="0" type="line"/>
      <point x="672" y="578" type="line"/>
    </contour>
    <contour>
      <point x="244" y="593" type="line"/>
      <point x="244" y="488" type="line"/>
      <point x="170" y="488" type="line" smooth="yes"/>
      <point x="61" y="488"/>
      <point x="30" y="459"/>
      <point x="30" y="396" type="curve" smooth="yes"/>
      <point x="30" y="355" type="line" smooth="yes"/>
      <point x="30" y="292"/>
      <point x="61" y="262"/>
      <point x="170" y="262" type="curve" smooth="yes"/>
      <point x="239" y="262" type="line" smooth="yes"/>
      <point x="254" y="262"/>
      <point x="262" y="258"/>
      <point x="262" y="245" type="curve" smooth="yes"/>
      <point x="262" y="217" type="line" smooth="yes"/>
      <point x="262" y="204"/>
      <point x="254" y="200"/>
      <point x="239" y="200" type="curve" smooth="yes"/>
      <point x="172" y="200" type="line"/>
      <point x="172" y="111" type="line"/>
      <point x="292" y="111" type="line" smooth="yes"/>
      <point x="401" y="111"/>
      <point x="432" y="140"/>
      <point x="432" y="203" type="curve" smooth="yes"/>
      <point x="432" y="243" type="line" smooth="yes"/>
      <point x="432" y="259"/>
      <point x="429" y="273"/>
      <point x="422" y="286" type="curve"/>
      <point x="386" y="262" type="line"/>
      <point x="516" y="262" type="line"/>
      <point x="516" y="351" type="line"/>
      <point x="223" y="351" type="line" smooth="yes"/>
      <point x="208" y="351"/>
      <point x="200" y="356"/>
      <point x="200" y="368" type="curve" smooth="yes"/>
      <point x="200" y="382" type="line" smooth="yes"/>
      <point x="200" y="395"/>
      <point x="208" y="400"/>
      <point x="223" y="400" type="curve" smooth="yes"/>
      <point x="414" y="400" type="line"/>
      <point x="414" y="593" type="line"/>
    </contour>
    <contour>
      <point x="562" y="232" type="line"/>
      <point x="217" y="-59" type="line"/>
      <point x="366" y="-59" type="line"/>
      <point x="558" y="111" type="line"/>
    </contour>
  </outline>
</glyph>
<glyph name="dvJ_DA" format="1">
  <advance width="964"/>
  <outline>
    <contour>
      <point x="939" y="-10" type="move" name="blwm.uu"/>
    </contour>
    <contour>
      <point x="924" y="-30" type="move" name="blwm.vr"/>
    </contour>
    <contour>
      <point x="924" y="652" type="move" name="abvm.e"/>
    </contour>
    <contour>
      <point x="924" y="642" type="move" name="abvm.bindu"/>
    </contour>
    <contour>
      <point x="925" y="-20" type="move" name="blwm.virama"/>
    </contour>
    <contour>
      <point x="754" y="0" type="move" name="blwm.u"/>
    </contour>
    <contour>
      <point x="40" y="472" type="line"/>
      <point x="40" y="205" type="line" smooth="yes"/>
      <point x="40" y="112"/>
      <point x="81" y="78"/>
      <point x="201" y="78" type="curve" smooth="yes"/>
      <point x="287" y="78" type="line" smooth="yes"/>
      <point x="407" y="78"/>
      <point x="448" y="112"/>
      <point x="448" y="205" type="curve" smooth="yes"/>
      <point x="448" y="359" type="line"/>
      <point x="560" y="359" type="line"/>
      <point x="719" y="472" type="line"/>
      <point x="278" y="472" type="line"/>
      <point x="278" y="215" type="line" smooth="yes"/>
      <point x="278" y="196"/>
      <point x="268" y="191"/>
      <point x="253" y="191" type="curve" smooth="yes"/>
      <point x="235" y="191" type="line" smooth="yes"/>
      <point x="220" y="191"/>
      <point x="210" y="196"/>
      <point x="210" y="215" type="curve" smooth="yes"/>
      <point x="210" y="472" type="line"/>
    </contour>
    <contour>
      <point x="-20" y="642" type="line"/>
      <point x="-20" y="529" type="line"/>
      <point x="984" y="529" type="line"/>
      <point x="984" y="642" type="line"/>
    </contour>
    <contour>
      <point x="754" y="593" type="line"/>
      <point x="754" y="472" type="line"/>
      <point x="656" y="472" type="line" smooth="yes"/>
      <point x="547" y="472"/>
      <point x="516" y="438"/>
      <point x="516" y="365" type="curve" smooth="yes"/>
      <point x="516" y="205" type="line" smooth="yes"/>
      <point x="516" y="112"/>
      <point x="557" y="78"/>
      <point x="677" y="78" type="curve" smooth="yes"/>
      <point x="701" y="78" type="line" smooth="yes"/>
      <point x="758" y="78"/>
      <point x="768" y="102"/>
      <point x="768" y="148" type="curve"/>
      <point x="754" y="215" type="line"/>
      <point x="754" y="196"/>
      <point x="746" y="191"/>
      <point x="731" y="191" type="curve" smooth="yes"/>
      <point x="709" y="191" type="line" smooth="yes"/>
      <point x="694" y="191"/>
      <point x="686" y="196"/>
      <point x="686" y="215" type="curve" smooth="yes"/>
      <point x="686" y="335" type="line" smooth="yes"/>
      <point x="686" y="354"/>
      <point x="696" y="359"/>
      <point x="711" y="359" type="curve" smooth="yes"/>
      <point x="924" y="359" type="line"/>
      <point x="924" y="593" type="line"/>
    </contour>
    <contour>
      <point x="754" y="291" type="line"/>
      <point x="754" y="0" type="line"/>
      <point x="924" y="0" type="line"/>
      <point x="924" y="291" type="line"/>
    </contour>
  </outline>
</glyph>
<glyph name="dvJ_JHA" format="1">
  <advance width="1198"/>
  <outline>
    <contour>
      <point x="40" y="472" type="line"/>
      <point x="40" y="205" type="line" smooth="yes"/>
      <point x="40" y="112"/>
      <point x="81" y="78"/>
      <point x="201" y="78" type="curve" smooth="yes"/>
      <point x="287" y="78" type="line" smooth="yes"/>
      <point x="407" y="78"/>
      <point x="448" y="112"/>
      <point x="448" y="205" type="curve" smooth="yes"/>
      <point x="448" y="359" type="line"/>
      <point x="560" y="359" type="line"/>
      <point x="704" y="472" type="line"/>
      <point x="278" y="472" type="line"/>
      <point x="278" y="215" type="line" smooth="yes"/>
      <point x="278" y="196"/>
      <point x="268" y="191"/>
      <point x="253" y="191" type="curve" smooth="yes"/>
      <point x="235" y="191" type="line" smooth="yes"/>
      <point x="220" y="191"/>
      <point x="210" y="196"/>
      <point x="210" y="215" type="curve" smooth="yes"/>
      <point x="210" y="472" type="line"/>
    </contour>
    <contour>
      <point x="516" y="165" type="line"/>
      <point x="516" y="-62" type="line"/>
      <point x="686" y="-62" type="line"/>
      <point x="686" y="165" type="line"/>
    </contour>
    <contour>
      <point x="-20" y="642" type="line"/>
      <point x="-20" y="529" type="line"/>
      <point x="1218" y="529" type="line"/>
      <point x="1218" y="642" type="line"/>
    </contour>
    <contour>
      <point x="989" y="578" type="line"/>
      <point x="988" y="0" type="line"/>
      <point x="1158" y="0" type="line"/>
      <point x="1158" y="578" type="line"/>
    </contour>
    <contour>
      <point x="730" y="593" type="line"/>
      <point x="730" y="472" type="line"/>
      <point x="656" y="472" type="line" smooth="yes"/>
      <point x="547" y="472"/>
      <point x="516" y="438"/>
      <point x="516" y="365" type="curve" smooth="yes"/>
      <point x="516" y="309" type="line" smooth="yes"/>
      <point x="516" y="236"/>
      <point x="547" y="202"/>
      <point x="656" y="202" type="curve" smooth="yes"/>
      <point x="725" y="202" type="line" smooth="yes"/>
      <point x="740" y="202"/>
      <point x="748" y="197"/>
      <point x="748" y="182" type="curve" smooth="yes"/>
      <point x="748" y="123" type="line" smooth="yes"/>
      <point x="748" y="108"/>
      <point x="740" y="103"/>
      <point x="725" y="103" type="curve" smooth="yes"/>
      <point x="658" y="103" type="line"/>
      <point x="658" y="0" type="line"/>
      <point x="778" y="0" type="line" smooth="yes"/>
      <point x="887" y="0"/>
      <point x="918" y="34"/>
      <point x="918" y="107" type="curve" smooth="yes"/>
      <point x="918" y="180" type="line" smooth="yes"/>
      <point x="918" y="198"/>
      <point x="915" y="215"/>
      <point x="908" y="229" type="curve"/>
      <point x="872" y="202" type="line"/>
      <point x="1002" y="202" type="line"/>
      <point x="1002" y="305" type="line"/>
      <point x="709" y="305" type="line" smooth="yes"/>
      <point x="694" y="305"/>
      <point x="686" y="310"/>
      <point x="686" y="325" type="curve" smooth="yes"/>
      <point x="686" y="349" type="line" smooth="yes"/>
      <point x="686" y="364"/>
      <point x="694" y="369"/>
      <point x="709" y="369" type="curve" smooth="yes"/>
      <point x="900" y="369" type="line"/>
      <point x="900" y="593" type="line"/>
    </contour>
  </outline>
</glyph>
<glyph name="dvJ_J_YA" format="1">
  <advance width="1582"/>
  <outline>
    <contour>
      <point x="-20" y="642" type="line"/>
      <point x="-20" y="529" type="line"/>
      <point x="1602" y="529" type="line"/>
      <point x="1602" y="642" type="line"/>
    </contour>
    <contour>
      <point x="1372" y="592" type="line"/>
      <point x="1372" y="0" type="line"/>
      <point x="1542" y="0" type="line"/>
      <point x="1542" y="592" type="line"/>
    </contour>
    <contour>
      <point x="40" y="442" type="line"/>
      <point x="40" y="205" type="line" smooth="yes"/>
      <point x="40" y="112"/>
      <point x="81" y="78"/>
      <point x="201" y="78" type="curve" smooth="yes"/>
      <point x="287" y="78" type="line" smooth="yes"/>
      <point x="407" y="78"/>
      <point x="448" y="112"/>
      <point x="448" y="205" type="curve" smooth="yes"/>
      <point x="448" y="329" type="line"/>
      <point x="516" y="329" type="line"/>
      <point x="516" y="205" type="line" smooth="yes"/>
      <point x="516" y="112"/>
      <point x="557" y="78"/>
      <point x="677" y="78" type="curve" smooth="yes"/>
      <point x="763" y="78" type="line" smooth="yes"/>
      <point x="883" y="78"/>
      <point x="924" y="112"/>
      <point x="924" y="205" type="curve" smooth="yes"/>
      <point x="924" y="329" type="line"/>
      <point x="994" y="329" type="line"/>
      <point x="994" y="205" type="line" smooth="yes"/>
      <point x="994" y="112"/>
      <point x="1045" y="78"/>
      <point x="1155" y="78" type="curve" smooth="yes"/>
      <point x="1323" y="78" type="line" smooth="yes"/>
      <point x="1370" y="78"/>
      <point x="1386" y="102"/>
      <point x="1386" y="138" type="curve"/>
      <point x="1372" y="225" type="line"/>
      <point x="1372" y="199"/>
      <point x="1364" y="191"/>
      <point x="1338" y="191" type="curve" smooth="yes"/>
      <point x="1187" y="191" type="line" smooth="yes"/>
      <point x="1172" y="191"/>
      <point x="1164" y="196"/>
      <point x="1164" y="215" type="curve" smooth="yes"/>
      <point x="1164" y="329" type="line"/>
      <point x="1169" y="329" type="line" smooth="yes"/>
      <point x="1278" y="329"/>
      <point x="1304" y="373"/>
      <point x="1304" y="446" type="curve" smooth="yes"/>
      <point x="1304" y="491" type="line" smooth="yes"/>
      <point x="1304" y="549"/>
      <point x="1260" y="577"/>
      <point x="1187" y="577" type="curve"/>
      <point x="1119" y="529" type="line"/>
      <point x="1134" y="529"/>
      <point x="1142" y="524"/>
      <point x="1142" y="509" type="curve" smooth="yes"/>
      <point x="1142" y="462" type="line" smooth="yes"/>
      <point x="1142" y="447"/>
      <point x="1134" y="442"/>
      <point x="1119" y="442" type="curve" smooth="yes"/>
      <point x="754" y="442" type="line"/>
      <point x="754" y="215" type="line" smooth="yes"/>
      <point x="754" y="196"/>
      <point x="744" y="191"/>
      <point x="729" y="191" type="curve" smooth="yes"/>
      <point x="711" y="191" type="line" smooth="yes"/>
      <point x="696" y="191"/>
      <point x="686" y="196"/>
      <point x="686" y="215" type="curve" smooth="yes"/>
      <point x="686" y="442" type="line"/>
      <point x="278" y="442" type="line"/>
      <point x="278" y="215" type="line" smooth="yes"/>
      <point x="278" y="196"/>
      <point x="268" y="191"/>
      <point x="253" y="191" type="curve" smooth="yes"/>
      <point x="235" y="191" type="line" smooth="yes"/>
      <point x="220" y="191"/>
      <point x="210" y="196"/>
      <point x="210" y="215" type="curve" smooth="yes"/>
      <point x="210" y="442" type="line"/>
    </contour>
  </outline>
</glyph>
<glyph name="dvJ_MA" format="1">
  <advance width="1212"/>
  <outline>
    <contour>
      <point x="40" y="432" type="line"/>
      <point x="40" y="205" type="line" smooth="yes"/>
      <point x="40" y="112"/>
      <point x="81" y="78"/>
      <point x="201" y="78" type="curve" smooth="yes"/>
      <point x="287" y="78" type="line" smooth="yes"/>
      <point x="407" y="78"/>
      <point x="448" y="112"/>
      <point x="448" y="205" type="curve" smooth="yes"/>
      <point x="448" y="319" type="line"/>
      <point x="570" y="319" type="line"/>
      <point x="670" y="432" type="line"/>
      <point x="278" y="432" type="line"/>
      <point x="278" y="215" type="line" smooth="yes"/>
      <point x="278" y="196"/>
      <point x="268" y="191"/>
      <point x="253" y="191" type="curve" smooth="yes"/>
      <point x="235" y="191" type="line" smooth="yes"/>
      <point x="220" y="191"/>
      <point x="210" y="196"/>
      <point x="210" y="215" type="curve" smooth="yes"/>
      <point x="210" y="432" type="line"/>
    </contour>
    <contour>
      <point x="754" y="560" type="line"/>
      <point x="754" y="215" type="line" smooth="yes"/>
      <point x="754" y="196"/>
      <point x="744" y="191"/>
      <point x="729" y="191" type="curve" smooth="yes"/>
      <point x="693" y="191" type="line" smooth="yes"/>
      <point x="678" y="191"/>
      <point x="668" y="196"/>
      <point x="668" y="215" type="curve" smooth="yes"/>
      <point x="668" y="299" type="line" smooth="yes"/>
      <point x="668" y="314"/>
      <point x="676" y="319"/>
      <point x="691" y="319" type="curve" smooth="yes"/>
      <point x="1098" y="319" type="line"/>
      <point x="1098" y="432" type="line"/>
      <point x="656" y="432" type="line" smooth="yes"/>
      <point x="547" y="432"/>
      <point x="516" y="398"/>
      <point x="516" y="325" type="curve" smooth="yes"/>
      <point x="516" y="205" type="line" smooth="yes"/>
      <point x="516" y="112"/>
      <point x="557" y="78"/>
      <point x="677" y="78" type="curve" smooth="yes"/>
      <point x="763" y="78" type="line" smooth="yes"/>
      <point x="883" y="78"/>
      <point x="924" y="112"/>
      <point x="924" y="205" type="curve" smooth="yes"/>
      <point x="924" y="560" type="line"/>
    </contour>
    <contour>
      <point x="1002" y="552" type="line"/>
      <point x="1002" y="0" type="line"/>
      <point x="1172" y="0" type="line"/>
      <point x="1172" y="552" type="line"/>
    </contour>
    <contour>
      <point x="-20" y="642" type="line"/>
      <point x="-20" y="529" type="line"/>
      <point x="1232" y="529" type="line"/>
      <point x="1232" y="642" type="line"/>
    </contour>
  </outline>
</glyph>
<glyph name="dvJ_R" format="1">
  <advance width="568"/>
  <outline>
    <contour>
      <point x="-20" y="642" type="line"/>
      <point x="-20" y="529" type="line"/>
      <point x="588" y="529" type="line"/>
      <point x="588" y="642" type="line"/>
    </contour>
    <contour>
      <point x="40" y="472" type="line"/>
      <point x="40" y="282" type="line" smooth="yes"/>
      <point x="40" y="189"/>
      <point x="81" y="155"/>
      <point x="201" y="155" type="curve" smooth="yes"/>
      <point x="287" y="155" type="line" smooth="yes"/>
      <point x="407" y="155"/>
      <point x="448" y="189"/>
      <point x="448" y="282" type="curve" smooth="yes"/>
      <point x="448" y="359" type="line"/>
      <point x="588" y="359" type="line"/>
      <point x="588" y="472" type="line"/>
      <point x="278" y="472" type="line"/>
      <point x="278" y="292" type="line" smooth="yes"/>
      <point x="278" y="273"/>
      <point x="268" y="268"/>
      <point x="253" y="268" type="curve" smooth="yes"/>
      <point x="235" y="268" type="line" smooth="yes"/>
      <point x="220" y="268"/>
      <point x="210" y="273"/>
      <point x="210" y="292" type="curve" smooth="yes"/>
      <point x="210" y="472" type="line"/>
    </contour>
    <contour>
      <point x="588" y="316" type="line"/>
      <point x="196" y="-60" type="line"/>
      <point x="375" y="-60" type="line"/>
      <point x="588" y="151" type="line"/>
    </contour>
  </outline>
</glyph>
<glyph name="dvJ_TA" format="1">
  <advance width="969"/>
  <outline>
    <contour>
      <point x="40" y="472" type="line"/>
      <point x="40" y="205" type="line" smooth="yes"/>
      <point x="40" y="112"/>
      <point x="81" y="78"/>
      <point x="201" y="78" type="curve" smooth="yes"/>
      <point x="287" y="78" type="line" smooth="yes"/>
      <point x="407" y="78"/>
      <point x="448" y="112"/>
      <point x="448" y="205" type="curve" smooth="yes"/>
      <point x="448" y="359" type="line"/>
      <point x="560" y="359" type="line"/>
      <point x="705" y="472" type="line"/>
      <point x="278" y="472" type="line"/>
      <point x="278" y="215" type="line" smooth="yes"/>
      <point x="278" y="196"/>
      <point x="268" y="191"/>
      <point x="253" y="191" type="curve" smooth="yes"/>
      <point x="235" y="191" type="line" smooth="yes"/>
      <point x="220" y="191"/>
      <point x="210" y="196"/>
      <point x="210" y="215" type="curve" smooth="yes"/>
      <point x="210" y="472" type="line"/>
    </contour>
    <contour>
      <point x="929" y="552" type="line"/>
      <point x="759" y="552" type="line"/>
      <point x="759" y="0" type="line"/>
      <point x="929" y="0" type="line"/>
    </contour>
    <contour>
      <point x="-20" y="642" type="line"/>
      <point x="-20" y="529" type="line"/>
      <point x="989" y="529" type="line"/>
      <point x="989" y="642" type="line"/>
    </contour>
    <contour>
      <point x="772" y="472" type="line"/>
      <point x="656" y="472" type="line" smooth="yes"/>
      <point x="547" y="472"/>
      <point x="516" y="438"/>
      <point x="516" y="365" type="curve" smooth="yes"/>
      <point x="516" y="107" type="line" smooth="yes"/>
      <point x="516" y="34"/>
      <point x="547" y="0"/>
      <point x="656" y="0" type="curve" smooth="yes"/>
      <point x="720" y="0" type="line"/>
      <point x="720" y="113" type="line"/>
      <point x="709" y="113" type="line" smooth="yes"/>
      <point x="694" y="113"/>
      <point x="686" y="118"/>
      <point x="686" y="133" type="curve" smooth="yes"/>
      <point x="686" y="339" type="line" smooth="yes"/>
      <point x="686" y="354"/>
      <point x="694" y="359"/>
      <point x="709" y="359" type="curve" smooth="yes"/>
      <point x="772" y="359" type="line"/>
    </contour>
  </outline>
</glyph>
<glyph name="dvJ_YA" format="1">
  <advance width="1106"/>
  <outline>
    <contour>
      <point x="896" y="592" type="line"/>
      <point x="896" y="0" type="line"/>
      <point x="1066" y="0" type="line"/>
      <point x="1066" y="592" type="line"/>
    </contour>
    <contour>
      <point x="40" y="442" type="line"/>
      <point x="40" y="205" type="line" smooth="yes"/>
      <point x="40" y="112"/>
      <point x="81" y="78"/>
      <point x="201" y="78" type="curve" smooth="yes"/>
      <point x="287" y="78" type="line" smooth="yes"/>
      <point x="407" y="78"/>
      <point x="448" y="112"/>
      <point x="448" y="205" type="curve" smooth="yes"/>
      <point x="448" y="329" type="line"/>
      <point x="518" y="329" type="line"/>
      <point x="518" y="205" type="line" smooth="yes"/>
      <point x="518" y="112"/>
      <point x="569" y="78"/>
      <point x="679" y="78" type="curve" smooth="yes"/>
      <point x="847" y="78" type="line" smooth="yes"/>
      <point x="894" y="78"/>
      <point x="910" y="102"/>
      <point x="910" y="138" type="curve"/>
      <point x="896" y="225" type="line"/>
      <point x="896" y="199"/>
      <point x="888" y="191"/>
      <point x="862" y="191" type="curve" smooth="yes"/>
      <point x="711" y="191" type="line" smooth="yes"/>
      <point x="696" y="191"/>
      <point x="688" y="196"/>
      <point x="688" y="215" type="curve" smooth="yes"/>
      <point x="688" y="329" type="line"/>
      <point x="693" y="329" type="line" smooth="yes"/>
      <point x="802" y="329"/>
      <point x="828" y="373"/>
      <point x="828" y="446" type="curve" smooth="yes"/>
      <point x="828" y="491" type="line" smooth="yes"/>
      <point x="828" y="549"/>
      <point x="784" y="577"/>
      <point x="711" y="577" type="curve"/>
      <point x="643" y="529" type="line"/>
      <point x="658" y="529"/>
      <point x="666" y="524"/>
      <point x="666" y="509" type="curve" smooth="yes"/>
      <point x="666" y="462" type="line" smooth="yes"/>
      <point x="666" y="447"/>
      <point x="658" y="442"/>
      <point x="643" y="442" type="curve" smooth="yes"/>
      <point x="278" y="442" type="line"/>
      <point x="278" y="215" type="line" smooth="yes"/>
      <point x="278" y="196"/>
      <point x="268" y="191"/>
      <point x="253" y="191" type="curve" smooth="yes"/>
      <point x="235" y="191" type="line" smooth="yes"/>
      <point x="220" y="191"/>
      <point x="210" y="196"/>
      <point x="210" y="215" type="curve" smooth="yes"/>
      <point x="210" y="442" type="line"/>
    </contour>
    <contour>
      <point x="-20" y="642" type="line"/>
      <point x="-20" y="529" type="line"/>
      <point x="1126" y="529" type="line"/>
      <point x="1126" y="642" type="line"/>
    </contour>
  </outline>
</glyph>
<glyph name="dvKH_MA" format="1">
  <advance width="1417"/>
  <outline>
    <contour>
      <point x="680" y="472" type="line"/>
      <point x="616" y="472" type="line" smooth="yes"/>
      <point x="507" y="472"/>
      <point x="476" y="438"/>
      <point x="476" y="365" type="curve" smooth="yes"/>
      <point x="476" y="205" type="line" smooth="yes"/>
      <point x="476" y="112"/>
      <point x="521" y="78"/>
      <point x="607" y="78" type="curve" smooth="yes"/>
      <point x="689" y="78" type="line" smooth="yes"/>
      <point x="753" y="78"/>
      <point x="771" y="107"/>
      <point x="771" y="160" type="curve"/>
      <point x="721" y="215" type="line"/>
      <point x="721" y="196"/>
      <point x="713" y="191"/>
      <point x="698" y="191" type="curve" smooth="yes"/>
      <point x="669" y="191" type="line" smooth="yes"/>
      <point x="654" y="191"/>
      <point x="646" y="196"/>
      <point x="646" y="215" type="curve" smooth="yes"/>
      <point x="646" y="349" type="line" smooth="yes"/>
      <point x="646" y="364"/>
      <point x="654" y="369"/>
      <point x="669" y="369" type="curve" smooth="yes"/>
      <point x="680" y="369" type="line"/>
    </contour>
    <contour>
      <point x="40" y="472" type="line"/>
      <point x="40" y="115" type="line" smooth="yes"/>
      <point x="40" y="32"/>
      <point x="94" y="0"/>
      <point x="220" y="0" type="curve" smooth="yes"/>
      <point x="492" y="0" type="line"/>
      <point x="492" y="113" type="line"/>
      <point x="244" y="113" type="line" smooth="yes"/>
      <point x="219" y="113"/>
      <point x="210" y="121"/>
      <point x="210" y="147" type="curve" smooth="yes"/>
      <point x="210" y="472" type="line"/>
    </contour>
    <contour>
      <point x="-20" y="642" type="line"/>
      <point x="-20" y="529" type="line"/>
      <point x="229" y="529" type="line" smooth="yes"/>
      <point x="255" y="529"/>
      <point x="263" y="521"/>
      <point x="263" y="495" type="curve" smooth="yes"/>
      <point x="263" y="377" type="line" smooth="yes"/>
      <point x="263" y="351"/>
      <point x="254" y="343"/>
      <point x="229" y="343" type="curve" smooth="yes"/>
      <point x="197" y="343" type="line"/>
      <point x="197" y="230" type="line"/>
      <point x="290" y="230" type="line" smooth="yes"/>
      <point x="395" y="230"/>
      <point x="433" y="262"/>
      <point x="433" y="345" type="curve" smooth="yes"/>
      <point x="433" y="504" type="line" smooth="yes"/>
      <point x="433" y="526"/>
      <point x="423" y="539"/>
      <point x="406" y="546" type="curve"/>
      <point x="382" y="529" type="line"/>
      <point x="1437" y="529" type="line"/>
      <point x="1437" y="642" type="line"/>
    </contour>
    <contour>
      <point x="1207" y="552" type="line"/>
      <point x="1207" y="0" type="line"/>
      <point x="1377" y="0" type="line"/>
      <point x="1377" y="552" type="line"/>
    </contour>
    <contour>
      <point x="1303" y="432" type="line"/>
      <point x="861" y="432" type="line" smooth="yes"/>
      <point x="752" y="432"/>
      <point x="721" y="398"/>
      <point x="721" y="325" type="curve" smooth="yes"/>
      <point x="721" y="205" type="line" smooth="yes"/>
      <point x="721" y="112"/>
      <point x="762" y="78"/>
      <point x="882" y="78" type="curve" smooth="yes"/>
      <point x="968" y="78" type="line" smooth="yes"/>
      <point x="1088" y="78"/>
      <point x="1129" y="112"/>
      <point x="1129" y="205" type="curve" smooth="yes"/>
      <point x="1129" y="560" type="line"/>
      <point x="959" y="560" type="line"/>
      <point x="959" y="215" type="line" smooth="yes"/>
      <point x="959" y="196"/>
      <point x="949" y="191"/>
      <point x="934" y="191" type="curve" smooth="yes"/>
      <point x="898" y="191" type="line" smooth="yes"/>
      <point x="883" y="191"/>
      <point x="873" y="196"/>
      <point x="873" y="215" type="curve" smooth="yes"/>
      <point x="873" y="299" type="line" smooth="yes"/>
      <point x="873" y="314"/>
      <point x="881" y="319"/>
      <point x="896" y="319" type="curve" smooth="yes"/>
      <point x="1303" y="319" type="line"/>
    </contour>
  </outline>
</glyph>
<glyph name="dvKH_NA" format="1">
  <advance width="1399"/>
  <outline>
    <contour>
      <point x="680" y="472" type="line"/>
      <point x="616" y="472" type="line" smooth="yes"/>
      <point x="507" y="472"/>
      <point x="476" y="438"/>
      <point x="476" y="365" type="curve" smooth="yes"/>
      <point x="476" y="205" type="line" smooth="yes"/>
      <point x="476" y="112"/>
      <point x="521" y="78"/>
      <point x="607" y="78" type="curve" smooth="yes"/>
      <point x="689" y="78" type="line" smooth="yes"/>
      <point x="753" y="78"/>
      <point x="771" y="107"/>
      <point x="771" y="160" type="curve"/>
      <point x="721" y="215" type="line"/>
      <point x="721" y="196"/>
      <point x="713" y="191"/>
      <point x="698" y="191" type="curve" smooth="yes"/>
      <point x="669" y="191" type="line" smooth="yes"/>
      <point x="654" y="191"/>
      <point x="646" y="196"/>
      <point x="646" y="215" type="curve" smooth="yes"/>
      <point x="646" y="349" type="line" smooth="yes"/>
      <point x="646" y="364"/>
      <point x="654" y="369"/>
      <point x="669" y="369" type="curve" smooth="yes"/>
      <point x="680" y="369" type="line"/>
    </contour>
    <contour>
      <point x="40" y="472" type="line"/>
      <point x="40" y="115" type="line" smooth="yes"/>
      <point x="40" y="32"/>
      <point x="94" y="0"/>
      <point x="220" y="0" type="curve" smooth="yes"/>
      <point x="492" y="0" type="line"/>
      <point x="492" y="113" type="line"/>
      <point x="244" y="113" type="line" smooth="yes"/>
      <point x="219" y="113"/>
      <point x="210" y="121"/>
      <point x="210" y="147" type="curve" smooth="yes"/>
      <point x="210" y="472" type="line"/>
    </contour>
    <contour>
      <point x="-20" y="642" type="line"/>
      <point x="-20" y="529" type="line"/>
      <point x="229" y="529" type="line" smooth="yes"/>
      <point x="255" y="529"/>
      <point x="263" y="521"/>
      <point x="263" y="495" type="curve" smooth="yes"/>
      <point x="263" y="377" type="line" smooth="yes"/>
      <point x="263" y="351"/>
      <point x="254" y="343"/>
      <point x="229" y="343" type="curve" smooth="yes"/>
      <point x="197" y="343" type="line"/>
      <point x="197" y="230" type="line"/>
      <point x="290" y="230" type="line" smooth="yes"/>
      <point x="395" y="230"/>
      <point x="433" y="262"/>
      <point x="433" y="345" type="curve" smooth="yes"/>
      <point x="433" y="504" type="line" smooth="yes"/>
      <point x="433" y="526"/>
      <point x="423" y="539"/>
      <point x="406" y="546" type="curve"/>
      <point x="382" y="529" type="line"/>
      <point x="1419" y="529" type="line"/>
      <point x="1419" y="642" type="line"/>
    </contour>
    <contour>
      <point x="1189" y="552" type="line"/>
      <point x="1189" y="0" type="line"/>
      <point x="1359" y="0" type="line"/>
      <point x="1359" y="552" type="line"/>
    </contour>
    <contour>
      <point x="1129" y="205" type="curve"/>
      <point x="1129" y="386" type="line"/>
      <point x="959" y="386" type="line"/>
      <point x="959" y="215" type="line" smooth="yes"/>
      <point x="959" y="196"/>
      <point x="949" y="191"/>
      <point x="934" y="191" type="curve" smooth="yes"/>
      <point x="916" y="191" type="line" smooth="yes"/>
      <point x="901" y="191"/>
      <point x="891" y="196"/>
      <point x="891" y="215" type="curve" smooth="yes"/>
      <point x="891" y="339" type="line" smooth="yes"/>
      <point x="891" y="354"/>
      <point x="899" y="359"/>
      <point x="914" y="359" type="curve" smooth="yes"/>
      <point x="1285" y="359" type="line"/>
      <point x="1285" y="472" type="line"/>
      <point x="861" y="472" type="line" smooth="yes"/>
      <point x="752" y="472"/>
      <point x="721" y="438"/>
      <point x="721" y="365" type="curve" smooth="yes"/>
      <point x="721" y="205" type="line" smooth="yes"/>
      <point x="721" y="112"/>
      <point x="762" y="78"/>
      <point x="882" y="78" type="curve" smooth="yes"/>
      <point x="968" y="78" type="line" smooth="yes"/>
      <point x="1088" y="78"/>
      <point x="1129" y="112"/>
    </contour>
  </outline>
</glyph>
<glyph name="dvKH_R" format="1">
  <advance width="720"/>
  <outline>
    <contour>
      <point x="40" y="472" type="line"/>
      <point x="40" y="115" type="line" smooth="yes"/>
      <point x="40" y="32"/>
      <point x="94" y="0"/>
      <point x="220" y="0" type="curve" smooth="yes"/>
      <point x="462" y="0" type="line"/>
      <point x="462" y="113" type="line"/>
      <point x="244" y="113" type="line" smooth="yes"/>
      <point x="219" y="113"/>
      <point x="210" y="121"/>
      <point x="210" y="147" type="curve" smooth="yes"/>
      <point x="210" y="472" type="line"/>
    </contour>
    <contour>
      <point x="-20" y="642" type="line"/>
      <point x="-20" y="529" type="line"/>
      <point x="229" y="529" type="line" smooth="yes"/>
      <point x="255" y="529"/>
      <point x="263" y="521"/>
      <point x="263" y="495" type="curve" smooth="yes"/>
      <point x="263" y="377" type="line" smooth="yes"/>
      <point x="263" y="351"/>
      <point x="254" y="343"/>
      <point x="229" y="343" type="curve" smooth="yes"/>
      <point x="197" y="343" type="line"/>
      <point x="197" y="230" type="line"/>
      <point x="290" y="230" type="line" smooth="yes"/>
      <point x="395" y="230"/>
      <point x="433" y="262"/>
      <point x="433" y="345" type="curve" smooth="yes"/>
      <point x="433" y="504" type="line" smooth="yes"/>
      <point x="433" y="526"/>
      <point x="423" y="539"/>
      <point x="406" y="546" type="curve"/>
      <point x="382" y="529" type="line"/>
      <point x="750" y="529" type="line"/>
      <point x="750" y="642" type="line"/>
    </contour>
    <contour>
      <point x="680" y="369" type="line"/>
      <point x="680" y="472" type="line"/>
      <point x="616" y="472" type="line" smooth="yes"/>
      <point x="507" y="472"/>
      <point x="476" y="438"/>
      <point x="476" y="365" type="curve" smooth="yes"/>
      <point x="476" y="225" type="line" smooth="yes"/>
      <point x="476" y="132"/>
      <point x="521" y="98"/>
      <point x="607" y="98" type="curve" smooth="yes"/>
      <point x="640" y="98" type="line"/>
      <point x="577" y="150" type="line"/>
      <point x="449" y="-60" type="line"/>
      <point x="628" y="-60" type="line"/>
      <point x="750" y="146" type="line"/>
      <point x="750" y="211" type="line"/>
      <point x="669" y="211" type="line" smooth="yes"/>
      <point x="654" y="211"/>
      <point x="646" y="216"/>
      <point x="646" y="235" type="curve" smooth="yes"/>
      <point x="646" y="349" type="line" smooth="yes"/>
      <point x="646" y="364"/>
      <point x="654" y="369"/>
      <point x="669" y="369" type="curve" smooth="yes"/>
    </contour>
  </outline>
</glyph>
